<?xml version="1.0" standalone="no"?>
<!DOCTYPE svg PUBLIC "-//W3C//DTD SVG 20010904//EN"
 "http://www.w3.org/TR/2001/REC-SVG-20010904/DTD/svg10.dtd">
<svg version="1.0" xmlns="http://www.w3.org/2000/svg"
 width="100%" height="100%" viewBox="0 0 200.000000 200.000000"
 preserveAspectRatio="xMidYMid meet">

<g transform="translate(0.000000,200.000000) scale(0.100000,-0.100000)"
 stroke="none">
<path d="M228 1829 c-23 -12 -46 -35 -58 -59 -19 -38 -20 -58 -20 -771 0 -808
-3 -774 64 -822 l31 -22 743 -3 c729 -2 743 -2 782 18 26 13 47 34 60 60 20
39 20 53 18 782 l-3 743 -22 31 c-48 67 -13 64 -825 64 -710 -1 -734 -2 -770
-21z m1472 -279 l0 -150 -700 0 -700 0 0 150 0 150 700 0 700 0 0 -150z m0
-750 l0 -500 -700 0 -700 0 0 500 0 500 700 0 700 0 0 -500z"/>
<path d="M1100 1550 l0 -50 50 0 50 0 0 50 0 50 -50 0 -50 0 0 -50z"/>
<path d="M1300 1550 l0 -50 50 0 50 0 0 50 0 50 -50 0 -50 0 0 -50z"/>
<path d="M1500 1550 l0 -50 50 0 50 0 0 50 0 50 -50 0 -50 0 0 -50z"/>
<path d="M1041 1173 c-6 -21 -49 -193 -96 -383 -47 -190 -88 -352 -91 -361 -3
-13 7 -19 42 -28 26 -7 49 -10 51 -7 4 3 191 736 203 792 0 2 -87 24 -94 24
-3 0 -10 -17 -15 -37z"/>
<path d="M540 915 l-115 -115 118 -117 117 -118 37 38 38 37 -80 80 -80 80 78
78 c42 42 77 82 77 88 0 13 -53 64 -66 64 -5 0 -61 -52 -124 -115z"/>
<path d="M1297 1002 c-15 -15 -27 -32 -27 -37 0 -5 35 -45 77 -87 l78 -78 -78
-78 c-42 -42 -77 -82 -77 -87 0 -13 52 -65 65 -65 5 0 62 52 125 115 l115 115
-115 115 c-63 63 -120 115 -125 115 -6 0 -23 -13 -38 -28z"/>
</g>
</svg>
