<?xml version="1.0" standalone="no"?>
<!DOCTYPE svg PUBLIC "-//W3C//DTD SVG 20010904//EN"
 "http://www.w3.org/TR/2001/REC-SVG-20010904/DTD/svg10.dtd">
<svg version="1.0" xmlns="http://www.w3.org/2000/svg"
 width="100%" height="100%" viewBox="0 0 524.000000 437.000000"
 preserveAspectRatio="xMidYMid meet">

<g transform="translate(0.000000,437.000000) scale(0.100000,-0.100000)"
fill="#000000" stroke="none">
<path d="M4890 4339 c-25 -5 -166 -13 -315 -18 -220 -7 -288 -12 -365 -30 -52
-12 -124 -29 -160 -37 -36 -8 -117 -17 -180 -20 -113 -6 -367 -50 -445 -77
-22 -8 -60 -18 -85 -22 -25 -4 -49 -11 -55 -15 -14 -11 -97 -35 -115 -32 -8 1
-55 2 -105 1 -49 0 -100 0 -113 1 -13 0 -123 -9 -245 -21 -336 -31 -439 -38
-477 -33 -19 3 -83 -1 -141 -10 -152 -23 -260 -21 -288 4 -13 10 -44 22 -69
26 -45 7 -273 -1 -342 -11 -19 -3 -66 -10 -105 -16 -87 -13 -128 -28 -121 -45
11 -30 -235 -45 -364 -22 -76 13 -119 13 -134 -2 -5 -5 -22 -10 -37 -10 -15 0
-38 -4 -51 -9 -14 -5 -67 -14 -119 -20 -52 -6 -131 -21 -175 -33 l-82 -22 -4
-175 c-3 -97 -1 -187 3 -201 4 -14 8 -19 8 -12 1 6 6 12 12 12 7 0 10 -32 7
-97 -2 -78 -8 -107 -26 -141 -27 -52 -29 -130 -6 -193 11 -30 17 -78 17 -149
1 -132 -23 -340 -39 -340 -17 0 -22 -102 -16 -372 3 -170 1 -275 -9 -348 -7
-58 -12 -134 -11 -169 2 -37 -2 -69 -9 -77 -9 -11 -9 -52 1 -172 13 -158 11
-229 -8 -313 -12 -50 -16 -177 -13 -346 2 -65 -2 -120 -8 -131 -6 -12 -11 -40
-11 -64 0 -24 -7 -108 -15 -188 -9 -79 -13 -150 -11 -157 6 -13 82 -13 105 1
15 10 138 16 336 17 72 1 134 4 139 7 27 16 536 -5 566 -23 5 -3 41 -8 80 -10
87 -5 326 -31 480 -52 63 -8 185 -17 270 -19 234 -5 359 -13 381 -24 13 -7 19
-7 19 0 0 6 31 10 78 10 43 0 123 7 178 15 96 15 460 22 497 10 9 -3 25 -8 35
-12 9 -4 44 -7 77 -8 68 -2 281 -37 398 -65 40 -10 46 -14 36 -26 -10 -12 1
-14 68 -14 44 0 103 -4 131 -10 107 -20 195 -25 437 -25 381 0 554 7 560 24 3
7 8 102 11 210 3 108 9 200 14 206 5 6 12 39 16 74 6 54 4 66 -10 77 -28 20
-31 105 -8 229 16 85 23 187 31 450 15 449 18 487 42 575 15 54 22 112 24 210
2 74 9 176 15 225 6 50 14 125 17 168 3 42 8 75 11 72 3 -2 11 7 19 22 10 20
11 33 4 48 -22 45 -31 248 -21 475 17 381 34 640 51 765 6 44 10 89 10 100 -1
29 30 218 38 230 25 37 0 129 -45 164 -23 18 -39 21 -123 20 -53 -1 -116 -5
-141 -10z m212 -35 l31 -16 -7 -86 c-3 -48 -13 -114 -21 -147 -9 -33 -18 -109
-20 -170 -3 -60 -10 -156 -16 -213 -5 -57 -7 -112 -4 -122 3 -11 -1 -75 -10
-142 -12 -86 -18 -216 -20 -433 -4 -321 -16 -613 -28 -631 -3 -6 -13 -94 -22
-195 -9 -101 -22 -222 -30 -269 -7 -47 -18 -195 -25 -330 -24 -531 -31 -648
-46 -733 -12 -70 -14 -146 -9 -375 3 -194 1 -304 -6 -338 l-12 -51 -81 -6
c-121 -8 -505 -1 -636 12 -120 12 -443 65 -495 80 -30 10 -76 17 -275 47 -166
25 -390 29 -592 10 -306 -28 -707 -18 -983 24 -33 5 -93 12 -134 15 -40 3
-134 14 -210 25 -200 28 -427 40 -776 40 -214 0 -348 -5 -430 -15 -94 -11
-121 -12 -127 -2 -11 17 -10 154 2 262 6 50 12 182 15 295 4 113 13 250 21
304 10 71 13 151 10 285 -5 168 -3 199 20 321 23 125 24 153 21 370 -4 257 8
607 23 655 18 57 20 140 5 196 -20 81 -21 152 -2 258 15 81 17 130 11 346 -6
199 -4 254 6 260 17 11 157 35 205 35 22 0 100 9 173 20 74 11 177 20 230 20
106 1 409 44 440 64 7 4 74 14 150 22 114 12 168 13 324 3 142 -9 205 -9 267
0 44 7 149 14 233 16 84 3 167 8 183 12 17 4 36 6 43 4 7 -1 90 5 185 13 94 8
253 18 352 21 189 7 295 18 304 33 3 5 39 15 79 22 39 6 72 15 72 20 0 12 334
65 350 55 4 -2 22 0 41 6 19 6 50 12 69 14 89 11 216 31 226 37 18 12 306 38
369 34 56 -3 138 2 360 23 139 13 164 12 197 -5z m-4262 -364 c0 -5 -7 -10
-16 -10 -8 0 -12 5 -9 10 3 6 10 10 16 10 5 0 9 -4 9 -10z"/>
<path d="M4060 3723 c-79 -7 -196 -31 -272 -58 -40 -14 -109 -30 -152 -36
-112 -14 -111 -13 -112 -111 0 -46 -8 -130 -17 -188 -11 -64 -19 -195 -23
-335 -3 -132 -14 -290 -24 -370 -10 -77 -21 -203 -25 -280 -3 -77 -8 -150 -11
-162 -8 -41 24 -46 155 -24 66 12 157 21 203 21 135 0 129 -6 126 119 -1 58 2
147 7 196 10 86 11 90 35 92 88 9 183 31 312 74 80 26 170 51 199 55 54 7 89
31 89 62 2 132 31 547 39 555 21 21 10 40 -61 106 -126 117 -297 261 -310 261
-7 0 -22 7 -32 15 -19 15 -33 15 -126 8z m152 -442 l71 -70 -6 -97 c-4 -54
-11 -100 -17 -104 -5 -3 -42 -11 -82 -18 -190 -31 -253 -40 -258 -37 -3 2 0
86 5 187 l10 183 75 11 c129 20 124 21 202 -55z m-712 -1090 c0 -6 -4 -13 -10
-16 -5 -3 -10 1 -10 9 0 9 5 16 10 16 6 0 10 -4 10 -9z"/>
<path d="M2845 3590 c-27 -5 -81 -13 -120 -20 -38 -6 -90 -14 -114 -18 l-45
-7 -26 -135 c-22 -109 -28 -177 -33 -350 -4 -118 -11 -251 -17 -295 -5 -44
-14 -192 -20 -330 l-9 -250 23 -21 c23 -20 27 -20 87 -8 35 8 105 14 155 14
59 0 105 5 128 15 26 11 70 15 158 14 68 0 160 2 205 6 l82 6 6 42 c6 41 7
103 4 253 l-1 71 -162 -4 c-88 -2 -179 -6 -201 -9 -50 -6 -60 -3 -58 16 9 77
24 280 27 385 3 72 12 182 21 245 13 92 14 126 5 175 -6 33 -10 94 -8 135 3
85 5 84 -87 70z m-288 -352 c-3 -7 -5 -2 -5 12 0 14 2 19 5 13 2 -7 2 -19 0
-25z m-10 -180 c-2 -13 -4 -3 -4 22 0 25 2 35 4 23 2 -13 2 -33 0 -45z"/>
<path d="M2160 3529 c-30 -5 -164 -13 -298 -18 -163 -6 -247 -12 -255 -20 -8
-8 -12 -52 -12 -124 -2 -275 -17 -603 -31 -646 -8 -25 -14 -81 -14 -125 -1
-45 -6 -101 -11 -126 -6 -25 -15 -99 -19 -165 -5 -66 -12 -137 -15 -157 -8
-45 10 -58 53 -38 18 8 65 12 136 11 100 -2 172 5 301 30 28 5 79 9 115 8 145
-3 181 -1 194 10 11 9 14 46 14 159 0 81 3 159 7 175 7 24 5 27 -18 27 -14 0
-53 -7 -86 -15 -60 -16 -338 -45 -346 -36 -3 2 -5 35 -5 72 0 94 14 109 105
114 90 4 175 16 176 24 14 115 20 324 10 340 -8 12 -16 13 -48 3 -21 -6 -68
-16 -105 -22 -37 -5 -74 -13 -82 -16 -20 -8 -21 34 -2 85 10 28 21 37 75 57
44 17 84 24 132 24 37 0 80 5 94 10 15 6 56 11 92 12 59 1 66 4 74 26 6 14 7
67 3 121 -4 55 -2 111 3 132 17 60 -1 74 -100 76 -45 0 -107 -3 -137 -8z"/>
<path d="M1255 3480 c-60 -4 -115 -8 -121 -9 -12 -1 -24 -101 -29 -246 -1 -44
-3 -90 -4 -102 -1 -19 -8 -22 -73 -26 -40 -3 -86 -8 -102 -12 -25 -7 -28 -6
-22 13 10 29 11 356 1 371 -9 16 -126 6 -165 -13 -23 -12 -74 -26 -142 -41
-56 -11 -60 -30 -64 -318 -4 -248 -8 -297 -42 -452 -4 -22 -7 -172 -6 -334 2
-228 6 -296 16 -303 7 -5 47 -6 88 -3 224 17 225 17 241 94 7 34 9 97 6 161
-3 58 -1 141 5 185 6 44 13 125 17 180 l6 100 75 7 c41 4 93 9 115 10 l40 3
-3 -75 c-10 -314 -23 -490 -38 -539 -15 -52 -15 -56 2 -68 11 -8 21 -9 29 -3
17 14 125 28 180 23 29 -3 71 1 100 10 l50 14 -3 154 c-3 107 1 181 12 244 29
169 48 370 51 535 1 91 8 208 14 260 6 52 9 112 5 133 -10 60 -13 61 -239 47z"/>
<path d="M4335 1539 c-22 -4 -72 -5 -111 -2 -95 7 -198 -4 -225 -25 -32 -27
-49 -133 -54 -336 -2 -100 -8 -235 -13 -301 -6 -66 -9 -169 -8 -230 l1 -110
80 0 c44 -1 143 -4 220 -9 136 -8 141 -8 168 14 15 12 36 38 46 58 11 21 37
57 59 82 21 25 49 65 62 90 12 25 31 58 42 73 14 19 18 36 14 53 -4 15 -2 72
4 128 22 214 24 192 -19 239 -21 23 -53 65 -71 92 -18 28 -49 68 -69 91 -20
22 -44 55 -53 72 -9 18 -21 31 -25 31 -4 -1 -26 -5 -48 -10z m-18 -317 l62
-57 -9 -45 c-5 -25 -9 -73 -10 -107 0 -57 -3 -65 -32 -95 -18 -18 -55 -58 -81
-88 -46 -52 -48 -53 -43 -25 3 17 8 91 11 165 10 239 16 310 29 310 6 0 39
-26 73 -58z"/>
<path d="M2368 1522 c-18 -4 -21 -11 -19 -47 2 -26 -28 -288 -34 -293 -3 -3
-8 4 -11 14 -4 10 -23 53 -42 94 -19 41 -37 93 -40 115 -10 77 -9 77 -140 70
-64 -4 -119 -8 -122 -10 -3 -2 -6 -83 -8 -182 -2 -98 -9 -225 -17 -283 -7 -58
-16 -167 -19 -242 l-6 -138 59 0 c32 0 86 -3 120 -6 l62 -7 -7 119 c-3 65 -1
137 4 159 l9 40 20 -45 c11 -25 30 -87 43 -138 33 -136 28 -132 194 -135 l140
-2 14 70 c7 39 13 119 13 178 -1 70 4 127 14 160 11 37 15 99 15 231 0 100 5
198 11 220 6 23 7 42 2 47 -9 9 -223 19 -255 11z"/>
<path d="M3473 1516 c-53 -7 -63 -12 -72 -35 -15 -38 -30 -165 -41 -341 -5
-85 -17 -196 -26 -246 -20 -114 -17 -296 6 -318 31 -31 248 -35 454 -9 l59 8
-2 95 c-1 52 -3 96 -5 97 -1 1 -60 3 -131 4 -71 0 -140 5 -152 10 -26 10 -30
37 -12 86 9 28 16 32 63 37 28 4 60 4 69 0 30 -11 125 6 131 23 4 9 9 50 12
92 2 42 7 84 10 94 3 10 0 17 -8 18 -41 3 -226 -3 -241 -7 -17 -5 -17 0 -11
73 3 43 10 82 15 87 4 5 61 13 126 18 65 6 122 14 127 19 5 4 10 25 12 46 1
21 5 66 9 101 l8 63 -169 -3 c-93 -2 -197 -7 -231 -12z"/>
<path d="M3190 1510 c-36 -5 -165 -12 -287 -16 l-223 -7 -10 -36 c-12 -45 -13
-191 -1 -210 7 -12 31 -14 105 -12 l96 2 1 -148 c3 -286 8 -473 14 -483 9 -15
190 -13 203 3 7 8 12 118 14 297 4 347 0 335 100 328 39 -3 79 -3 89 -1 24 7
35 71 34 193 l-1 95 -34 1 c-19 1 -64 -2 -100 -6z"/>
<path d="M282 1472 c-9 -6 3 -46 52 -168 35 -87 74 -195 86 -239 12 -44 37
-123 56 -175 18 -52 40 -124 49 -160 8 -36 22 -70 32 -77 19 -14 170 -18 190
-5 7 5 22 43 33 87 11 43 22 80 24 83 7 7 33 -61 41 -106 10 -64 19 -69 127
-76 l97 -6 30 44 c17 25 44 80 60 123 16 43 45 114 64 158 23 50 42 114 51
173 9 57 28 122 50 170 49 110 63 161 47 171 -7 5 -75 9 -152 9 l-139 0 -18
-26 c-10 -15 -38 -79 -61 -142 -24 -63 -47 -119 -52 -124 -10 -11 -27 28 -44
99 l-12 50 -74 0 -74 0 -22 -55 c-17 -44 -23 -51 -28 -35 -4 11 -13 34 -20 50
-7 17 -23 55 -36 85 -12 30 -26 60 -31 66 -14 18 -304 42 -326 26z"/>
<path d="M1600 1433 c-19 -8 -73 -24 -120 -37 l-85 -22 -7 -100 c-6 -98 1
-167 20 -186 7 -7 39 4 94 32 l83 41 3 -41 c5 -62 0 -68 -65 -75 -150 -15
-140 -12 -176 -68 -19 -29 -42 -58 -51 -66 -19 -16 -66 -103 -66 -122 0 -18
41 -69 119 -146 56 -56 80 -73 102 -73 15 0 32 6 36 14 7 12 64 46 77 46 2 0
6 -10 8 -22 2 -18 8 -22 28 -20 14 2 52 6 85 8 85 6 102 11 110 31 3 10 9 108
11 218 3 110 9 222 14 248 6 26 10 86 10 132 0 83 -1 86 -36 125 -22 25 -51
44 -75 50 -21 6 -41 15 -44 20 -14 23 -41 28 -75 13z m-11 -545 c-2 -57 -13
-81 -46 -94 -28 -12 -32 -11 -53 11 -20 22 -21 28 -11 54 8 18 26 34 49 44 55
23 62 21 61 -15z"/>
<path d="M160 2614 c0 -8 5 -12 10 -9 6 4 8 11 5 16 -9 14 -15 11 -15 -7z"/>
</g>
</svg>
