<?xml version="1.0" standalone="no"?>
<!DOCTYPE svg PUBLIC "-//W3C//DTD SVG 20010904//EN"
 "http://www.w3.org/TR/2001/REC-SVG-20010904/DTD/svg10.dtd">
<svg version="1.0" xmlns="http://www.w3.org/2000/svg"
 width="100%" height="100%" viewBox="0 0 2471.000000 4071.000000"
 preserveAspectRatio="xMidYMid meet">

<g transform="translate(0.000000,4071.000000) scale(0.100000,-0.100000)"
 stroke="none">
<path d="M12425 39832 c-55 -11 -80 -69 -92 -207 -8 -98 -25 -124 -107 -165
-84 -41 -96 -63 -96 -169 0 -89 -8 -101 -68 -101 -44 0 -79 -34 -97 -92 -17
-57 -61 -138 -75 -138 -14 0 -60 -83 -60 -108 0 -12 -19 -63 -41 -114 -56
-126 -68 -161 -74 -221 -4 -28 -22 -85 -42 -127 -43 -92 -44 -115 -7 -147 l29
-24 -71 6 c-82 7 -107 0 -99 -26 9 -27 -25 -85 -105 -179 -170 -200 -221 -321
-190 -455 11 -49 6 -55 -20 -24 -17 20 -21 22 -29 9 -6 -8 -8 -24 -6 -35 12
-57 25 -210 19 -228 -4 -12 -19 -33 -34 -47 -20 -18 -31 -43 -39 -85 -20 -96
-29 -109 -85 -116 -63 -7 -76 -25 -76 -105 0 -65 15 -92 45 -80 25 9 17 -10
-41 -100 -123 -188 -174 -356 -394 -1309 -68 -295 -247 -1130 -305 -1425 -9
-47 -21 -89 -25 -93 -4 -5 -17 -6 -29 -2 -44 14 -118 200 -276 695 -60 188
-133 378 -261 678 -153 356 -190 458 -289 797 -107 365 -247 683 -368 839 -23
29 -68 84 -100 122 -88 104 -122 182 -157 363 -31 157 -54 225 -83 250 -28 22
-44 -2 -82 -124 -19 -61 -45 -125 -57 -140 -31 -39 -29 -90 5 -139 36 -51 36
-104 1 -145 -16 -19 -35 -31 -50 -31 -14 0 -36 -11 -49 -25 -21 -20 -25 -34
-25 -82 0 -61 24 -127 53 -152 24 -20 21 -58 -8 -86 -32 -33 -58 -31 -90 6
-32 39 -40 33 -26 -18 16 -56 13 -87 -9 -116 -29 -37 -39 -130 -46 -422 -10
-406 18 -973 60 -1220 32 -188 48 -368 53 -600 5 -237 -1 -315 -25 -323 -22
-7 -101 194 -232 588 -139 421 -228 647 -337 860 -107 209 -212 557 -277 915
-23 122 -48 198 -117 346 -32 69 -63 148 -70 175 -21 89 -41 135 -89 207 -56
84 -113 142 -130 132 -17 -10 -1 -46 41 -92 22 -24 39 -47 39 -52 0 -19 -45
-41 -86 -41 -52 0 -69 19 -83 91 -13 76 -49 162 -109 261 -68 114 -126 232
-151 308 -38 116 -97 153 -298 189 -125 22 -181 44 -241 95 -24 20 -47 36 -52
36 -17 0 -30 -30 -50 -116 -12 -49 -39 -150 -60 -224 -61 -208 -70 -287 -80
-725 -11 -456 -18 -503 -70 -520 -34 -11 -41 -39 -34 -128 5 -62 3 -94 -9
-127 -42 -123 -61 -758 -54 -1715 7 -749 15 -996 43 -1240 61 -542 174 -1090
358 -1732 78 -273 136 -525 136 -594 0 -58 36 -227 70 -328 15 -47 73 -205
129 -351 118 -313 163 -463 197 -660 34 -196 86 -344 210 -596 57 -115 104
-220 104 -232 0 -77 -100 -10 -370 246 -167 159 -218 202 -242 202 -8 0 -38
17 -66 38 -75 55 -397 322 -554 459 -159 139 -273 221 -320 230 -48 9 -68 21
-68 43 0 27 -107 165 -178 230 -33 30 -86 72 -118 92 -33 21 -113 88 -180 150
-148 139 -232 202 -349 263 -49 25 -122 70 -160 100 -95 72 -270 253 -387 401
-100 124 -187 209 -321 308 -87 65 -141 124 -172 188 -21 45 -43 52 -76 22
-37 -33 -72 -11 -122 78 -38 66 -70 102 -124 137 -93 62 -164 60 -198 -3 -15
-28 -16 -39 -7 -62 25 -66 46 -222 92 -706 33 -341 50 -431 114 -598 40 -103
77 -211 124 -360 17 -53 64 -174 105 -270 72 -169 103 -260 126 -365 6 -27 33
-93 60 -145 60 -117 83 -192 116 -385 31 -175 52 -231 90 -241 33 -8 62 -63
80 -153 27 -127 61 -197 131 -270 36 -37 42 -51 73 -156 45 -156 310 -625 353
-625 21 0 -4 66 -96 253 -119 242 -125 256 -136 339 -12 81 -60 206 -186 473
-60 129 -100 229 -109 272 -19 90 -32 124 -103 273 -81 168 -122 274 -129 332
-8 63 7 82 58 74 21 -3 40 -2 44 3 9 16 -17 62 -44 76 l-26 14 30 1 c53 0 93
-34 126 -108 58 -130 75 -155 134 -206 32 -28 93 -85 134 -126 97 -96 118
-110 164 -110 56 0 105 -30 181 -111 63 -67 80 -94 139 -229 6 -14 88 -101
183 -195 138 -136 178 -181 199 -227 27 -58 47 -90 304 -468 220 -323 396
-534 762 -915 303 -315 409 -442 409 -491 0 -22 7 -32 28 -42 16 -7 69 -42
118 -78 84 -62 109 -76 209 -119 22 -9 96 -53 164 -98 l125 -82 -60 -6 c-32
-4 -114 -7 -180 -8 -96 -1 -124 -4 -134 -16 -16 -19 1 -65 24 -65 37 0 242
-188 268 -246 11 -24 10 -29 -17 -50 l-30 -24 70 6 c63 5 73 4 102 -18 141
-104 190 -135 270 -173 112 -54 126 -70 54 -63 -32 3 -77 19 -119 40 -90 48
-175 73 -313 93 -141 21 -303 62 -434 110 -233 87 -287 105 -335 111 -41 5
-50 4 -50 -9 0 -27 79 -76 285 -178 361 -178 654 -288 1049 -394 206 -55 266
-77 266 -95 0 -24 -78 -92 -244 -213 -301 -220 -685 -510 -786 -595 -140 -117
-316 -303 -480 -507 -454 -565 -977 -1099 -1405 -1432 -174 -135 -241 -198
-352 -327 -132 -154 -221 -293 -328 -511 -135 -275 -255 -449 -481 -698 -316
-350 -493 -645 -565 -942 -49 -205 -103 -395 -187 -655 -82 -252 -123 -405
-150 -550 -6 -30 -34 -111 -63 -180 -81 -192 -373 -766 -429 -845 -70 -100
-85 -134 -130 -306 -39 -148 -62 -207 -116 -296 -54 -91 -92 -310 -119 -689
-65 -937 -43 -804 -305 -1824 -196 -761 -234 -986 -250 -1485 -6 -159 -14
-318 -20 -352 -24 -150 -26 -189 -20 -398 4 -121 7 -212 8 -202 4 34 22 6 22
-33 0 -41 -15 -63 -23 -33 -9 36 -6 -224 4 -292 5 -38 13 -110 18 -160 5 -49
12 -97 16 -106 3 -9 8 -117 10 -240 7 -420 24 -904 34 -974 6 -38 11 -135 11
-215 0 -80 5 -185 11 -235 6 -49 14 -135 18 -190 4 -55 10 -106 14 -112 4 -6
14 -45 21 -85 12 -67 36 -170 71 -308 32 -128 46 -191 66 -300 11 -63 29 -135
39 -160 11 -25 24 -65 30 -90 7 -25 22 -70 35 -100 13 -30 34 -91 48 -135 14
-44 42 -125 62 -180 53 -145 81 -233 94 -293 6 -30 16 -63 23 -75 22 -41 119
-332 144 -432 14 -55 37 -122 51 -150 13 -27 42 -102 63 -165 20 -64 56 -151
78 -195 22 -44 52 -116 67 -160 15 -44 44 -114 65 -155 175 -351 447 -1123
467 -1326 5 -56 4 -63 -16 -73 -65 -35 -123 63 -155 260 -28 172 -62 227 -181
294 -88 50 -170 68 -280 63 -111 -6 -183 -31 -270 -93 -184 -131 -292 -428
-224 -611 50 -133 158 -202 372 -239 99 -17 155 -32 174 -47 20 -16 2 -40
-176 -222 -172 -176 -251 -275 -275 -342 -53 -153 -7 -325 120 -443 34 -32 89
-72 121 -87 52 -26 68 -29 158 -29 81 0 111 4 155 23 79 32 181 113 248 195
116 145 164 183 304 232 51 18 108 73 108 106 0 11 -10 37 -22 58 l-22 38 23
32 c67 93 296 221 398 221 46 0 90 -20 181 -82 149 -103 279 -251 297 -340 7
-38 47 -82 95 -103 48 -22 63 -16 98 35 46 68 40 112 -15 118 -43 4 -65 33
-75 99 -5 32 -28 112 -51 178 -38 110 -42 129 -42 220 0 91 3 105 29 158 39
75 118 149 207 192 84 40 144 51 192 36 19 -6 66 -41 106 -76 79 -71 117 -82
161 -47 27 22 21 37 -24 56 -51 21 -104 84 -147 173 -34 69 -42 98 -50 180
-21 209 -60 279 -219 395 -49 36 -100 122 -100 168 0 15 11 49 26 75 15 28 21
52 16 57 -5 5 -41 12 -81 15 -75 6 -105 22 -97 52 23 81 11 111 -45 111 -40 0
-89 22 -118 53 -31 34 -39 103 -17 145 26 51 20 82 -34 167 -63 99 -71 126
-77 246 -8 146 17 196 87 174 42 -13 155 -133 308 -325 176 -221 262 -325 407
-490 129 -149 240 -291 403 -520 72 -102 190 -261 263 -355 156 -203 218 -293
248 -360 39 -88 111 -203 149 -236 34 -30 39 -31 97 -26 115 11 207 37 238 68
36 36 34 43 -48 179 -34 58 -70 130 -79 162 -32 111 -320 505 -613 838 -61 69
-194 215 -298 325 -349 373 -470 515 -608 719 -56 83 -191 269 -299 415 -218
293 -258 358 -258 418 0 50 28 89 167 237 167 176 373 461 592 819 260 426
671 876 1136 1242 l136 107 233 -238 c448 -461 734 -775 889 -979 169 -221
339 -420 618 -721 185 -200 226 -250 265 -324 28 -53 29 -59 28 -195 -1 -114
-7 -169 -32 -295 -61 -306 -86 -625 -122 -1533 -11 -268 -24 -496 -29 -506
-14 -25 -102 -81 -128 -81 -11 0 -28 11 -37 25 -9 14 -23 25 -30 25 -24 0 -77
-52 -115 -110 -43 -67 -119 -138 -414 -388 -343 -290 -537 -486 -537 -542 0
-22 13 -27 110 -40 99 -12 166 -12 213 1 34 9 42 18 63 64 26 59 50 74 96 56
38 -14 44 -31 18 -51 -14 -10 -21 -24 -17 -33 8 -21 91 -47 149 -47 47 0 52 3
123 70 124 118 277 207 309 180 45 -37 15 91 -45 191 -21 36 -39 75 -39 88 0
26 66 91 127 123 50 27 65 18 35 -20 -74 -91 -83 -107 -77 -132 17 -68 118
-231 224 -360 34 -41 76 -103 93 -137 27 -56 30 -70 26 -125 -3 -35 -20 -106
-37 -158 -41 -122 -149 -340 -200 -405 -153 -192 -180 -286 -78 -272 57 8 137
66 263 192 113 113 193 175 225 175 37 0 42 35 36 225 -3 99 -22 376 -41 615
-55 674 -59 770 -59 1320 0 652 24 1211 69 1600 17 150 96 675 149 991 104
623 230 1054 383 1316 94 160 296 408 473 578 418 404 905 640 1494 724 239
35 474 44 850 34 l340 -10 340 -171 c493 -248 551 -290 774 -556 346 -414 518
-699 720 -1200 45 -110 80 -201 78 -202 -1 -1 -47 4 -102 11 -158 23 -182 21
-219 -18 -36 -39 -66 -116 -66 -170 0 -55 21 -97 74 -145 84 -77 126 -78 209
-3 90 81 136 107 151 83 9 -16 46 -218 70 -392 57 -405 95 -801 131 -1385 90
-1457 125 -2230 125 -2796 0 -247 -8 -228 95 -229 177 -1 275 -43 450 -191 66
-56 138 -115 160 -131 37 -28 40 -28 53 -11 7 10 20 42 28 71 15 49 15 58 0
96 -10 25 -41 66 -80 104 -39 37 -76 85 -93 119 -25 51 -28 69 -28 154 0 90 2
99 39 175 75 151 216 256 391 290 96 18 160 12 232 -22 98 -47 207 -200 219
-309 4 -31 -2 -100 -15 -179 -39 -239 -38 -361 5 -453 41 -86 140 -70 225 38
49 62 49 102 -2 239 -35 97 -42 131 -47 213 -5 97 -5 98 33 175 93 188 291
307 478 288 168 -17 240 -113 362 -480 49 -146 70 -196 93 -219 52 -52 127
-35 222 50 64 58 75 92 64 202 -5 47 -9 133 -8 191 0 96 3 112 30 170 54 115
135 172 274 192 215 32 376 -54 410 -218 21 -101 2 -196 -81 -404 -86 -216
-88 -251 -19 -334 36 -43 40 -54 40 -102 0 -123 -66 -383 -119 -466 -38 -61
-69 -80 -144 -90 -72 -10 -107 -36 -107 -81 0 -40 75 -117 116 -118 53 -2 69
2 94 27 23 22 23 27 13 66 -6 24 -10 45 -8 47 3 2 37 -16 77 -40 69 -42 77
-44 154 -46 68 -1 94 -7 154 -33 46 -20 81 -30 96 -26 12 3 67 50 121 104 103
102 177 150 267 173 48 12 50 11 72 -15 49 -56 74 -228 55 -375 -6 -46 -29
-137 -51 -201 -22 -65 -38 -125 -34 -134 17 -44 119 11 176 95 22 32 45 84 56
127 40 152 59 150 288 -26 72 -54 166 -92 230 -92 152 0 341 110 419 244 16
27 40 92 55 145 19 69 31 97 44 99 9 2 64 -11 122 -28 94 -29 116 -32 197 -28
79 3 102 9 162 38 165 79 275 265 275 465 -1 202 -112 410 -260 484 -59 29
-104 41 -312 82 -59 12 -115 27 -125 34 -23 17 -29 116 -13 231 18 136 23 140
138 104 171 -53 460 6 529 109 35 52 72 183 84 296 10 89 9 110 -6 161 -15 53
-28 69 -118 160 -124 122 -182 155 -293 162 -41 2 -74 8 -74 13 0 12 324 816
465 1154 222 532 288 716 405 1130 44 155 64 206 145 370 95 191 188 407 206
478 5 22 18 55 28 75 10 21 25 57 32 82 7 25 32 94 56 153 55 138 102 308 144
527 6 30 19 91 29 135 10 44 24 114 31 155 6 41 22 109 35 150 13 41 28 107
34 145 7 39 22 103 36 143 13 40 24 82 24 95 0 12 18 101 40 197 47 204 53
231 79 405 11 72 25 159 31 195 30 188 41 419 37 825 -6 634 -14 875 -30 941
-31 126 -43 199 -57 345 -5 53 -16 102 -29 127 -25 49 -26 63 -6 55 18 -6 19
-13 -26 267 -17 102 -41 282 -55 400 -46 403 -124 812 -260 1350 -103 414
-138 580 -169 830 -59 459 -119 718 -229 985 -25 61 -68 196 -96 302 -103 391
-190 596 -308 726 -85 94 -101 127 -78 162 49 75 261 99 360 41 24 -14 86 -71
137 -126 l94 -101 345 21 c389 23 541 38 750 76 274 49 489 125 606 214 119
90 220 303 304 642 83 338 115 624 114 1033 0 393 -15 459 -129 564 -53 49
-105 74 -187 91 -31 6 -61 16 -66 23 -11 13 -11 9 63 1142 71 1085 72 1102 45
1145 -16 25 -128 30 -885 36 -783 6 -1087 -2 -1199 -31 -76 -20 -143 -68 -181
-130 -29 -46 -30 -53 -29 -154 1 -163 49 -304 261 -766 290 -630 533 -1241
533 -1339 0 -53 -44 -97 -130 -130 -38 -15 -75 -36 -80 -46 -25 -47 3 -191 86
-441 38 -115 54 -179 52 -205 -3 -38 -4 -39 -45 -42 -23 -2 -105 6 -182 18
-201 29 -258 14 -306 -84 -24 -49 -44 -155 -63 -331 l-7 -70 -165 -3 c-184 -3
-342 10 -398 34 -49 20 -89 59 -117 115 -56 108 -132 400 -186 704 -69 397
-165 605 -389 850 -114 124 -198 228 -299 370 -145 204 -185 277 -363 655 -73
156 -196 325 -467 640 -151 176 -286 373 -392 570 -135 253 -205 348 -344 463
-49 41 -160 144 -245 229 -161 161 -535 556 -535 565 0 12 162 75 250 98 50
13 136 30 193 39 56 9 148 23 203 32 302 47 603 198 1033 518 387 288 776 642
776 707 0 25 99 158 240 325 266 313 287 354 476 917 190 565 217 669 216 807
-1 95 2 110 23 145 72 117 70 108 67 355 -3 265 6 338 58 499 22 66 55 198 74
293 57 278 94 546 196 1393 22 175 53 389 114 768 33 203 36 243 47 590 17
567 16 828 -4 910 -32 130 -106 237 -177 258 -33 10 -44 9 -84 -11 -27 -12
-68 -47 -98 -81 -28 -32 -54 -59 -58 -59 -3 0 -21 34 -39 75 -40 89 -66 125
-91 125 -27 0 -37 -24 -65 -152 -31 -136 -43 -158 -91 -158 -49 0 -79 -33 -88
-96 -10 -65 -51 -139 -92 -163 -72 -43 -207 -281 -246 -433 -11 -46 -38 -123
-60 -173 -61 -138 -215 -438 -264 -512 -24 -37 -46 -83 -49 -102 -20 -130 -31
-161 -131 -368 -317 -655 -390 -793 -529 -1003 -98 -148 -130 -210 -140 -269
-6 -35 -17 -53 -55 -88 -26 -24 -97 -112 -156 -196 l-109 -151 -7 74 c-45 505
-110 1667 -127 2280 -10 332 -19 397 -61 435 -45 40 -63 5 -90 -175 -30 -203
-34 -286 -15 -355 12 -44 17 -120 20 -279 3 -120 7 -228 11 -240 4 -11 15 -30
26 -40 31 -29 21 -118 -20 -182 -76 -119 -96 -431 -32 -489 23 -21 27 -83 9
-118 -24 -46 -52 -67 -88 -67 -62 0 -65 -6 -72 -142 -4 -79 -12 -136 -23 -160
-21 -48 -20 -137 2 -207 19 -60 36 -75 46 -38 8 33 33 42 46 17 8 -14 8 -32 0
-60 -15 -57 -35 -73 -82 -66 -91 15 -105 -54 -29 -141 43 -48 57 -82 47 -108
-3 -8 -31 -27 -63 -42 l-58 -28 0 -75 c0 -75 0 -75 -26 -72 -14 2 -31 -3 -37
-11 -7 -8 -26 -66 -42 -130 -17 -64 -56 -176 -86 -249 -82 -196 -129 -325
-170 -461 -41 -139 -73 -213 -132 -312 -23 -38 -42 -79 -42 -92 0 -61 -100
-208 -321 -473 -121 -145 -206 -267 -215 -309 -16 -71 -31 -100 -83 -152 -57
-56 -88 -73 -112 -59 -19 12 2 74 66 195 30 55 68 136 85 180 48 119 150 424
150 445 0 23 -31 40 -125 68 -71 21 -124 60 -110 81 3 6 15 11 25 11 34 0 41
33 39 187 -1 82 2 156 6 165 4 10 24 22 44 28 44 12 84 51 106 104 16 38 16
41 -1 53 -37 27 -97 11 -155 -42 -42 -37 -99 -59 -144 -53 -27 3 -30 7 -33 43
-4 55 33 238 59 291 28 59 61 75 146 72 57 -3 68 0 71 14 2 10 -8 29 -22 43
-20 20 -35 25 -74 25 -83 0 -119 63 -71 124 25 31 49 105 49 150 1 47 32 106
94 175 60 68 71 105 36 116 -11 4 -28 17 -36 30 -22 34 -4 84 56 150 27 30 54
63 60 76 61 113 122 458 91 508 -6 10 -20 12 -47 8 l-39 -6 25 17 c66 45 90
103 90 218 0 92 19 238 60 467 35 190 66 406 97 662 9 75 7 73 68 63 37 -6 31
37 -9 67 -20 15 -36 35 -36 45 0 10 16 52 35 93 72 159 115 345 116 497 0 106
-9 140 -42 164 -26 18 -19 21 49 29 54 7 72 21 72 61 0 56 -19 70 -102 76
l-73 5 1 65 c0 49 18 128 74 323 40 141 77 254 81 250 3 -5 12 -46 19 -93 19
-137 60 -206 90 -151 5 11 10 57 10 103 0 102 12 149 51 192 42 49 59 97 59
171 0 60 -3 69 -29 96 -36 35 -42 36 -78 5 -27 -23 -28 -28 -28 -119 0 -92
-10 -127 -38 -127 -12 0 -5 92 21 278 16 119 21 135 45 158 37 34 38 94 2 122
-21 17 -25 28 -25 70 0 58 22 171 44 228 9 22 26 86 40 144 29 125 74 253 115
325 41 73 61 145 68 255 l6 95 22 -87 c11 -48 24 -90 27 -94 12 -11 28 6 53
56 31 60 31 94 4 145 -67 125 -63 108 -69 298 -5 171 -6 180 -28 197 -18 15
-33 17 -77 13 -52 -5 -55 -4 -67 22 -11 25 -16 27 -56 22 -53 -6 -108 -47
-140 -106 -26 -45 -71 -74 -137 -86 -113 -20 -127 -52 -268 -601 -30 -115 -61
-223 -70 -240 -55 -107 -237 -234 -237 -166 0 11 -7 113 -15 228 -20 279 -51
875 -70 1324 -34 821 -45 953 -90 1084 -34 100 -44 151 -55 285 -16 198 -57
289 -137 306 -29 6 -83 54 -83 74 0 17 -43 51 -65 51 -29 0 -71 -48 -85 -98
-5 -20 -22 -91 -36 -157 -54 -251 -150 -496 -244 -625 -27 -36 -49 -83 -66
-140 -14 -47 -40 -130 -59 -185 -46 -134 -68 -226 -105 -435 -17 -96 -54 -285
-81 -420 -70 -340 -136 -695 -153 -827 -17 -130 -28 -155 -98 -220 -145 -134
-172 -177 -183 -285 -3 -36 -12 -74 -19 -83 -11 -16 -16 -16 -41 -4 -40 19
-78 85 -124 214 -21 61 -53 145 -70 187 -23 58 -39 128 -61 270 -50 323 -131
701 -231 1088 -64 246 -77 318 -89 510 -6 85 -15 191 -21 235 -16 123 -165
864 -198 989 -67 251 -145 441 -215 523 -40 46 -66 95 -66 123 0 12 11 31 25
44 16 15 25 34 25 54 0 38 -44 142 -61 142 -6 0 -22 -11 -35 -25 -29 -32 -57
-32 -121 0 -64 32 -80 56 -93 140 -7 45 -30 106 -69 188 -32 67 -78 174 -101
237 -124 339 -124 340 -176 340 -19 0 -62 14 -96 31 -59 30 -109 75 -244 222
-47 51 -68 67 -88 67 -35 0 -63 14 -106 56 -39 37 -75 53 -105 46z m-515
-1449 c0 -28 -45 -113 -60 -113 -12 0 -26 27 -33 66 -8 44 15 74 59 74 30 0
34 -3 34 -27z m-63 -293 c18 -35 9 -101 -48 -333 -27 -109 -72 -331 -99 -494
-58 -341 -110 -587 -146 -682 -42 -109 -54 -151 -70 -246 -16 -96 -16 -221 1
-219 20 2 47 77 57 157 5 45 13 86 18 90 18 19 116 -57 144 -111 22 -42 28
-86 16 -116 -9 -24 -15 -27 -48 -24 l-37 3 2 -55 c9 -254 9 -253 -15 -288 -32
-45 -23 -62 32 -62 82 0 90 -12 55 -82 -16 -32 -20 -52 -15 -87 6 -43 2 -54
-50 -144 -66 -116 -68 -140 -9 -145 65 -6 69 -13 60 -122 -13 -164 -5 -188 72
-222 57 -25 94 -19 149 25 97 77 164 84 229 23 40 -38 46 -75 16 -105 -22 -22
-41 -81 -41 -128 0 -41 -14 -42 -30 -3 -17 42 -50 57 -155 71 -112 15 -208 9
-233 -14 -29 -26 -47 -101 -46 -192 0 -91 13 -125 69 -174 54 -47 78 -42 170
34 77 65 105 78 105 51 0 -21 45 -53 118 -86 34 -16 65 -36 68 -44 3 -8 -15
-59 -41 -113 -25 -54 -47 -110 -47 -125 -1 -17 11 -40 29 -62 43 -48 56 -95
51 -182 -4 -83 -16 -102 -69 -113 -22 -4 -39 -16 -49 -34 -13 -24 -13 -30 0
-54 10 -17 33 -34 60 -44 68 -25 78 -46 89 -184 17 -213 23 -573 11 -710 -6
-71 -13 -180 -17 -240 -6 -107 -5 -111 20 -148 45 -66 72 -237 48 -301 -6 -13
-26 -45 -45 -71 -56 -73 -48 -151 15 -138 l27 5 -1 -103 c-2 -93 1 -109 22
-147 20 -37 23 -53 18 -108 -6 -77 -41 -140 -85 -150 -59 -13 -90 -26 -95 -39
-10 -25 18 -47 66 -52 26 -3 52 -12 59 -20 7 -9 11 -43 9 -92 -2 -71 1 -81 23
-108 34 -41 46 -75 46 -134 0 -64 -13 -63 -79 5 -51 55 -54 60 -55 106 -1 34
-40 40 -57 9 -6 -13 -16 -79 -20 -148 -5 -69 -18 -205 -29 -301 -32 -289 -42
-577 -41 -1145 1 -556 -9 -871 -35 -1080 -18 -148 -29 -190 -60 -238 -13 -20
-29 -59 -36 -86 -20 -89 -137 -221 -279 -317 -50 -33 -58 -35 -99 -28 -25 4
-79 8 -120 8 l-75 1 -3 52 c-3 55 10 93 32 93 8 0 19 6 25 14 9 11 8 17 -3 29
-23 23 -82 29 -161 18 -128 -19 -130 -18 -139 113 -13 174 -92 398 -185 521
-56 74 -64 93 -57 136 5 34 3 41 -19 55 -40 26 -54 63 -70 186 -22 156 -57
290 -111 421 -135 330 -164 456 -310 1317 -76 447 -82 531 -44 600 23 41 25
55 24 165 -1 66 -16 248 -34 405 -44 387 -49 609 -21 1005 23 320 44 492 66
535 20 39 43 134 60 255 20 138 52 277 77 334 10 24 35 62 54 84 59 64 115
216 170 452 23 99 28 147 30 275 2 143 4 162 32 245 17 50 38 128 47 175 35
180 47 222 90 307 54 110 148 364 253 683 141 429 169 570 182 905 9 243 17
280 73 363 39 57 50 88 66 197 7 49 26 102 66 185 64 130 87 160 125 160 32 0
52 20 74 75 9 21 24 48 33 58 23 25 64 18 80 -13z m181 -490 c12 -12 22 -27
22 -35 0 -22 -39 -57 -58 -53 -24 5 -38 52 -24 83 14 30 31 32 60 5z m-285
-763 c-2 -28 -52 -117 -65 -117 -12 0 -9 97 4 125 9 20 18 25 37 23 22 -2 26
-8 24 -31z m-24 -253 c27 -34 27 -60 1 -74 -40 -21 -90 12 -90 59 0 35 6 41
41 41 18 0 35 -9 48 -26z m-3243 -10 c30 -45 -12 -114 -53 -88 -23 14 -28 48
-13 85 15 36 44 38 66 3z m2619 -223 c7 -22 -12 -139 -25 -161 -15 -25 -21 -4
-22 74 0 71 11 106 33 106 4 0 10 -9 14 -19z m-2670 -256 c39 -227 22 -553
-30 -559 -31 -3 -43 281 -23 552 12 156 13 162 25 125 8 -21 20 -74 28 -118z
m-1979 50 c12 -29 35 -97 50 -151 14 -55 53 -188 85 -298 32 -109 73 -255 90
-324 34 -139 55 -189 105 -244 54 -61 110 -275 102 -393 -2 -40 -7 -51 -23
-54 -27 -5 -35 -19 -35 -68 0 -98 38 -193 78 -193 41 -1 46 -14 29 -77 -32
-117 -54 -415 -37 -498 11 -52 18 -64 82 -124 38 -36 77 -82 86 -101 14 -27
26 -37 62 -47 85 -25 92 -11 65 151 -15 93 -26 111 -60 100 -11 -3 -46 -8 -77
-11 -54 -5 -58 -4 -58 15 0 45 88 94 170 96 l55 1 35 -72 c19 -40 49 -86 67
-102 24 -22 33 -40 38 -77 10 -82 63 -284 157 -599 135 -453 170 -594 172
-695 l1 -85 -61 -31 c-33 -17 -71 -34 -85 -38 -21 -5 -14 -10 50 -36 41 -16
86 -41 102 -56 66 -64 121 -217 119 -338 0 -33 0 -73 -1 -89 0 -15 13 -48 28
-74 31 -53 36 -121 20 -259 -10 -78 3 -107 42 -97 46 12 149 -163 191 -322 12
-44 30 -104 42 -132 24 -63 19 -94 -22 -123 -17 -12 -30 -26 -30 -31 0 -5 19
-28 43 -49 l42 -39 -37 -31 c-68 -56 -59 -131 28 -250 60 -81 103 -165 139
-269 40 -120 115 -289 155 -350 72 -111 87 -160 58 -189 -51 -51 -169 74 -153
162 7 36 -4 49 -47 60 -35 8 -74 59 -98 130 -22 61 -25 95 -12 141 14 47 6 55
-55 55 -48 0 -58 4 -83 30 -16 17 -42 65 -58 106 -33 85 -53 114 -81 114 -68
0 -7 -264 99 -431 33 -51 60 -101 60 -111 0 -65 334 -730 463 -923 22 -33 69
-103 104 -155 94 -140 290 -539 302 -615 12 -76 5 -112 -25 -132 -31 -20 -30
-47 2 -112 29 -56 62 -85 88 -75 9 3 16 2 16 -4 0 -17 -60 -62 -82 -62 -23 0
-108 46 -108 58 0 4 -14 24 -31 45 -36 43 -53 40 -89 -18 -12 -19 -26 -35 -31
-35 -5 0 -9 23 -9 50 0 65 -32 103 -83 98 l-32 -3 3 -56 c3 -48 0 -60 -23 -87
-30 -36 -100 -72 -139 -72 -63 0 -129 84 -271 345 -47 88 -106 185 -129 215
-50 63 -190 287 -256 408 -25 46 -89 158 -144 250 -245 416 -649 1244 -689
1414 -8 32 -18 50 -34 57 -31 14 -48 44 -97 172 -24 63 -56 137 -70 164 -26
48 -27 53 -20 158 7 106 6 108 -19 131 -20 18 -27 37 -31 82 -17 173 -29 246
-61 369 -19 74 -50 195 -69 268 -19 72 -41 191 -50 262 -9 72 -28 173 -42 225
-22 80 -25 107 -20 173 6 74 5 79 -28 142 -68 128 -110 374 -126 739 -11 243
-13 263 -41 354 -25 83 -39 241 -39 432 0 200 13 316 40 352 24 32 25 51 6 68
-20 16 -43 90 -56 180 -17 118 -25 477 -11 528 11 40 13 42 51 42 43 0 41 -2
55 81 3 20 18 53 34 73 45 56 56 156 80 670 6 138 12 190 22 196 19 13 29 3
55 -55z m5697 -247 c32 -16 18 -39 -40 -65 -76 -35 -190 -44 -210 -18 -18 25
-17 60 3 76 33 27 199 32 247 7z m-6043 -558 c11 -11 20 -32 20 -46 0 -37 -38
-29 -63 13 -29 50 2 74 43 33z m955 -1246 c11 -17 13 -30 7 -36 -24 -24 -71
13 -59 46 9 24 32 20 52 -10z m8895 -1303 c0 -17 -49 -76 -57 -67 -2 2 4 22
13 45 17 42 44 56 44 22z m4361 -658 c6 -16 15 -118 20 -228 10 -216 20 -291
50 -370 25 -67 24 -83 -11 -150 -28 -53 -30 -64 -30 -169 0 -425 -60 -1323
-100 -1491 -27 -117 -49 -271 -60 -425 -5 -74 -17 -172 -27 -216 l-17 -82 29
-56 29 -57 -23 -16 c-21 -14 -23 -22 -18 -65 9 -71 -9 -149 -59 -264 -24 -55
-50 -128 -58 -162 -10 -44 -25 -74 -54 -109 -23 -26 -54 -77 -70 -113 -63
-141 -207 -600 -218 -695 -6 -49 -4 -59 21 -96 l28 -40 -22 -45 c-12 -25 -30
-84 -41 -130 -23 -98 -53 -162 -106 -225 -39 -47 -73 -112 -74 -142 0 -27 -52
-122 -114 -212 -190 -273 -212 -316 -201 -389 6 -37 4 -43 -22 -63 -16 -11
-46 -53 -67 -92 -42 -80 -61 -102 -80 -95 -30 12 -83 -28 -330 -248 -116 -103
-182 -145 -209 -135 -23 9 -21 28 8 68 46 63 60 96 46 112 -21 26 -52 7 -157
-94 -56 -54 -123 -111 -150 -128 -90 -58 -127 -28 -59 48 27 30 38 53 45 96
11 69 28 97 80 133 22 15 39 30 40 33 0 9 -54 19 -99 19 -57 0 -66 11 -45 51
27 53 117 197 257 414 175 269 243 389 408 725 217 440 298 645 318 808 6 46
22 111 37 145 58 137 124 340 157 487 46 196 65 327 83 564 7 105 16 197 19
205 2 9 9 65 15 125 7 81 16 122 34 155 13 25 26 69 30 96 10 65 32 114 89
197 55 81 68 123 61 197 -4 40 -1 63 10 81 37 60 44 83 34 106 -8 18 -6 30 11
56 70 109 105 230 146 503 51 338 125 669 195 863 22 62 63 188 91 279 50 167
91 263 109 263 6 0 15 -12 21 -27z m-16871 -731 c17 -13 21 -24 16 -40 -4 -12
-13 -22 -21 -22 -17 0 -48 48 -41 66 7 19 19 18 46 -4z m8880 -811 c0 -19 -83
-111 -101 -111 -25 0 15 76 58 110 32 25 43 25 43 1z m-80 -296 c0 -30 -4 -55
-10 -55 -5 0 -10 25 -10 55 0 30 5 55 10 55 6 0 10 -25 10 -55z m-3646 -924
c42 -46 76 -241 43 -241 -22 0 -46 33 -66 92 -25 73 -48 107 -77 114 -31 8
-30 16 4 36 36 23 75 22 96 -1z m10428 -1297 c-11 -41 -41 -99 -47 -92 -2 2 6
43 18 92 18 78 22 87 31 67 7 -16 6 -36 -2 -67z m-2878 -160 c9 -3 16 -12 16
-20 0 -15 -38 -44 -57 -44 -19 0 -16 47 5 59 21 13 17 12 36 5z m2766 -153 c0
-24 -70 -161 -100 -194 -40 -46 -79 -48 -94 -5 -8 24 -5 35 20 70 16 24 56 64
89 90 57 46 85 59 85 39z m-2840 -135 c0 -67 -47 -124 -77 -93 -18 18 -11 46
24 87 30 36 53 39 53 6z m-7032 -30 c5 -22 -16 -46 -39 -46 -24 0 -25 27 -2
52 19 21 37 19 41 -6z m7432 -59 c0 -91 -39 -157 -92 -157 -38 0 -71 34 -62
63 16 52 99 137 134 137 17 0 20 -7 20 -43z m-4910 -162 c42 -23 43 -25 17
-25 -56 0 -107 42 -107 87 0 15 4 13 23 -9 12 -15 42 -39 67 -53z m-5290 -25
c11 -11 20 -31 20 -45 0 -38 21 -40 89 -6 33 17 67 31 75 31 8 0 34 -28 59
-62 25 -35 75 -96 111 -136 44 -48 66 -81 66 -97 0 -40 -30 -30 -80 27 -119
135 -151 157 -205 144 -49 -12 -27 -68 62 -155 70 -67 91 -131 45 -131 -43 0
-342 373 -342 426 0 21 5 24 40 24 27 0 47 -7 60 -20z m10057 -57 c-8 -48 -77
-186 -96 -192 -22 -6 -6 111 23 176 21 45 29 53 52 53 25 0 26 -2 21 -37z
m-7842 -79 c26 -36 73 -93 104 -127 81 -88 106 -127 81 -127 -39 0 -250 266
-250 315 0 19 25 -4 65 -61z m-1524 -253 c-36 -34 -40 -70 -11 -96 17 -15 24
-16 49 -5 17 7 36 18 42 26 17 20 31 17 24 -5 -6 -20 35 -61 60 -61 25 0 65
-60 65 -96 0 -32 -2 -34 -33 -34 -62 0 -280 123 -322 182 -17 25 -19 56 -6 76
9 15 91 40 135 41 l28 1 -31 -29z m-215 -135 c57 -60 106 -162 102 -212 -5
-61 -29 -55 -76 18 -51 80 -78 105 -133 121 -36 11 -45 17 -47 40 -5 37 37 77
79 77 25 0 42 -10 75 -44z m622 -219 c48 -48 56 -87 19 -87 -47 0 -105 69 -92
110 9 30 27 24 73 -23z m6112 -2217 c212 -16 489 -48 609 -71 131 -25 422
-108 545 -155 158 -61 260 -125 436 -273 105 -89 216 -168 336 -240 55 -33
108 -69 118 -80 18 -20 18 -21 -19 -68 -59 -74 -401 -413 -417 -413 -21 0 -59
44 -118 135 -102 158 -135 174 -216 104 -57 -49 -88 -62 -131 -54 -29 5 -34 3
-43 -20 -11 -28 -45 -45 -94 -45 -63 0 -66 -13 -37 -230 11 -80 23 -171 26
-203 7 -65 27 -91 61 -83 44 12 26 -21 -49 -87 -167 -145 -305 -239 -752 -513
-159 -97 -378 -233 -485 -302 -486 -311 -697 -432 -751 -432 -89 0 -282 128
-1009 669 -493 366 -610 473 -765 696 -133 192 -171 235 -463 523 -253 248
-266 263 -248 277 11 8 37 15 57 15 53 0 88 16 99 45 6 15 19 26 37 30 110 21
178 46 328 120 184 91 307 142 508 211 140 48 233 91 259 120 9 11 21 38 27
62 18 64 44 77 165 77 115 0 163 -14 172 -51 8 -30 12 -30 54 1 45 33 86 44
195 51 117 8 152 19 170 54 20 39 55 47 248 60 165 10 271 29 312 56 13 8 54
19 92 24 84 11 546 4 743 -10z m-2951 -172 c0 -13 -8 -45 -18 -73 l-18 -50
-57 -3 c-67 -4 -96 14 -96 58 0 35 27 59 87 75 77 21 103 19 102 -7z m-2519
-172 c0 -18 -7 -53 -15 -76 -8 -23 -15 -64 -15 -89 0 -41 -5 -52 -36 -82 -44
-42 -65 -81 -66 -121 -1 -38 25 -60 61 -52 54 13 165 79 218 130 63 61 93 71
178 55 98 -18 141 -15 168 15 18 19 39 27 93 35 64 9 94 8 197 -7 44 -7 97
-47 97 -74 0 -32 -56 -78 -98 -82 -49 -4 -57 -38 -15 -64 15 -10 30 -19 32
-21 6 -5 -28 -30 -72 -54 -51 -27 -125 -40 -170 -29 -46 10 -69 -8 -61 -48 18
-99 -180 -211 -681 -385 -213 -74 -358 -135 -480 -203 -198 -111 -554 -369
-801 -580 -180 -154 -518 -446 -612 -527 -60 -52 -139 -104 -147 -95 -33 38
-69 190 -63 268 3 48 11 69 36 103 49 65 69 115 81 200 14 101 65 236 125 328
26 41 64 102 84 136 53 89 143 200 276 338 121 126 144 137 126 60 -13 -54
-12 -125 0 -125 6 0 81 70 167 156 86 85 175 165 197 176 63 32 171 107 385
268 227 170 276 203 436 300 144 87 198 115 252 129 22 6 52 20 65 31 37 31
58 26 58 -14z m1526 -652 c236 -143 351 -231 549 -424 499 -484 1423 -1284
1920 -1662 109 -83 155 -124 155 -138 0 -30 -604 -478 -887 -658 -283 -181
-601 -350 -1275 -678 -1143 -558 -1482 -729 -1683 -852 -158 -97 -309 -182
-321 -182 -7 0 -52 48 -100 108 -131 159 -250 296 -409 467 -226 244 -423 494
-665 845 -263 381 -431 605 -682 908 l-176 214 66 63 c97 90 148 133 332 280
155 123 281 233 480 418 239 223 469 357 862 503 180 66 354 147 454 210 93
57 139 76 177 72 24 -2 34 2 43 20 16 32 74 73 221 154 144 80 233 136 233
148 0 14 30 40 46 40 21 0 17 -41 -11 -102 -29 -61 -31 -84 -10 -91 41 -16
287 97 363 166 32 31 42 47 42 71 0 17 12 48 26 69 25 37 105 97 130 97 6 0
60 -30 120 -66z m6270 -171 c8 -28 3 -36 -19 -28 -20 8 -41 60 -32 82 6 16 8
16 26 -6 11 -13 22 -34 25 -48z m-105 -75 c14 -50 16 -154 4 -216 -7 -38 -4
-51 29 -116 23 -47 62 -102 107 -150 71 -76 71 -76 41 -76 -41 0 -78 -15 -86
-35 -8 -21 6 -48 54 -105 52 -63 56 -81 30 -150 -24 -64 -21 -76 33 -143 20
-26 22 -37 19 -140 -2 -91 1 -124 17 -177 12 -36 21 -79 21 -96 0 -28 -6 -34
-45 -53 -25 -12 -45 -27 -45 -34 0 -7 22 -35 49 -61 61 -60 92 -130 98 -216
l4 -65 -26 51 c-38 74 -84 115 -137 121 -64 7 -86 -15 -98 -97 -12 -84 -12
-320 0 -540 18 -326 41 -459 86 -501 20 -19 27 -21 49 -11 53 25 113 157 149
332 17 85 36 258 36 331 0 27 4 49 9 49 20 0 78 -263 88 -402 5 -78 4 -88 -11
-88 -22 0 -21 -42 3 -172 33 -175 34 -182 16 -224 -9 -21 -49 -72 -89 -114
-70 -72 -106 -124 -106 -153 0 -18 -56 -68 -112 -101 -80 -45 -88 -72 -128
-436 -45 -405 -58 -490 -79 -490 -4 0 -39 25 -77 56 -101 81 -653 448 -731
485 -128 61 -593 392 -823 585 -159 134 -307 231 -615 404 -249 139 -361 231
-528 432 -92 111 -197 262 -197 283 0 64 585 383 1035 564 300 121 479 225
685 398 57 48 253 234 435 413 471 463 591 570 670 597 30 10 63 32 88 59 23
24 47 44 54 44 7 0 18 -19 24 -42z m6816 -268 c42 -15 52 -43 59 -168 8 -150
-12 -667 -28 -717 -13 -40 -13 -40 -68 -41 -30 0 -65 -4 -76 -8 -31 -10 -38
-46 -15 -76 20 -27 47 -38 104 -39 21 -1 48 -6 59 -12 21 -11 21 -12 3 -25
-23 -17 -80 -17 -160 -1 l-60 13 4 444 c2 331 0 461 -9 508 -12 61 -12 64 11
88 37 40 116 55 176 34z m-1017 -10 c92 -15 150 -46 177 -95 33 -57 88 -232
112 -355 33 -169 42 -243 50 -455 11 -296 27 -320 235 -349 71 -9 103 -19 117
-33 26 -26 43 -134 37 -240 -4 -78 -6 -85 -38 -118 -33 -34 -34 -35 -18 -68
16 -33 147 -195 159 -196 4 -1 9 68 13 152 9 197 26 448 32 468 7 23 48 39
103 39 81 0 85 -15 71 -298 -18 -362 -37 -517 -67 -547 -13 -13 -33 -15 -122
-9 -101 6 -108 5 -153 -19 -86 -46 -397 -107 -545 -107 -111 0 -156 40 -207
187 -15 43 -78 197 -138 343 -135 323 -212 528 -228 606 -16 77 -64 199 -160
404 -144 308 -211 503 -196 566 5 18 20 31 50 45 52 22 233 67 319 78 92 12
322 12 397 1z m441 -137 c27 -34 54 -52 89 -59 73 -14 123 -64 107 -108 -3 -7
-27 -17 -52 -21 -30 -4 -57 -16 -72 -31 -14 -14 -26 -24 -28 -22 -29 34 -91
207 -100 282 -10 76 4 92 25 28 9 -28 23 -59 31 -69z m-3927 -253 c67 -80 165
-201 217 -270 137 -179 149 -205 71 -166 -109 55 -197 151 -307 335 -41 69
-99 166 -130 215 -30 49 -55 94 -55 100 0 18 78 -64 204 -214z m4197 -100 c12
-7 19 -21 19 -39 0 -55 -112 -123 -177 -106 -49 12 -67 120 -25 145 23 13 158
13 183 0z m-91 -290 c51 -51 53 -82 8 -110 -40 -24 -61 -25 -82 -4 -28 27 -12
154 19 154 8 0 33 -18 55 -40z m-75 -210 c8 -16 15 -38 15 -50 0 -18 -3 -19
-20 -10 -35 19 -51 90 -21 90 6 0 17 -13 26 -30z m-16219 -862 c210 -204 490
-547 744 -908 245 -349 496 -653 778 -943 244 -250 334 -355 396 -459 l45 -77
-262 -149 c-144 -82 -370 -209 -502 -282 -541 -300 -604 -347 -1046 -771 -431
-415 -744 -666 -1080 -867 -342 -204 -857 -620 -1227 -988 l-244 -242 -23 51
c-13 29 -39 87 -59 130 -47 104 -85 226 -93 298 -6 63 6 78 28 37 l12 -22 17
22 c32 39 54 198 47 346 -6 127 -5 132 18 166 28 41 45 116 45 200 0 83 16
155 50 224 40 83 48 129 60 318 12 196 22 280 60 506 32 182 36 232 21 232
-13 0 -43 -98 -95 -306 -65 -268 -124 -394 -183 -394 -59 0 -79 37 -44 82 37
47 44 102 35 278 -13 241 -11 359 5 398 15 36 55 62 95 62 36 0 76 21 76 40 0
23 -20 40 -47 40 -13 0 -35 11 -48 25 -47 46 -23 145 35 145 27 0 41 32 34 79
-10 60 10 102 91 193 79 88 90 108 122 203 12 33 37 98 57 145 94 217 111 242
175 255 23 5 60 32 115 85 92 87 118 104 148 94 18 -5 20 -3 15 16 -10 38 19
88 95 167 115 119 228 190 393 248 77 27 140 98 212 240 34 66 75 160 92 210
29 86 34 93 115 171 69 67 91 97 121 161 29 62 52 92 110 148 68 65 74 74 80
120 9 77 24 125 40 125 20 0 45 40 45 70 0 64 112 220 158 220 15 0 71 -48
168 -142z m13096 8 c9 -27 41 -85 69 -130 77 -118 116 -194 130 -251 16 -66
50 -132 114 -225 66 -94 95 -152 130 -260 16 -49 43 -106 65 -135 20 -27 50
-75 67 -105 48 -87 142 -305 158 -366 15 -60 10 -114 -11 -114 -27 0 -121 137
-301 435 -304 505 -510 903 -543 1051 -14 61 -7 90 32 126 44 41 68 34 90 -26z
m-6408 -163 c313 -332 519 -522 786 -729 135 -104 302 -218 410 -280 47 -26
126 -75 175 -108 90 -60 117 -79 385 -283 187 -142 390 -283 668 -466 339
-223 405 -277 455 -371 20 -38 22 -58 25 -251 5 -248 -4 -307 -48 -330 -32
-17 -48 -51 -31 -68 9 -9 19 -8 42 6 17 9 35 17 40 17 62 0 -436 -515 -751
-777 -359 -298 -462 -385 -595 -502 -255 -224 -497 -400 -831 -602 -314 -189
-584 -380 -1006 -711 -86 -68 -170 -131 -186 -140 l-29 -18 -86 63 c-47 34
-144 107 -214 162 -207 163 -318 240 -688 480 -757 491 -951 636 -1280 955
-343 332 -502 478 -735 676 -321 272 -850 848 -850 925 0 30 68 76 250 169 96
49 267 144 380 211 113 67 341 200 508 296 381 218 594 347 797 482 178 117
393 231 800 421 374 175 500 250 810 485 250 189 615 424 660 425 5 0 68 -62
139 -137z m-7066 115 c-8 -22 -55 -49 -96 -55 -60 -8 -53 10 16 40 64 29 86
33 80 15z m16781 -472 c12 -11 21 -31 21 -48 0 -43 22 -78 78 -125 53 -45 67
-74 92 -197 7 -33 32 -98 56 -144 24 -46 44 -90 44 -98 0 -8 -11 -19 -25 -24
-38 -14 -31 -43 25 -105 77 -86 76 -106 -15 -215 -89 -107 -132 -229 -114
-325 10 -55 78 -197 91 -189 4 3 8 22 8 42 1 88 35 161 81 172 31 8 65 60 85
129 9 31 36 99 60 151 50 109 67 197 85 433 11 145 7 400 -7 460 -4 16 -13 31
-21 34 -20 8 -58 -15 -74 -43 -17 -33 -42 -30 -89 13 -81 72 -75 103 20 103
46 0 298 -43 306 -53 1 -1 9 -117 19 -257 28 -399 17 -513 -91 -942 -108 -432
-168 -573 -293 -698 -59 -58 -99 -87 -176 -127 -170 -88 -253 -99 -780 -109
-398 -7 -392 -8 -445 83 -19 34 -47 71 -62 83 -16 12 -28 30 -28 40 0 10 41
56 96 107 l96 88 -109 16 c-177 26 -216 45 -258 129 -66 131 -102 560 -46 560
5 0 12 -12 15 -26 10 -37 68 -60 117 -45 63 19 68 74 13 149 -16 21 -16 22 10
22 15 0 93 -11 173 -25 163 -28 190 -26 236 23 48 50 71 118 71 207 0 96 -18
161 -86 309 -77 169 -75 152 -19 181 77 38 121 85 121 128 0 80 113 123 395
151 22 2 99 3 172 2 113 -1 134 -4 152 -20z m-1711 -1376 c134 -12 175 -27
198 -71 46 -89 -36 -282 -131 -307 -16 -5 -33 -16 -39 -26 -15 -24 22 -53 79
-62 24 -3 49 -12 55 -19 18 -22 -6 -54 -57 -77 -40 -18 -74 -20 -316 -25 -278
-6 -889 9 -1116 27 -131 11 -200 33 -225 72 -24 39 1 43 282 43 259 1 309 6
326 34 10 16 -23 40 -79 56 -56 17 -103 12 -112 -11 -9 -23 -39 -16 -85 21
-63 51 -146 92 -233 115 -114 31 -135 44 -135 84 0 90 98 136 332 156 132 11
1108 3 1256 -10z m-12527 -787 c36 -38 81 -88 99 -113 194 -257 436 -495 715
-700 220 -162 451 -364 780 -680 706 -680 992 -913 1369 -1119 282 -154 415
-260 819 -651 l39 -37 -109 -98 c-124 -112 -358 -270 -638 -433 -477 -276
-696 -425 -1410 -961 -844 -633 -1456 -1126 -1889 -1523 -318 -292 -583 -496
-1017 -783 -173 -114 -388 -260 -479 -324 -181 -128 -246 -170 -302 -197 -34
-16 -39 -16 -62 -1 -14 9 -41 44 -61 78 -44 75 -90 136 -254 338 -236 288
-272 336 -385 506 -249 373 -463 792 -597 1170 -78 221 -161 429 -241 600 -85
181 -164 372 -173 418 -4 21 -11 27 -31 27 -14 0 -35 11 -50 27 -92 100 -247
401 -388 754 -124 313 -125 316 -66 437 78 161 196 316 405 531 299 307 497
461 1250 970 424 287 646 458 966 745 247 222 387 333 599 475 439 295 966
611 1020 611 18 0 44 -19 91 -67z m12146 -245 c33 -36 58 -94 122 -279 33 -96
80 -227 105 -292 25 -66 46 -130 46 -143 0 -24 -49 -87 -82 -105 -14 -7 -23
-7 -33 1 -35 29 -199 469 -230 618 -17 85 -20 175 -5 203 14 26 52 24 77 -3z
m-4726 -688 c5 -80 -16 -120 -64 -120 -31 0 -101 -61 -133 -115 -23 -40 -24
-50 -18 -117 5 -63 3 -83 -18 -144 -39 -111 -105 -204 -187 -264 -77 -56 -102
-85 -120 -142 -10 -31 -19 -39 -50 -48 -41 -11 -78 -47 -135 -132 -40 -61 -76
-92 -144 -127 -59 -30 -78 -66 -85 -161 -4 -44 -13 -93 -21 -109 -22 -42 -71
-79 -119 -91 -87 -21 -109 -39 -133 -109 -20 -56 -33 -74 -99 -136 -53 -50
-74 -76 -70 -87 8 -19 -40 -58 -105 -86 -65 -28 -104 -64 -134 -126 -32 -65
-86 -117 -115 -109 -14 3 -34 -8 -68 -40 -26 -24 -62 -52 -79 -60 -38 -20 -62
-67 -75 -150 -26 -163 -128 -247 -227 -187 -18 11 -37 31 -42 45 -5 14 -21 30
-35 35 -51 19 -88 -24 -100 -115 -9 -69 -33 -133 -55 -145 -51 -27 -131 0
-273 93 -153 100 -414 315 -439 360 -10 19 -5 26 36 63 25 23 97 68 159 100
409 208 1009 631 1431 1010 333 298 426 380 557 490 81 67 175 141 210 165 83
56 270 205 389 311 207 184 344 298 351 290 4 -4 8 -23 10 -42z m5119 -463
c10 -23 50 -170 89 -327 38 -157 85 -335 105 -396 46 -146 94 -368 151 -689
53 -295 92 -497 105 -530 21 -55 -51 -62 -108 -10 -79 71 -130 231 -207 650
-25 138 -79 401 -120 585 -97 439 -116 540 -118 631 -2 89 17 129 59 129 20 0
29 -9 44 -43z m-18015 -240 c-8 -54 -22 -110 -30 -125 -13 -26 -14 -23 -15 48
0 84 23 243 42 287 12 26 13 24 16 -42 2 -38 -4 -114 -13 -168z m629 -1496
c22 -25 18 -75 -7 -79 -27 -5 -47 17 -47 53 0 49 23 60 54 26z m9007 -439
c314 -214 884 -622 994 -713 125 -101 145 -132 145 -216 0 -73 -20 -120 -79
-186 -98 -111 -255 -376 -249 -421 2 -17 12 -22 51 -26 73 -9 80 -21 85 -153
7 -178 -14 -321 -67 -468 -11 -30 -23 -87 -26 -125 -15 -173 -15 -176 -47
-206 -30 -28 -30 -29 -15 -66 25 -64 27 -116 18 -562 -9 -509 -6 -492 -98
-537 l-58 -28 0 -105 0 -105 -37 2 c-72 4 -222 98 -315 196 -29 31 -53 61 -53
67 0 16 -80 50 -120 50 -49 0 -97 15 -139 44 -47 33 -126 53 -286 73 -167 22
-860 25 -1030 5 -627 -73 -1097 -241 -1610 -577 -439 -287 -700 -600 -894
-1074 -97 -236 -165 -470 -271 -931 -76 -330 -79 -340 -100 -340 -61 0 -298
242 -608 620 -250 305 -538 630 -793 896 -297 310 -459 494 -459 522 0 47 537
454 1073 812 259 173 388 272 532 409 268 256 631 554 1190 976 376 284 625
488 902 741 333 304 511 431 916 656 472 261 1020 625 1204 800 39 37 78 68
86 68 7 0 79 -44 158 -98z m8795 -164 c80 -60 104 -92 129 -171 59 -186 115
-556 117 -772 1 -152 -21 -280 -82 -467 -67 -204 -192 -413 -220 -368 -17 27
-20 181 -23 960 -2 808 -1 840 36 840 8 0 27 -10 43 -22z m-17585 -19 c12 -17
84 -153 159 -303 75 -149 172 -334 215 -411 43 -77 103 -192 134 -255 48 -100
56 -123 57 -180 1 -36 2 -70 3 -77 0 -6 19 -33 41 -58 64 -75 150 -265 165
-370 6 -33 14 -50 35 -65 16 -11 52 -66 86 -132 32 -62 104 -180 160 -263 55
-82 148 -220 205 -305 57 -85 119 -184 138 -220 55 -106 214 -325 500 -690
245 -313 391 -537 431 -660 l22 -69 -20 -33 c-30 -47 -271 -281 -457 -443
-196 -171 -490 -463 -608 -605 -98 -117 -302 -413 -392 -565 -79 -135 -151
-230 -269 -353 -136 -141 -205 -192 -259 -191 -37 0 -40 2 -23 12 91 57 125
102 97 130 -6 6 -36 14 -67 18 -61 8 -90 28 -81 53 5 13 11 14 32 4 14 -6 28
-8 32 -4 4 4 8 40 9 79 1 40 9 88 18 108 25 60 39 289 33 569 -5 280 -14 333
-67 400 -16 20 -36 54 -45 75 -40 92 -55 114 -159 223 -132 140 -174 203 -214
324 -32 95 -72 276 -72 322 0 16 17 44 45 76 42 48 45 54 45 109 0 58 -116
737 -144 849 -44 169 -143 418 -171 428 -9 4 -43 -6 -77 -21 -77 -35 -110 -31
-243 30 -55 25 -115 48 -133 51 -19 4 -36 13 -39 21 -11 28 122 191 160 194 6
1 22 0 35 -1 29 -2 105 71 100 97 -2 10 -21 27 -43 39 -22 11 -41 28 -43 36
-8 43 132 148 199 148 60 0 154 124 129 171 -13 22 -13 22 77 37 81 14 129 37
180 88 41 41 67 102 56 130 -9 23 -25 17 -83 -32 -74 -61 -140 -94 -191 -94
l-41 0 30 28 c19 18 33 43 37 68 15 84 82 164 154 184 46 12 56 22 69 72 24
88 -24 158 -125 178 -72 15 -142 58 -178 110 -48 69 -12 66 75 -5 30 -25 60
-45 66 -45 18 0 24 26 24 108 0 89 14 150 37 159 20 8 43 -22 43 -54 0 -37 28
-83 50 -83 25 0 35 48 34 167 -1 113 -14 138 -74 146 -59 8 -90 31 -90 67 0
39 -33 73 -63 64 -69 -21 -132 -81 -186 -179 -39 -70 -78 -115 -100 -115 -23
0 -51 31 -51 57 0 60 111 229 243 370 47 50 97 110 111 132 30 46 62 66 124
74 61 7 75 22 67 69 -9 49 14 52 46 7z m10195 -34 c14 -21 15 -31 6 -50 -14
-30 -48 -33 -57 -5 -9 29 4 80 21 80 7 0 21 -11 30 -25z m-399 -47 c-3 -18 -8
-41 -12 -50 -11 -28 24 -38 95 -28 70 10 137 1 174 -24 58 -38 109 -185 74
-214 -12 -9 -19 -9 -34 2 -15 12 -19 27 -19 73 l0 58 -80 6 c-190 13 -300 99
-234 183 28 36 43 33 36 -6z m492 -1120 c32 -51 3 -307 -41 -363 -19 -24 -22
-25 -37 -10 -13 13 -16 43 -16 189 0 188 5 206 54 206 16 0 31 -8 40 -22z
m7625 -421 c9 -38 64 -428 90 -647 52 -424 57 -617 21 -860 -28 -193 -45 -368
-55 -577 -15 -315 -58 -572 -165 -988 -58 -223 -89 -327 -263 -880 -119 -379
-214 -707 -232 -796 -6 -31 -17 -65 -25 -75 -13 -18 -14 -18 -34 0 -27 24
-143 198 -182 272 -37 71 -37 105 1 188 54 118 104 335 135 586 21 169 34 230
55 265 23 38 27 65 40 255 19 268 44 406 95 520 90 199 175 695 178 1041 2
168 4 189 21 208 23 26 18 66 -18 145 -29 64 -33 109 -12 152 21 41 36 144 36
244 0 111 16 236 41 329 16 61 146 393 231 594 23 52 33 58 42 24z m-18244
-2317 c0 -21 -4 -42 -10 -45 -6 -4 -10 13 -10 45 0 32 4 49 10 45 6 -3 10 -24
10 -45z m13664 -949 c9 -13 -17 -31 -199 -141 -200 -120 -256 -161 -337 -244
-150 -152 -426 -562 -504 -748 -14 -33 -29 -93 -33 -133 -5 -39 -15 -85 -24
-101 -33 -62 -49 -101 -62 -158 -8 -32 -17 -61 -21 -65 -3 -3 -4 73 -1 169 4
152 9 191 35 293 118 455 438 884 775 1037 142 64 355 117 371 91z m861 -41
c454 -46 522 -78 846 -400 234 -232 310 -344 424 -618 104 -254 129 -375 129
-642 0 -211 -16 -339 -69 -545 -58 -226 -151 -439 -272 -623 -69 -104 -235
-274 -314 -320 -62 -36 -395 -176 -474 -199 -37 -11 -82 -13 -170 -9 -477 19
-1280 240 -1452 399 -117 107 -340 507 -423 756 -158 475 -71 1039 231 1496
97 147 292 344 434 437 235 155 497 260 716 287 86 11 113 10 394 -19z m-4126
-744 c26 -28 25 -69 -2 -74 -30 -6 -67 25 -67 57 0 48 32 56 69 17z m-9984
-117 c51 -65 98 -149 89 -158 -4 -3 -9 0 -12 8 -8 24 -41 51 -56 45 -20 -8
-53 44 -92 144 l-33 87 30 -35 c17 -19 50 -60 74 -91z m-1088 -255 c31 -57 57
-143 46 -154 -16 -16 -79 105 -99 194 -11 48 17 27 53 -40z m1140 -36 c31 -34
63 -90 63 -111 0 -53 -83 35 -96 101 -8 38 4 41 33 10z m16849 -492 c102 -48
191 -154 182 -219 -3 -17 -17 -71 -31 -118 -14 -47 -30 -121 -36 -163 -13 -91
-57 -213 -153 -419 -120 -259 -196 -452 -285 -722 -142 -431 -225 -634 -327
-805 -32 -52 -107 -196 -168 -320 -126 -258 -178 -349 -229 -402 -94 -99 -144
0 -103 200 35 169 100 315 194 432 34 41 63 86 66 100 11 52 70 202 152 385
95 213 139 335 182 508 36 139 65 220 86 238 12 9 14 35 13 128 -3 123 3 154
31 186 23 25 40 87 40 145 0 74 25 169 73 281 25 58 54 137 66 176 21 71 41
98 76 105 29 5 44 63 47 180 3 137 21 152 124 104z m-17588 -856 c15 -31 22
-62 22 -102 0 -63 -11 -80 -28 -43 -13 27 -62 194 -62 208 0 21 47 -23 68 -63z
m-192 -1573 c92 -47 131 -110 174 -287 17 -66 37 -138 46 -160 9 -22 13 -47
10 -55 -16 -42 -272 -107 -431 -109 -88 -1 -106 2 -150 24 -65 32 -100 90
-115 185 -30 192 60 359 229 422 58 21 175 12 237 -20z m17514 -499 c77 -38
123 -112 128 -210 6 -92 -4 -132 -40 -173 -46 -53 -113 -69 -263 -62 -258 12
-348 60 -312 166 36 103 153 252 229 290 63 32 181 27 258 -11z m-16992 -104
c29 -20 52 -66 52 -104 0 -36 -13 -38 -83 -14 -40 14 -47 20 -53 50 -4 24 -1
42 10 59 19 29 42 32 74 9z m-354 -246 c46 -20 46 -68 0 -68 -53 0 -82 38 -52
68 15 15 21 15 52 0z m237 -251 c-11 -23 -43 -69 -70 -102 -100 -122 -145
-134 -225 -64 -25 22 -46 46 -46 53 0 14 91 65 240 132 127 58 137 56 101 -19z
m-605 -134 c18 -60 60 -116 172 -227 l124 -123 -84 -57 c-47 -31 -99 -59 -115
-62 -66 -13 -168 73 -194 164 -17 59 -18 185 -1 234 26 74 84 116 98 71z
m15990 -325 c67 -27 85 -51 110 -148 23 -90 15 -242 -16 -325 -26 -67 -77
-125 -110 -125 -24 0 -22 16 12 84 34 66 68 165 68 195 0 83 -143 275 -243
326 l-52 27 87 -5 c56 -4 107 -14 144 -29z m1239 -99 c259 -53 373 -82 406
-105 93 -64 181 -260 162 -364 -12 -72 -65 -149 -128 -185 -51 -31 -84 -31
-119 -4 -15 12 -29 20 -31 18 -2 -2 1 -23 7 -45 17 -63 7 -77 -50 -72 -122 12
-264 184 -312 377 -24 96 -35 122 -72 178 -51 76 -138 105 -206 69 -31 -16
-110 -97 -136 -139 -31 -50 -72 -68 -151 -65 -63 3 -70 5 -73 25 -4 25 11 50
81 143 56 74 87 103 137 129 101 52 330 71 485 40z m-1845 -69 c0 -10 -39 -33
-77 -44 -31 -10 -31 17 -1 38 25 18 78 22 78 6z m1228 -445 c115 -31 148 -47
167 -85 38 -74 4 -182 -86 -272 -49 -49 -136 -98 -174 -98 -33 0 -85 38 -100
73 -7 17 -20 72 -29 122 -9 56 -27 112 -46 149 -16 32 -30 69 -30 82 0 58 138
72 298 29z m-653 -53 c-83 -70 -139 -105 -149 -95 -13 14 -5 64 14 83 16 16
33 20 82 20 34 0 58 -4 53 -8z m-554 -93 c11 -5 19 -18 17 -27 -5 -27 -109
-22 -178 9 l-55 24 40 7 c51 8 150 1 176 -13z m349 -9 c0 -31 -41 -41 -159
-38 l-106 3 100 27 c128 33 165 35 165 8z m1244 -173 c0 -71 -4 -91 -31 -149
-57 -121 -174 -210 -279 -212 -54 0 -104 23 -104 48 0 8 34 31 75 50 121 57
175 117 290 319 36 65 49 51 49 -56z"/>
<path d="M11432 35948 c-20 -20 -15 -58 7 -58 29 0 65 34 58 53 -7 20 -48 22
-65 5z"/>
<path d="M11664 34264 c10 -130 42 -186 99 -168 56 17 73 66 41 114 -24 35
-127 140 -138 140 -5 0 -6 -35 -2 -86z"/>
<path d="M11647 33865 c-36 -36 -25 -168 19 -216 19 -22 54 -25 72 -7 25 25 1
153 -40 211 -22 31 -31 33 -51 12z"/>
<path d="M11642 33448 c-27 -35 -20 -98 12 -98 19 0 56 43 56 66 0 38 -45 59
-68 32z"/>
<path d="M12100 33405 c-19 -23 -18 -76 3 -89 15 -9 22 -6 43 17 13 15 24 36
24 46 0 37 -46 55 -70 26z"/>
<path d="M12117 31522 c-30 -33 -16 -82 25 -82 23 0 50 43 46 72 -4 30 -47 36
-71 10z"/>
<path d="M11235 28087 c-32 -78 -26 -127 15 -127 37 0 49 52 29 123 -12 46
-26 47 -44 4z"/>
<path d="M7156 33456 c-16 -22 -42 -40 -72 -50 -55 -19 -84 -42 -84 -67 0 -31
17 -31 80 1 73 37 104 36 108 -1 2 -18 -10 -43 -37 -80 -23 -29 -41 -57 -41
-61 0 -15 43 -46 87 -63 62 -24 76 -14 86 61 17 125 -15 249 -71 278 -30 15
-30 15 -56 -18z"/>
<path d="M7280 33015 c-28 -34 21 -148 51 -118 17 17 24 100 9 118 -16 19 -44
19 -60 0z"/>
<path d="M7017 32791 c-59 -63 -61 -81 -8 -81 52 0 85 38 75 84 -3 17 -9 35
-13 39 -4 4 -29 -15 -54 -42z"/>
<path d="M7132 32817 c-32 -38 35 -87 118 -87 47 0 120 21 120 35 0 14 -119
58 -170 62 -43 4 -59 2 -68 -10z"/>
<path d="M7491 32644 c-25 -32 -27 -50 -5 -58 29 -11 55 12 52 46 -4 41 -21
45 -47 12z"/>
<path d="M7366 31938 c-21 -30 -20 -45 5 -59 28 -14 69 3 69 29 0 20 -29 52
-48 52 -6 0 -18 -10 -26 -22z"/>
<path d="M7656 31259 c-59 -69 -9 -115 80 -73 44 21 52 49 23 80 -32 34 -71
31 -103 -7z"/>
<path d="M7766 30911 c-11 -16 58 -61 116 -75 71 -17 108 43 43 70 -37 15
-150 19 -159 5z"/>
<path d="M7855 30475 c-14 -13 -25 -33 -25 -44 0 -54 27 -64 96 -35 102 42 99
104 -6 104 -30 0 -47 -6 -65 -25z"/>
<path d="M8722 28198 c-34 -34 6 -91 49 -68 31 17 23 74 -11 78 -14 2 -31 -3
-38 -10z"/>
<path d="M8850 28030 c-41 -41 -7 -77 40 -42 31 24 32 42 2 53 -17 6 -27 4
-42 -11z"/>
<path d="M12559 23883 c-27 -82 3 -649 47 -898 15 -83 77 -245 94 -245 7 0 19
35 45 135 26 100 37 320 25 505 -16 260 -50 391 -129 498 -39 53 -65 55 -82 5z"/>
<path d="M7759 23615 c-15 -8 -29 -22 -33 -31 -16 -42 57 -61 95 -23 18 18 19
23 6 42 -18 27 -35 30 -68 12z"/>
<path d="M8566 21817 c-48 -48 -80 -313 -80 -662 -1 -282 7 -327 55 -333 87
-10 172 187 199 460 21 217 -31 478 -108 538 -32 25 -38 25 -66 -3z"/>
<path d="M4405 19256 c-60 -79 -121 -309 -145 -549 -21 -205 -3 -477 31 -477
15 0 39 -65 39 -104 0 -49 28 -80 72 -78 116 4 148 74 169 362 14 198 7 739
-10 795 -19 59 -47 85 -92 85 -31 0 -42 -6 -64 -34z"/>
<path d="M3928 19013 c-36 -89 21 -259 62 -184 13 26 13 140 -1 180 -14 40
-45 42 -61 4z"/>
<path d="M11889 18639 c-6 -12 -13 -47 -15 -78 -2 -31 -11 -145 -20 -254 -12
-155 -13 -221 -4 -310 18 -189 56 -326 107 -388 35 -41 61 -35 93 21 24 44 25
52 29 265 5 339 -21 559 -79 674 -42 85 -88 113 -111 70z"/>
<path d="M21846 20434 c-23 -22 -20 -51 9 -79 29 -30 58 -32 85 -5 19 19 19
22 5 50 -25 48 -70 64 -99 34z"/>
<path d="M20936 19158 c-55 -31 54 -126 127 -110 26 5 21 45 -12 76 -32 31
-90 48 -115 34z"/>
<path d="M22209 18876 c-35 -13 -105 -41 -155 -64 -152 -68 -315 -112 -464
-126 l-55 -5 85 29 c46 17 91 37 99 45 14 13 13 17 -1 31 -47 47 -222 -8 -257
-80 -13 -27 -15 -28 -80 -24 -53 2 -66 0 -66 -12 0 -83 524 -21 849 100 65 25
126 73 126 100 0 29 -12 30 -81 6z"/>
<path d="M19743 18739 c-19 -5 -33 -16 -33 -25 0 -24 50 -37 145 -37 95 0 145
13 145 37 0 9 -16 19 -37 25 -46 13 -176 13 -220 0z"/>
<path d="M6392 16598 c-95 -13 -317 -72 -428 -113 -125 -46 -198 -86 -299
-162 -44 -33 -145 -101 -225 -151 -294 -184 -363 -269 -593 -732 -140 -280
-185 -386 -220 -509 -19 -70 -21 -101 -21 -411 -1 -438 16 -551 126 -809 22
-51 46 -127 54 -167 16 -85 27 -109 97 -213 98 -147 302 -367 412 -446 155
-111 695 -340 970 -411 110 -29 111 -29 430 -29 401 0 446 6 806 113 230 68
300 67 154 -3 -176 -83 -577 -198 -823 -235 -181 -27 -242 -40 -242 -50 0 -12
19 -17 165 -41 169 -27 436 -23 585 9 224 49 465 137 735 270 318 157 522 325
750 617 93 120 118 161 110 183 -3 11 -26 37 -50 57 -25 20 -45 44 -45 54 0
10 18 32 40 50 66 53 75 73 75 175 0 87 1 91 23 94 83 12 150 467 123 837 -52
695 -208 976 -785 1405 -281 209 -480 324 -731 424 -251 99 -528 170 -767 195
-114 13 -336 12 -426 -1z m345 -129 c116 -16 369 -83 470 -124 334 -137 657
-413 931 -795 120 -168 197 -347 257 -600 46 -194 53 -333 19 -387 -26 -42
-17 -68 41 -118 50 -43 55 -50 55 -88 0 -50 -55 -262 -105 -407 -119 -342
-312 -615 -598 -848 -394 -322 -870 -458 -1470 -423 -258 16 -351 38 -577 140
-125 57 -326 161 -378 196 -18 12 -45 42 -62 66 -16 24 -68 91 -116 149 -112
136 -170 222 -231 345 -94 188 -152 374 -190 610 -25 155 -24 501 1 640 63
349 183 693 306 876 64 96 212 235 316 298 130 78 276 176 330 221 26 22 74
53 106 70 131 70 455 156 673 179 116 12 135 12 222 0z m2009 -3082 c-8 -41
-89 -160 -140 -205 -44 -38 -71 -43 -60 -9 21 68 140 258 173 277 22 12 35
-19 27 -63z m-299 -410 c-30 -55 -170 -133 -307 -172 l-25 -7 27 24 c91 80
237 193 262 204 26 11 33 10 46 -2 13 -12 12 -18 -3 -47z m-369 -204 c-3 -14
-148 -103 -148 -90 0 8 132 107 142 107 5 0 8 -8 6 -17z"/>
<path d="M6692 16314 c-28 -14 -70 -47 -93 -72 -44 -50 -89 -134 -89 -167 0
-63 85 -121 241 -166 68 -20 81 -21 109 -9 43 18 158 132 166 165 8 33 -18
105 -63 172 -25 37 -49 59 -86 78 -66 32 -119 32 -185 -1z m93 -99 c34 -33 32
-67 -6 -99 -35 -30 -65 -33 -91 -9 -20 18 -25 82 -8 114 16 29 74 26 105 -6z"/>
<path d="M6445 15830 c-165 -15 -286 -52 -421 -130 -173 -100 -310 -214 -405
-339 -93 -122 -210 -391 -253 -581 -39 -169 -49 -381 -27 -521 41 -252 170
-500 350 -672 94 -90 172 -141 326 -217 197 -97 256 -105 531 -70 211 27 336
53 475 100 211 70 337 148 478 295 148 155 240 314 291 500 28 102 38 344 20
479 -16 123 -80 372 -123 477 -87 217 -230 397 -397 501 -80 50 -94 54 -329
114 -183 46 -361 77 -421 72 -8 0 -51 -4 -95 -8z m519 -240 c122 -27 251 -67
307 -95 193 -98 348 -548 349 -1010 0 -333 -59 -503 -237 -681 -161 -161 -421
-294 -683 -350 -124 -26 -285 -25 -375 3 -111 35 -138 59 -196 175 -28 56 -75
143 -103 192 -102 176 -125 265 -146 552 -13 171 -5 308 27 449 19 85 27 104
60 131 18 15 28 37 34 72 11 69 32 98 112 149 87 55 148 116 216 215 78 114
134 150 293 192 116 31 221 33 342 6z"/>
<path d="M5096 15355 c-70 -20 -98 -51 -104 -118 -8 -105 27 -203 90 -250 55
-41 208 -12 239 45 18 33 16 134 -5 195 -12 36 -31 65 -66 97 -54 51 -70 54
-154 31z m104 -90 c33 -17 45 -45 35 -83 -9 -37 -54 -82 -81 -82 -35 0 -64 45
-64 98 0 75 43 101 110 67z"/>
<path d="M7880 15308 c-83 -42 -112 -148 -65 -238 55 -107 196 -166 306 -128
135 46 182 227 85 324 -64 64 -238 86 -326 42z m180 -78 c13 -13 20 -33 20
-60 0 -51 -27 -80 -74 -80 -61 0 -95 68 -60 118 30 43 83 53 114 22z"/>
<path d="M7576 13580 c-65 -12 -95 -35 -126 -95 -89 -179 27 -358 232 -358
129 0 225 74 236 181 6 62 -13 152 -41 194 -44 65 -177 100 -301 78z m150
-135 c7 -18 -51 -111 -82 -132 -36 -23 -54 -10 -54 37 0 23 5 50 11 61 21 39
114 64 125 34z"/>
<path d="M5510 13438 c-68 -35 -85 -73 -85 -191 0 -84 3 -101 18 -112 39 -28
47 -10 40 85 l-6 89 31 30 c21 21 40 31 61 31 44 0 54 -26 46 -120 -9 -103 1
-124 57 -117 51 7 112 54 116 91 4 33 -25 122 -50 157 -27 36 -87 68 -139 75
-34 4 -54 0 -89 -18z"/>
<path d="M14311 16116 c-49 -50 -50 -76 -2 -76 38 0 73 42 69 84 -2 16 -8 31
-13 33 -6 2 -30 -17 -54 -41z"/>
<path d="M11432 13119 c-53 -56 -82 -302 -64 -552 17 -242 71 -544 104 -584
18 -22 56 -14 92 17 55 49 61 79 60 311 -5 561 -89 919 -192 808z"/>
<path d="M12840 12110 c0 -37 4 -50 13 -47 7 2 12 21 12 47 0 26 -5 45 -12 48
-9 2 -13 -11 -13 -48z"/>
<path d="M3130 12744 c-6 -14 -10 -40 -10 -59 0 -23 -10 -46 -35 -75 -41 -49
-52 -82 -39 -119 7 -20 16 -26 39 -26 25 0 31 6 45 45 9 25 40 74 68 110 60
74 64 100 23 129 -41 30 -79 28 -91 -5z"/>
<path d="M16435 9225 c-90 -37 -137 -74 -164 -128 -29 -58 -23 -103 20 -152
40 -45 108 -70 190 -69 155 1 248 87 225 208 -8 42 -87 133 -133 152 -45 19
-69 17 -138 -11z m97 -72 c38 -36 36 -64 -7 -102 -46 -40 -78 -48 -110 -27
-36 24 -34 71 6 119 37 45 71 48 111 10z"/>
<path d="M18262 9110 c-38 -23 -109 -128 -118 -174 -8 -47 21 -110 72 -155 75
-66 201 -88 280 -50 46 23 40 37 -29 69 -86 39 -127 74 -127 109 0 35 37 70
82 78 31 4 41 0 77 -32 l41 -37 0 26 c0 43 -114 141 -201 171 -50 18 -38 19
-77 -5z"/>
<path d="M17070 8980 c-47 -5 -105 -14 -130 -20 -64 -16 -164 -71 -245 -135
-38 -30 -88 -68 -110 -84 -22 -16 -50 -39 -61 -51 -55 -54 -167 -529 -205
-870 -11 -96 -8 -206 7 -272 8 -35 -10 -37 -66 -8 -153 78 -270 48 -307 -79
-38 -133 50 -261 181 -261 96 0 227 76 241 140 6 27 9 29 28 19 12 -6 83 -71
157 -145 190 -187 249 -219 525 -278 172 -36 235 -46 349 -55 143 -12 217 -1
260 37 23 20 66 40 123 57 236 71 487 259 576 430 31 59 47 80 62 80 17 0 21
-8 25 -66 6 -74 17 -93 64 -109 49 -16 167 -17 194 -1 54 29 84 169 51 236
-41 84 -190 110 -262 46 -17 -14 -20 -14 -32 3 -17 23 -32 116 -45 281 -23
289 -78 514 -163 665 -28 50 -73 107 -137 171 -152 154 -300 231 -493 258
-106 15 -483 22 -587 11z m385 -115 c118 -25 227 -86 321 -179 80 -81 127
-147 139 -198 6 -25 4 -28 -16 -28 -13 0 -49 20 -80 44 -65 51 -94 68 -103 59
-13 -14 -5 -40 24 -75 47 -57 58 -95 80 -263 24 -187 55 -334 74 -353 12 -12
18 -12 44 3 42 25 62 14 62 -32 0 -46 -30 -114 -69 -158 -35 -40 -48 -78 -60
-171 -5 -39 -16 -85 -26 -104 -26 -50 -100 -117 -215 -193 -267 -176 -342
-184 -587 -62 -147 73 -219 119 -318 202 -149 126 -243 268 -252 385 -14 172
69 552 163 746 91 189 274 330 489 377 81 18 244 18 330 0z m823 -860 c22 -38
23 -47 18 -175 -5 -151 -26 -287 -62 -401 -20 -64 -32 -84 -72 -121 -88 -82
-228 -173 -257 -166 -18 4 11 88 80 233 60 126 117 297 149 445 44 198 58 232
95 228 18 -2 33 -15 49 -43z m391 -459 c27 -28 39 -90 21 -111 -20 -24 -77
-19 -105 10 -29 28 -34 85 -9 109 23 23 67 20 93 -8z m-2503 -90 c36 -36 45
-81 22 -104 -7 -7 -36 -12 -66 -12 -46 0 -58 4 -83 29 -34 35 -36 59 -8 95 32
40 90 37 135 -8z"/>
<path d="M17550 6783 c0 -5 14 -28 30 -52 34 -50 40 -112 15 -148 -21 -30 -78
-48 -106 -33 -20 11 -21 16 -13 69 12 85 10 131 -7 142 -61 39 -179 -49 -179
-134 0 -33 24 -94 48 -120 60 -67 195 -83 294 -34 63 31 88 62 95 118 12 86
-69 199 -142 199 -19 0 -35 -3 -35 -7z"/>
<path d="M17512 34658 c-17 -17 -15 -44 4 -62 22 -23 41 -20 59 8 13 19 14 29
5 45 -12 23 -49 28 -68 9z"/>
<path d="M17134 32753 c-13 -30 -14 -44 -5 -74 16 -53 35 -65 60 -40 38 38 23
151 -19 151 -15 0 -26 -11 -36 -37z"/>
<path d="M17704 32565 c-28 -28 -29 -58 -1 -63 26 -5 47 16 47 49 0 39 -16 44
-46 14z"/>
<path d="M16456 28899 c-22 -17 -26 -27 -21 -48 7 -30 40 -61 65 -61 26 0 42
25 42 65 0 64 -37 83 -86 44z"/>
<path d="M16559 27981 c-20 -16 -22 -23 -13 -38 26 -42 149 -16 142 30 -3 19
-10 22 -54 25 -39 2 -56 -2 -75 -17z"/>
<path d="M5000 26819 c0 -35 268 -367 425 -525 73 -74 222 -177 410 -285 124
-71 254 -131 268 -122 16 10 -55 72 -183 161 -261 181 -450 350 -492 438 -21
44 -28 50 -66 58 -30 6 -50 18 -65 39 -39 54 -139 148 -210 198 -72 50 -87 57
-87 38z"/>
<path d="M12073 10821 c-63 -29 -85 -71 -80 -147 6 -76 44 -151 105 -204 59
-52 91 -58 145 -27 55 32 154 137 163 172 16 63 -41 157 -120 197 -59 30 -159
35 -213 9z m118 -91 c39 -22 63 -102 37 -128 -19 -19 -73 -14 -102 9 -19 15
-26 29 -26 56 0 60 42 89 91 63z"/>
<path d="M9515 10659 c-104 -38 -168 -201 -120 -303 19 -40 52 -67 104 -85
119 -40 298 209 236 328 -25 50 -153 84 -220 60z m45 -99 c23 -23 27 -87 7
-115 -31 -42 -97 14 -97 83 0 52 51 71 90 32z"/>
<path d="M10852 10640 c-212 -30 -803 -204 -964 -286 -339 -170 -697 -584
-906 -1050 -92 -204 -140 -375 -172 -599 -12 -82 -36 -242 -55 -355 -88 -537
-122 -1083 -112 -1830 10 -728 110 -2255 182 -2765 31 -217 52 -488 65 -830
12 -307 27 -512 41 -569 6 -21 8 -44 5 -52 -14 -38 -169 -84 -284 -84 -82 0
-199 18 -235 37 -40 20 -53 58 -71 211 -27 220 -36 231 -203 243 -158 11 -214
32 -403 152 -96 61 -208 117 -234 117 -23 0 -46 -41 -46 -83 0 -74 39 -124
161 -210 125 -87 157 -141 169 -281 11 -139 25 -147 312 -175 104 -10 178 -31
178 -49 0 -5 -28 -42 -61 -82 l-62 -73 64 9 c97 14 2465 8 2629 -6 87 -7 388
-11 840 -11 553 0 735 -3 845 -14 105 -11 280 -15 695 -16 305 0 616 -4 690
-9 273 -19 360 -23 360 -16 0 3 -22 50 -49 104 -120 240 -107 271 280 681 182
193 231 252 265 326 85 181 -80 169 -351 -25 -138 -99 -228 -151 -288 -167
-84 -22 -98 -62 -104 -298 -2 -99 -6 -190 -9 -202 -6 -29 -91 -73 -189 -99
-53 -14 -107 -18 -220 -19 -199 0 -209 6 -241 142 -22 97 -29 597 -14 1015 52
1475 23 2360 -131 3918 -116 1176 -182 1486 -450 2107 -127 295 -203 415 -374
592 -205 212 -415 352 -684 456 -117 45 -366 112 -484 130 -125 18 -309 26
-385 15z m244 -245 c363 -63 651 -165 858 -303 152 -102 326 -295 449 -497
114 -189 307 -605 365 -785 57 -181 72 -277 152 -1010 167 -1529 185 -1759
203 -2660 15 -763 14 -1444 -2 -1890 -19 -528 -35 -698 -71 -743 -29 -36 -390
-37 -3055 -12 -610 6 -764 10 -782 21 -31 20 -48 83 -93 344 -53 318 -76 562
-100 1080 -14 303 -37 660 -55 855 -104 1128 -92 2404 30 3470 50 440 140 769
298 1095 188 390 457 699 727 835 149 75 523 170 815 208 71 9 179 6 261 -8z
m-856 -8080 c14 -17 5 -51 -16 -59 -22 -8 -54 11 -54 32 0 38 46 56 70 27z"/>
<path d="M10710 9969 c-105 -11 -310 -61 -410 -101 -407 -161 -673 -473 -850
-993 -167 -494 -262 -1178 -311 -2255 -13 -286 -7 -1057 10 -1315 34 -507 94
-1179 147 -1655 59 -536 104 -699 207 -749 73 -36 345 -44 1157 -37 888 7
1619 29 1935 57 168 14 162 12 174 72 16 80 29 278 46 682 15 356 20 462 46
920 19 331 2 659 -91 1760 -143 1702 -183 2018 -305 2393 -70 217 -202 499
-289 618 -305 419 -895 661 -1466 603z m415 -210 c245 -35 474 -96 611 -160
73 -35 207 -156 320 -291 76 -91 88 -112 142 -248 17 -41 49 -120 72 -175 68
-165 127 -417 164 -705 26 -195 44 -408 76 -850 35 -490 51 -685 85 -1040 87
-902 100 -1187 77 -1625 -6 -132 -19 -449 -27 -705 -14 -451 -29 -738 -43
-837 l-7 -48 -75 -7 c-212 -19 -1453 -48 -2045 -48 -530 0 -778 21 -877 71
-45 23 -74 66 -83 123 -4 23 -22 127 -40 231 -56 312 -72 462 -120 1115 -14
190 -36 493 -50 673 -60 805 -54 1096 39 1792 23 173 44 381 76 775 63 767 79
834 276 1230 115 230 174 324 264 422 133 145 379 268 625 312 123 22 373 20
540 -5z"/>
<path d="M10704 7716 c-61 -27 -137 -149 -165 -266 -17 -72 -15 -177 5 -223 8
-20 19 -61 25 -91 17 -95 -10 -150 -120 -238 -102 -81 -326 -227 -335 -218
-18 16 -249 140 -261 140 -27 0 -10 -28 72 -124 94 -108 105 -125 105 -155 0
-29 -66 -45 -157 -37 -155 14 -243 74 -243 166 0 53 30 101 108 178 l75 72
-57 0 c-72 0 -115 -18 -153 -65 -33 -39 -63 -129 -63 -186 0 -129 126 -262
295 -310 122 -35 160 -53 160 -74 0 -35 -54 -30 -202 21 -92 31 -156 47 -193
48 l-55 1 1 -38 c1 -20 9 -46 18 -56 30 -33 110 -60 237 -82 138 -23 172 -37
199 -81 40 -66 50 -232 16 -282 -7 -12 -44 -37 -82 -56 -83 -41 -195 -150
-238 -229 -35 -65 -37 -129 -6 -199 50 -112 136 -150 233 -101 78 40 131 82
248 197 l117 113 160 -97 c89 -54 170 -105 180 -113 20 -16 20 -17 -9 -221
-33 -236 -35 -286 -13 -338 30 -74 136 -152 206 -152 37 0 76 -19 83 -41 8
-24 -2 -39 -25 -39 -11 0 -25 -10 -31 -22 -10 -19 -8 -24 12 -41 21 -17 35
-19 114 -14 106 6 154 19 193 52 57 48 65 124 48 475 -10 213 -7 226 52 235
20 3 72 15 114 26 74 20 79 21 104 5 14 -10 46 -49 71 -88 83 -129 152 -178
257 -186 68 -5 159 19 202 53 23 18 27 29 26 64 -2 50 23 104 68 146 92 85 92
226 3 356 -17 24 -76 90 -131 147 -120 123 -142 162 -142 255 0 117 33 168
145 224 94 48 193 113 230 152 29 31 30 36 29 119 -1 129 -58 307 -118 367
-51 51 -169 24 -288 -66 -38 -28 -84 -70 -103 -94 -20 -24 -51 -50 -70 -59
-32 -16 -37 -16 -67 0 -18 9 -60 40 -93 69 -93 81 -158 124 -278 185 -63 32
-119 68 -131 83 -17 24 -21 48 -26 200 -7 180 -15 217 -63 299 -40 68 -159
201 -202 225 -46 26 -50 27 -91 9z m62 -171 c27 -29 33 -45 39 -98 9 -80 -9
-230 -38 -316 -19 -58 -25 -66 -49 -69 -23 -3 -30 3 -46 35 -11 21 -25 68 -31
104 -14 84 -14 252 0 304 23 83 70 98 125 40z m1256 -755 c51 -55 51 -84 -4
-137 -84 -80 -255 -173 -317 -173 -48 0 -56 -13 123 219 74 95 112 130 145
131 8 0 31 -18 53 -40z m-978 4 c93 -23 349 -151 409 -204 26 -23 57 -60 68
-81 59 -117 45 -527 -24 -664 -52 -104 -88 -132 -322 -258 -189 -100 -239
-117 -354 -117 -123 0 -216 29 -367 112 -222 122 -317 306 -317 613 0 147 17
215 77 309 84 132 304 264 501 302 88 17 237 12 329 -12z m926 -444 c-18 -11
-84 -11 -120 0 -17 6 0 8 55 9 55 0 75 -2 65 -9z m-124 -655 c157 -77 205
-152 153 -245 -25 -45 -65 -70 -112 -70 -88 0 -257 190 -257 290 0 40 7 52 35
68 30 17 81 5 181 -43z m-1698 -7 c38 -31 -1 -102 -112 -205 -99 -93 -187
-132 -247 -111 -118 41 66 284 248 327 41 10 91 5 111 -11z m1397 -213 c19
-20 35 -44 35 -55 0 -17 -7 -19 -67 -18 -54 1 -82 -5 -133 -26 -136 -58 -192
-76 -238 -76 l-47 0 100 53 c55 29 125 71 155 93 108 79 139 84 195 29z m175
-171 c66 -42 141 -114 134 -126 -13 -21 -224 122 -224 153 0 19 37 8 90 -27z
m-871 -2 c48 -68 109 -333 96 -415 -9 -53 -44 -87 -88 -87 -47 0 -95 18 -107
40 -15 27 -11 273 5 363 21 122 53 155 94 99z"/>
<path d="M10670 6570 c-102 -22 -294 -193 -321 -286 -19 -65 -19 -273 0 -338
21 -71 104 -157 195 -200 149 -72 289 -74 500 -7 101 32 137 48 164 73 52 51
118 165 148 256 26 79 27 87 15 145 -18 87 -75 192 -141 259 -81 81 -142 99
-355 104 -88 2 -180 -1 -205 -6z m339 -96 c164 -43 261 -126 261 -224 0 -18
-20 -69 -45 -116 -24 -47 -50 -103 -56 -125 -21 -68 -94 -122 -238 -173 -160
-57 -258 -53 -361 16 -80 53 -115 111 -106 175 12 87 83 175 174 215 55 25
182 34 239 19 50 -14 67 -38 53 -75 -12 -33 -45 -49 -98 -49 -34 0 -49 6 -75
32 -19 17 -36 28 -40 25 -4 -4 -7 -32 -7 -62 0 -48 4 -58 34 -88 29 -29 41
-34 83 -34 63 0 130 23 174 59 34 29 34 30 34 112 0 92 5 106 41 119 31 12 30
24 -2 49 -39 31 -145 62 -240 71 -94 8 -118 20 -92 46 35 36 147 39 267 8z"/>
<path d="M24703 10540 c0 -25 2 -35 4 -22 2 12 2 32 0 45 -2 12 -4 2 -4 -23z"/>
<path d="M8420 9094 c-63 -54 -94 -164 -71 -252 23 -83 105 -145 164 -123 30
12 109 92 149 153 72 106 53 175 -62 227 -66 30 -140 28 -180 -5z m108 -79
c26 -57 4 -135 -38 -135 -26 0 -60 47 -60 82 0 33 39 78 68 78 10 0 24 -11 30
-25z"/>
<path d="M5952 7727 c-26 -28 -47 -107 -63 -236 -14 -117 -7 -200 47 -518 61
-366 98 -474 143 -419 42 51 87 411 78 636 -9 249 -65 468 -137 540 -26 26
-42 25 -68 -3z"/>
<path d="M8183 7195 c-45 -32 -67 -179 -41 -267 15 -50 68 -98 109 -98 87 0
188 122 189 229 0 73 -66 121 -203 146 -21 4 -40 0 -54 -10z m117 -105 c12
-16 24 -45 27 -64 4 -28 1 -39 -20 -60 -34 -34 -42 -33 -83 8 -27 27 -34 42
-34 72 0 74 69 102 110 44z"/>
<path d="M13570 6952 c-47 -23 -70 -72 -70 -148 0 -125 50 -214 119 -214 76 0
190 93 212 173 20 76 -46 162 -147 193 -60 18 -72 18 -114 -4z m88 -138 c21
-38 -21 -80 -53 -54 -15 13 -20 51 -8 63 12 13 52 7 61 -9z"/>
<path d="M8277 5116 c-21 -8 -40 -16 -41 -18 -27 -30 -36 -118 -13 -118 7 0
34 18 61 41 62 50 103 51 122 3 19 -45 -7 -92 -66 -122 -43 -21 -70 -46 -70
-64 0 -19 42 -48 69 -48 38 0 77 40 113 116 52 111 50 176 -6 199 -52 22 -126
27 -169 11z"/>
<path d="M13600 5027 c-28 -10 -37 -20 -46 -52 -38 -126 10 -258 106 -286 54
-16 85 -5 146 53 113 106 127 230 32 279 -44 22 -180 26 -238 6z m118 -89 c31
-31 0 -105 -33 -78 -15 12 -21 71 -8 83 10 11 28 8 41 -5z"/>
<path d="M4345 4842 c-68 -38 -90 -78 -90 -167 1 -98 32 -182 117 -312 39 -59
79 -127 90 -151 35 -77 65 -67 97 31 43 133 52 358 19 462 -17 53 -124 165
-158 165 -14 0 -47 -13 -75 -28z"/>
<path d="M17173 4692 c-99 -35 -167 -109 -198 -216 -24 -84 -18 -267 10 -316
30 -50 64 -66 246 -111 157 -40 165 -40 194 -25 70 39 110 149 110 311 0 139
-27 227 -87 287 -76 76 -182 103 -275 70z"/>
<path d="M4971 4600 c-5 -254 -28 -410 -60 -410 -4 0 -29 23 -55 50 -26 28
-56 50 -66 50 -24 0 -53 -75 -71 -182 -15 -93 -8 -108 55 -108 81 0 145 69
188 200 25 76 34 276 20 405 l-9 80 -2 -85z"/>
<path d="M5924 4584 c-12 -3 -29 -13 -39 -23 -15 -17 -15 -22 -1 -56 36 -85
199 -281 272 -326 30 -18 37 -19 61 -7 16 7 36 30 47 51 16 34 17 46 7 95 -24
123 -94 218 -178 246 -53 17 -136 27 -169 20z"/>
<path d="M16007 4486 c-147 -53 -249 -262 -203 -420 21 -73 44 -96 95 -96 47
0 101 40 101 74 0 76 177 206 279 206 89 0 60 129 -43 199 -76 52 -152 64
-229 37z"/>
<path d="M3592 4441 c-93 -32 -114 -62 -142 -202 -11 -57 -26 -77 -82 -112
-49 -31 -34 -75 62 -184 81 -92 185 -180 245 -209 77 -37 210 -32 237 9 13 20
-6 40 -61 64 -92 40 -171 132 -171 198 0 42 38 28 106 -37 54 -52 73 -48 102
22 47 114 12 265 -85 371 -85 91 -129 108 -211 80z"/>
<path d="M14962 4405 c-122 -27 -167 -72 -167 -163 1 -147 159 -289 298 -268
59 9 146 54 171 88 28 40 33 183 9 253 -15 42 -25 53 -63 72 -59 30 -165 37
-248 18z"/>
<path d="M7410 4223 c-17 -22 -21 -36 -16 -68 9 -54 53 -188 71 -211 13 -18
15 -18 44 11 17 17 40 57 52 90 22 61 31 176 16 192 -5 4 -21 -7 -35 -25 -32
-38 -42 -40 -42 -9 0 52 -55 64 -90 20z"/>
<path d="M6461 4144 c-40 -33 -61 -105 -61 -205 0 -92 25 -245 46 -277 14 -21
16 -21 43 -7 39 20 97 101 134 188 55 129 38 249 -43 305 -43 29 -81 28 -119
-4z"/>
<path d="M16158 4154 c-27 -8 -57 -27 -72 -45 -57 -67 -20 -96 101 -79 41 5
87 17 103 25 61 31 60 83 -1 104 -41 14 -73 13 -131 -5z"/>
<path d="M5216 4123 c-10 -11 -7 -58 6 -71 16 -16 47 -15 54 2 11 28 -41 87
-60 69z"/>
<path d="M5980 4108 c-42 -21 -45 -26 -48 -66 -2 -24 4 -66 13 -93 18 -52 72
-119 97 -119 39 0 97 109 105 201 5 53 4 58 -20 74 -43 28 -96 29 -147 3z"/>
<path d="M5467 4067 c4 -41 2 -56 -11 -66 -24 -20 -19 -44 17 -79 50 -49 67
-43 66 21 0 28 -6 66 -12 82 -16 40 -50 95 -58 95 -4 0 -5 -24 -2 -53z"/>
<path d="M3951 4053 c-30 -105 -34 -156 -17 -221 59 -231 270 -423 466 -424
95 -1 146 16 166 53 32 63 64 402 45 489 -19 87 -108 163 -138 118 -4 -7 -17
-35 -28 -63 -55 -138 -244 -107 -472 77 -8 7 -15 -1 -22 -29z"/>
<path d="M7011 4030 c-14 -65 -13 -212 2 -270 9 -34 17 -45 32 -45 32 0 48 50
52 160 4 119 -17 198 -54 203 -18 3 -23 -4 -32 -48z"/>
<path d="M16990 3894 c-91 -20 -151 -59 -169 -110 -19 -54 -8 -110 30 -145 26
-24 29 -33 29 -91 0 -34 -14 -130 -30 -213 l-30 -150 21 -17 c27 -23 42 -22
122 2 124 38 308 184 348 275 31 71 10 102 -102 153 -94 42 -98 66 -25 172 59
86 58 105 -13 129 -43 14 -99 13 -181 -5z"/>
<path d="M5600 3870 c-19 -12 6 -49 45 -66 39 -16 105 -19 105 -4 0 12 -75 60
-110 70 -15 4 -33 4 -40 0z"/>
<path d="M3207 3790 c-69 -49 -119 -68 -217 -81 -129 -16 -313 -122 -399 -230
-60 -74 -75 -128 -75 -269 0 -184 35 -317 103 -393 90 -100 262 -173 392 -165
90 5 113 26 122 114 3 33 13 78 21 101 14 39 7 69 -10 42 -3 -6 -27 -24 -52
-40 -110 -70 -273 -14 -345 119 -71 131 -32 348 78 437 52 42 97 64 225 110
138 49 210 86 259 133 46 43 53 80 26 132 -22 43 -58 40 -128 -10z"/>
<path d="M15160 3780 c-23 -23 -36 -52 -50 -117 -15 -64 -53 -135 -105 -193
-25 -28 -45 -55 -45 -59 0 -16 73 -73 117 -93 24 -10 84 -24 135 -29 160 -18
291 -79 426 -197 66 -58 68 -58 51 3 -16 57 -53 101 -107 129 -26 13 -72 49
-101 79 -118 121 -271 371 -271 441 0 47 -22 64 -50 36z"/>
<path d="M16354 3771 c-42 -26 -72 -66 -80 -109 -9 -47 23 -76 70 -66 114 24
193 127 138 177 -25 23 -90 21 -128 -2z"/>
<path d="M17227 3772 c-36 -39 -6 -113 63 -160 33 -22 34 -22 52 -4 37 37 36
124 -2 162 -26 26 -91 27 -113 2z"/>
<path d="M14115 3765 c-49 -18 -90 -62 -104 -112 -14 -49 -14 -239 -1 -322 18
-109 58 -161 124 -161 37 0 123 33 252 98 156 78 217 96 308 89 80 -5 116 4
116 31 0 26 -30 51 -143 118 -53 32 -127 82 -165 111 -37 29 -87 67 -111 84
-88 64 -204 91 -276 64z"/>
<path d="M5840 3689 c-15 -28 -6 -47 27 -60 40 -15 73 -4 73 26 0 48 -79 75
-100 34z"/>
<path d="M4782 3688 c-20 -25 -30 -86 -21 -132 10 -56 36 -109 49 -101 6 4 10
50 10 103 0 130 -10 163 -38 130z"/>
<path d="M15938 3640 c-72 -75 -76 -131 -10 -138 40 -4 68 11 92 51 20 31 26
90 14 121 -11 29 -47 17 -96 -34z"/>
<path d="M4963 3635 c-3 -9 -3 -40 -1 -71 11 -134 131 -208 423 -259 103 -18
131 -12 164 35 31 45 62 65 114 74 108 20 -26 113 -223 155 -52 12 -139 35
-193 53 -53 17 -100 28 -104 25 -3 -4 -1 -18 5 -32 10 -23 9 -25 -11 -25 -12
0 -49 13 -82 30 -69 34 -83 36 -92 15z"/>
<path d="M16595 3563 c-20 -20 -13 -72 12 -90 21 -16 65 -17 81 -1 20 20 14
48 -17 79 -34 33 -52 36 -76 12z"/>
<path d="M3756 3524 c-12 -31 -6 -61 22 -105 31 -49 107 -119 129 -119 17 0
43 59 43 98 0 38 -27 72 -88 111 -53 34 -96 40 -106 15z"/>
<path d="M16180 3526 c-6 -8 -10 -25 -8 -38 5 -35 56 -37 87 -4 32 34 22 56
-27 56 -22 0 -45 -6 -52 -14z"/>
<path d="M3354 3468 c-15 -18 -44 -69 -65 -113 -39 -84 -119 -306 -119 -332 0
-43 167 52 264 150 l69 70 30 -36 c65 -82 160 -23 127 78 -16 48 -130 168
-184 194 -61 30 -89 27 -122 -11z"/>
<path d="M7130 3464 c-47 -22 -98 -38 -143 -44 -87 -11 -149 -50 -214 -135
-50 -65 -73 -114 -92 -188 -22 -89 -17 -92 169 -101 125 -6 203 -28 279 -80
39 -27 63 -36 85 -34 29 3 31 6 38 53 13 93 105 145 257 145 106 0 188 -22
298 -80 124 -65 187 -83 274 -78 85 5 121 27 131 84 15 84 -23 335 -66 437
-12 29 -21 37 -41 37 -36 0 -105 -37 -220 -121 -185 -133 -296 -169 -409 -134
-60 19 -137 78 -160 124 -8 14 -17 46 -21 71 -14 90 -50 99 -165 44z"/>
<path d="M6159 3455 c-2 -1 -89 -17 -192 -35 -231 -39 -285 -54 -296 -83 -16
-44 17 -87 69 -87 40 0 139 -53 204 -109 89 -76 114 -85 237 -89 122 -4 216
10 243 37 20 21 33 102 22 145 -9 36 -60 91 -125 135 -61 42 -156 92 -162 86z"/>
<path d="M16454 3435 c-30 -30 -21 -50 27 -60 35 -8 89 11 89 30 0 18 -48 55
-72 55 -10 0 -30 -11 -44 -25z"/>
<path d="M4140 3347 c-36 -18 -54 -63 -55 -132 0 -63 24 -120 48 -112 22 7 47
64 63 145 14 66 14 85 4 97 -15 18 -27 19 -60 2z"/>
<path d="M15941 3281 c-36 -10 -64 -53 -64 -100 0 -48 16 -90 57 -151 33 -50
184 -210 197 -210 4 0 35 35 68 78 88 117 150 166 265 212 l59 24 -72 32
c-174 80 -432 138 -510 115z"/>
<path d="M2255 3234 c-74 -38 -144 -138 -124 -176 17 -32 109 -17 158 26 47
42 60 113 28 154 -12 16 -26 15 -62 -4z"/>
<path d="M15055 3117 c-40 -18 -49 -31 -75 -100 -30 -80 -100 -180 -223 -322
-58 -65 -112 -131 -121 -146 l-16 -28 37 -10 c50 -14 226 -14 256 0 32 15 44
42 66 154 37 180 132 302 258 329 73 16 164 -38 217 -128 60 -103 148 -146
169 -82 23 69 -60 183 -183 253 -123 70 -318 110 -385 80z"/>
<path d="M4945 3052 c-33 -7 -65 -33 -65 -53 0 -23 69 -68 115 -76 68 -11 102
76 42 108 -30 17 -70 26 -92 21z"/>
<path d="M13575 3037 c-58 -89 -34 -320 39 -379 45 -37 94 -18 177 69 76 79
94 116 78 154 -24 60 -163 160 -241 174 -32 6 -38 4 -53 -18z"/>
<path d="M5391 2996 c-30 -23 -42 -25 -110 -23 -67 2 -82 -1 -122 -25 -127
-75 -58 -168 115 -155 98 7 165 37 221 99 67 75 58 116 -28 125 -34 4 -49 0
-76 -21z"/>
<path d="M17015 2970 c-11 -5 -85 -9 -165 -10 -201 -1 -384 -16 -420 -35 -58
-30 -67 -89 -20 -128 37 -32 108 -47 213 -47 103 1 155 12 174 40 13 18 21 20
71 14 70 -7 162 13 262 57 83 37 86 52 20 86 -53 27 -106 36 -135 23z"/>
<path d="M3521 2934 c-61 -77 10 -259 132 -341 66 -44 104 -50 161 -24 75 33
76 83 2 126 -60 35 -121 104 -150 168 -40 91 -104 123 -145 71z"/>
<path d="M15750 2872 c0 -56 -24 -126 -65 -194 -57 -91 -36 -117 49 -61 54 35
186 144 186 154 0 12 -144 139 -157 139 -8 0 -13 -14 -13 -38z"/>
<path d="M8503 2836 c-39 -18 -48 -54 -40 -159 7 -104 32 -175 77 -219 50 -50
78 -50 135 3 64 59 108 154 113 241 7 110 -20 132 -178 143 -54 4 -84 1 -107
-9z m117 -116 c40 -40 16 -120 -36 -120 -30 0 -37 14 -37 66 0 69 33 94 73 54z"/>
<path d="M17748 2829 c-42 -24 -24 -177 32 -276 32 -56 90 -117 131 -139 38
-19 101 -27 153 -20 46 7 130 56 140 82 15 38 -14 56 -150 93 -65 17 -116 62
-177 155 -59 89 -99 122 -129 105z"/>
<path d="M5805 2772 c-58 -44 -95 -95 -95 -130 0 -53 76 -132 127 -132 11 0
30 12 44 26 21 22 24 37 27 112 5 105 -6 156 -34 160 -10 1 -41 -15 -69 -36z"/>
<path d="M6187 2776 c-32 -32 -27 -219 7 -271 23 -35 49 -39 106 -14 182 78
137 299 -62 299 -20 0 -43 -6 -51 -14z"/>
<path d="M15180 2770 c-25 -25 -52 -119 -48 -167 4 -50 30 -54 86 -13 74 53
88 114 41 173 -24 32 -52 34 -79 7z"/>
<path d="M16217 2783 c-14 -13 -7 -51 14 -77 22 -28 43 -33 55 -15 11 18 7 69
-7 85 -12 14 -51 19 -62 7z"/>
<path d="M6774 2729 c-102 -97 -137 -173 -114 -245 16 -47 130 -161 187 -186
81 -36 103 3 103 186 -1 280 -56 358 -176 245z"/>
<path d="M7391 2513 c-26 -32 -54 -123 -55 -180 -2 -66 17 -77 127 -81 51 -2
104 1 120 7 63 24 58 100 -12 189 -72 90 -141 115 -180 65z"/>
<path d="M24340 1021 c-16 -31 4 -63 37 -59 34 4 52 32 37 56 -16 26 -60 28
-74 3z"/>
</g>
</svg>
