<?xml version="1.0" standalone="no"?>
<!DOCTYPE svg PUBLIC "-//W3C//DTD SVG 20010904//EN"
 "http://www.w3.org/TR/2001/REC-SVG-20010904/DTD/svg10.dtd">
<svg version="1.0" xmlns="http://www.w3.org/2000/svg"
 width="100%" height="100%" viewBox="0 0 996.000000 828.000000"
 preserveAspectRatio="xMidYMid meet">

<g transform="translate(0.000000,828.000000) scale(0.100000,-0.100000)"
fill="#000000" stroke="none">
<path d="M0 4140 l0 -4140 4980 0 4980 0 0 4140 0 4140 -4980 0 -4980 0 0
-4140z m664 4118 c303 -1 385 -3 291 -8 -71 -4 -297 -8 -502 -8 -204 0 -377
-3 -384 -7 -9 -6 -10 -767 -5 -3444 3 -1890 9 -3727 12 -4084 3 -356 3 -655 0
-664 -4 -9 -10 -13 -15 -7 -5 5 -12 653 -16 1439 -4 787 -9 1489 -10 1560 -1
72 -6 1274 -10 2672 l-8 2543 24 10 c14 6 62 8 113 5 49 -3 279 -6 510 -7z
m2215 3 c57 0 102 -4 98 -7 -9 -9 -1584 -15 -1637 -7 -43 8 -41 8 35 13 68 4
1186 5 1504 1z m891 -4 c58 -1 -93 -3 -335 -3 -242 -1 -422 2 -400 5 37 6 498
4 735 -2z m830 3 c0 -5 -15 -10 -34 -10 -19 0 -38 5 -41 10 -4 6 10 10 34 10
23 0 41 -4 41 -10z m-3317 -7 c-7 -2 -21 -2 -30 0 -10 3 -4 5 12 5 17 0 24 -2
18 -5z m2865 0 c-21 -2 -55 -2 -75 0 -21 2 -4 4 37 4 41 0 58 -2 38 -4z m1532
-73 c0 -5 -7 -10 -16 -10 -8 0 -12 5 -9 10 3 6 10 10 16 10 5 0 9 -4 9 -10z
m295 -10 c-3 -5 -15 -10 -26 -10 -10 0 -19 5 -19 10 0 6 12 10 26 10 14 0 23
-4 19 -10z m-5835 -24 c12 -32 25 -39 40 -21 13 15 42 20 53 9 11 -11 -6 -35
-31 -45 -23 -9 -24 -11 -8 -28 9 -9 16 -23 16 -29 0 -21 25 -2 39 29 7 17 27
44 43 61 25 25 35 29 61 24 18 -4 34 -11 35 -16 2 -6 26 -10 53 -10 54 0 60
-10 31 -47 -26 -34 -146 -86 -183 -81 -31 5 -31 5 -25 -33 3 -21 2 -40 -3 -43
-5 -3 -25 5 -45 19 -63 43 -81 25 -20 -21 52 -40 68 -77 70 -164 0 -41 5 -96
11 -122 6 -27 8 -48 6 -48 -2 0 -19 16 -37 35 -37 39 -85 50 -66 15 6 -11 15
-20 20 -20 15 0 62 -76 59 -97 -5 -33 13 -193 22 -199 5 -3 9 -13 9 -22 0 -14
-3 -14 -18 4 -19 23 -112 79 -112 68 0 -4 17 -28 38 -53 56 -67 61 -79 60
-163 0 -42 4 -84 10 -94 5 -11 12 -32 16 -49 l6 -30 -18 22 c-17 19 -84 63
-97 63 -16 0 0 -31 29 -61 41 -41 65 -115 50 -150 -7 -16 -6 -38 4 -76 17 -58
12 -75 -15 -51 -23 20 -63 32 -63 20 0 -6 16 -29 35 -52 37 -45 49 -74 43
-111 -2 -18 -8 -23 -25 -21 -29 4 -29 -3 1 -31 22 -21 62 -125 51 -135 -2 -2
-23 12 -46 32 -73 62 -93 43 -32 -30 32 -40 37 -54 44 -122 4 -42 11 -94 15
-114 8 -44 0 -47 -50 -17 -21 12 -36 16 -36 10 0 -12 29 -62 42 -71 16 -12 29
-66 29 -124 1 -33 5 -65 9 -71 4 -5 11 -25 15 -44 7 -35 1 -36 -35 -5 -17 14
-70 29 -70 20 0 -3 16 -29 36 -57 31 -44 36 -60 39 -118 1 -38 7 -77 12 -87
11 -22 16 -84 7 -84 -3 0 -24 16 -47 35 -67 58 -69 42 -7 -50 29 -44 43 -94
31 -113 -9 -14 -49 19 -88 73 -19 25 -22 27 -22 10 0 -24 61 -92 94 -105 15
-6 27 -20 31 -37 3 -15 12 -45 20 -66 8 -20 14 -40 14 -42 0 -12 -24 -3 -54
20 -37 28 -56 32 -56 10 0 -8 3 -15 8 -15 4 0 18 -19 31 -43 25 -45 25 -92 2
-92 -20 0 -81 81 -81 108 0 12 -11 45 -25 72 -21 43 -24 65 -25 148 0 73 3 99
13 103 12 4 12 14 0 57 -7 29 -12 87 -11 132 3 81 15 99 32 48 9 -28 67 -101
93 -116 9 -5 13 -3 13 8 0 9 -8 19 -18 21 -38 10 -83 103 -84 174 0 19 -9 47
-19 62 -17 23 -20 43 -18 138 1 103 8 132 23 94 3 -9 6 -26 6 -39 0 -13 5 -27
10 -30 18 -11 10 44 -15 106 -23 59 -24 69 -24 292 -1 227 6 282 29 247 15
-23 12 -3 -4 29 -16 30 -35 281 -21 281 4 0 14 -8 22 -17 13 -16 13 -12 8 31
-4 27 -13 56 -21 64 -21 20 -16 197 5 197 8 0 18 -15 23 -35 12 -48 18 -64 22
-59 8 7 -24 112 -41 138 -16 23 -18 65 -21 409 -2 210 -1 389 2 397 8 23 35
18 46 -9z m1152 2 c-7 -7 -12 -8 -12 -2 0 14 12 26 19 19 2 -3 -1 -11 -7 -17z
m3498 13 c0 -6 -4 -13 -10 -16 -5 -3 -10 1 -10 9 0 9 5 16 10 16 6 0 10 -4 10
-9z m1440 5 c0 -3 -4 -8 -10 -11 -5 -3 -10 -1 -10 4 0 6 5 11 10 11 6 0 10 -2
10 -4z m880 0 c0 -3 -4 -8 -10 -11 -5 -3 -10 -1 -10 4 0 6 5 11 10 11 6 0 10
-2 10 -4z m-2955 -34 c11 -25 25 -28 43 -10 9 9 16 7 32 -7 21 -19 27 -45 10
-45 -5 0 -33 -18 -62 -40 -29 -22 -64 -43 -78 -46 -14 -3 -37 -10 -53 -16 -20
-8 -31 -7 -42 2 -12 10 -21 10 -42 1 -44 -20 -40 -1 8 42 25 23 58 61 73 84
26 38 66 65 91 59 6 -1 14 -12 20 -24z m2780 8 c0 -10 -14 -17 -45 -20 -52 -6
-70 -15 -70 -36 0 -8 -7 -14 -15 -14 -8 0 -12 -6 -9 -14 3 -8 -8 -22 -29 -35
-40 -25 -148 -63 -155 -56 -3 3 2 22 11 43 14 29 14 33 2 18 -8 -11 -15 -23
-15 -27 0 -10 -71 -42 -78 -35 -7 8 46 64 67 71 9 3 29 26 44 50 26 41 32 45
68 45 41 0 46 -8 29 -41 -9 -16 -7 -19 14 -19 31 0 39 12 27 43 -15 38 4 48
84 45 54 -2 70 -6 70 -18z m-6268 -6 c4 -12 18 -15 61 -12 37 2 57 -1 59 -9 6
-17 -44 -62 -87 -80 -19 -8 -42 -21 -50 -28 -8 -7 -37 -19 -63 -28 -38 -13
-53 -14 -67 -5 -14 9 -25 9 -43 1 -43 -20 -38 -2 13 51 28 28 66 68 86 89 38
39 80 49 91 21z m1442 2 c17 -9 44 -12 83 -8 62 5 73 -5 46 -40 -26 -33 -241
-134 -259 -122 -7 4 -7 10 0 17 16 16 13 37 -4 37 -26 0 -16 30 23 68 34 33
69 59 82 61 3 0 16 -6 29 -13z m317 -12 c9 -12 17 -12 37 -3 52 24 79 -20 33
-53 -35 -25 -192 -108 -205 -108 -6 0 -11 7 -11 16 0 11 -5 14 -17 9 -66 -27
-69 -14 -8 45 25 24 45 50 45 57 0 7 17 24 37 38 39 26 68 26 89 -1z m281 6
c-4 -16 -2 -18 13 -10 30 16 80 12 87 -6 10 -26 -9 -47 -64 -75 -29 -14 -58
-30 -65 -36 -15 -13 -96 -43 -117 -43 -7 0 -11 6 -8 13 4 10 -3 12 -27 9 l-31
-5 25 28 c14 16 33 37 43 47 9 10 17 22 17 28 0 17 82 70 108 70 19 0 23 -4
19 -20z m603 -1 c0 -5 15 -9 34 -9 49 0 53 -23 8 -57 -69 -53 -118 -83 -136
-83 -9 0 -30 -7 -47 -15 -37 -20 -57 -10 -33 16 21 23 16 24 -25 3 -49 -24
-50 -7 -3 36 23 22 42 43 42 47 0 4 12 21 25 36 33 37 135 57 135 26z m300 1
c4 -7 16 -9 28 -6 14 5 25 0 36 -16 15 -20 14 -23 -2 -31 -9 -6 -46 -29 -82
-52 -42 -27 -82 -45 -114 -49 -37 -6 -46 -5 -40 5 5 9 2 10 -10 6 -10 -4 -29
-10 -42 -13 -34 -9 -32 21 4 43 41 26 92 80 92 98 0 9 10 19 22 24 31 11 99 6
108 -9z m245 10 c14 -5 23 -14 20 -20 -8 -13 8 -13 41 2 23 11 28 10 40 -7 19
-26 18 -34 -10 -45 -14 -5 -46 -24 -73 -44 -56 -40 -160 -80 -169 -64 -3 5 3
16 15 24 12 8 21 20 21 26 0 6 -10 2 -23 -10 -23 -22 -57 -30 -57 -14 0 5 22
28 50 53 27 24 50 49 50 56 0 6 15 20 33 32 38 25 30 23 62 11z m644 -20 c27
0 61 -17 61 -31 0 -5 -12 -15 -27 -22 -16 -7 -48 -25 -72 -41 -57 -36 -152
-68 -167 -55 -7 6 -21 6 -39 -1 -38 -14 -46 -3 -15 21 61 49 112 103 123 131
7 21 87 29 103 11 6 -7 21 -13 33 -13z m537 20 c8 0 13 -6 12 -12 -2 -9 7 -12
29 -10 24 2 34 -2 43 -17 9 -18 6 -22 -23 -35 -18 -7 -56 -29 -83 -48 -74 -53
-144 -73 -144 -42 0 10 -5 14 -15 10 -8 -3 -22 -9 -30 -12 -29 -12 -14 12 45
70 33 33 60 63 60 67 0 21 35 41 63 35 16 -3 36 -6 43 -6z m548 1 c3 -5 15 -7
26 -4 14 4 20 0 20 -10 0 -10 11 -17 32 -19 33 -3 56 -38 25 -38 -9 0 -17 -4
-19 -8 -6 -14 -102 -68 -152 -85 -62 -21 -80 -22 -72 -2 7 19 2 19 -35 -1 -17
-8 -33 -14 -35 -11 -2 2 35 45 83 95 82 85 114 105 127 83z m1772 -41 c9 0 24
4 34 10 24 13 39 -19 15 -33 -9 -5 -31 -21 -48 -36 -18 -16 -41 -33 -53 -39
-31 -17 -108 -42 -112 -37 -2 2 0 18 6 35 10 27 9 29 -6 21 -9 -5 -25 -19 -34
-30 -18 -21 -48 -29 -48 -12 0 5 15 20 33 33 38 27 62 53 83 91 23 42 53 49
87 21 16 -13 35 -24 43 -24z m234 38 c16 -10 24 -10 40 0 18 11 20 10 17 -10
-1 -16 5 -23 22 -28 25 -6 42 -30 21 -30 -6 0 -28 -13 -48 -30 -56 -45 -182
-96 -182 -74 0 3 5 14 10 25 13 23 7 24 -25 3 -55 -36 -40 -4 35 74 43 45 82
82 85 82 3 0 14 -6 25 -12z m299 -4 c22 -11 45 -14 71 -10 50 8 62 -16 23 -50
-15 -12 -29 -22 -32 -21 -3 1 -22 -10 -41 -25 -36 -27 -145 -70 -154 -61 -3 3
-1 13 4 23 15 28 1 30 -25 4 -24 -24 -45 -31 -45 -16 0 8 154 172 162 172 3 0
19 -7 37 -16z m-6663 -9 c4 -8 -1 -26 -10 -40 -24 -37 -2 -30 27 8 20 27 33
34 64 35 44 2 73 -5 73 -18 0 -12 -39 -48 -70 -64 -14 -7 -50 -27 -80 -44 -60
-33 -117 -45 -112 -24 3 16 -17 15 -48 -3 -47 -27 -53 -15 -14 28 22 24 56 65
77 90 39 49 81 63 93 32z m329 5 c-4 -7 12 -10 44 -9 59 2 62 1 54 -29 -3 -14
-27 -33 -67 -53 -33 -17 -74 -39 -91 -49 -38 -24 -91 -30 -87 -11 2 10 -3 12
-20 6 -13 -3 -34 -9 -48 -11 -21 -5 -23 -3 -10 8 8 7 44 46 79 86 61 69 65 72
108 72 27 0 42 -4 38 -10z m295 -7 c0 -9 6 -13 14 -10 36 14 84 18 91 8 15
-25 -111 -115 -215 -154 -58 -22 -63 -21 -57 3 6 24 -1 25 -32 4 -45 -32 -42
1 4 46 25 24 45 49 45 55 0 5 11 22 24 36 20 22 33 27 75 27 39 0 51 -4 51
-15z m1157 4 c7 -5 24 -7 39 -4 23 4 55 -14 54 -31 -1 -15 -179 -121 -213
-127 -40 -8 -46 -1 -21 26 28 31 -4 30 -40 -2 -53 -46 -65 -25 -14 24 24 23
60 62 80 85 31 37 41 43 70 41 18 -2 39 -7 45 -12z m1743 -2 c9 -11 22 -14 46
-9 25 5 34 3 34 -7 0 -22 -12 -34 -75 -78 -69 -48 -158 -79 -179 -62 -10 9
-21 8 -40 0 -53 -24 -40 18 14 46 14 7 46 38 70 69 40 50 49 56 81 56 21 0 42
-7 49 -15z m587 -1 c4 -10 13 -14 28 -10 14 4 28 -1 39 -13 16 -17 13 -20 -56
-60 -112 -65 -205 -96 -183 -60 9 14 -18 10 -39 -6 -21 -16 -56 -20 -56 -7 0
5 24 25 53 45 28 20 61 51 71 69 28 47 45 57 94 58 30 0 44 -5 49 -16z m578
-4 c-3 -5 12 -10 32 -12 58 -5 52 -28 -20 -68 -130 -74 -203 -98 -167 -55 21
26 3 29 -34 5 -67 -41 -59 -14 17 62 67 67 80 76 112 76 20 0 39 3 42 6 9 8
24 -4 18 -14z m247 0 c21 -16 30 -18 55 -8 17 6 37 8 47 5 21 -8 21 -36 -1
-44 -10 -4 -34 -19 -53 -35 -19 -15 -41 -28 -48 -28 -7 0 -38 -12 -68 -27 -55
-27 -77 -26 -54 2 7 9 10 25 6 41 -5 20 -1 32 20 52 18 18 28 23 31 15 5 -15
43 -18 43 -3 0 5 -12 13 -27 16 -25 7 -25 8 -8 20 24 18 28 18 57 -6z m282 14
c9 -3 16 -13 16 -21 0 -12 9 -14 50 -8 37 5 50 4 50 -5 0 -24 -97 -94 -147
-106 -15 -4 -40 -14 -55 -22 -31 -18 -47 -10 -28 13 17 20 7 19 -40 -5 -47
-24 -50 -24 -50 -5 0 8 4 15 9 15 4 0 45 34 90 75 44 41 83 75 85 75 3 0 11
-3 20 -6z m1736 -4 c12 -8 9 -10 -12 -11 -50 -3 -53 -4 -56 -22 -5 -27 22 -30
67 -8 42 22 105 28 116 12 3 -5 -4 -13 -16 -16 -11 -4 -35 -20 -53 -35 -17
-16 -67 -45 -110 -66 -62 -30 -79 -35 -86 -24 -6 9 -3 18 8 27 9 7 13 12 7 12
-5 0 -19 -6 -29 -14 -11 -8 -29 -15 -40 -15 -17 1 -11 9 27 42 26 23 62 61 78
85 31 44 64 56 99 33z m273 3 c4 -3 0 -15 -10 -25 -20 -22 -2 -24 31 -3 17 11
33 13 61 7 48 -10 54 -24 18 -43 -16 -8 -30 -17 -33 -21 -10 -13 -203 -99
-208 -93 -3 3 2 20 12 37 20 33 10 32 -31 -5 -42 -38 -38 -6 5 36 23 23 57 59
76 80 31 34 63 46 79 30z m552 -3 c3 -5 37 -10 75 -10 39 0 72 -5 76 -11 7
-12 -23 -46 -46 -51 -8 -2 -29 -13 -47 -25 -17 -13 -56 -32 -87 -43 -31 -12
-58 -26 -61 -31 -8 -12 -25 -11 -25 2 0 6 9 22 20 36 28 36 19 39 -30 8 -50
-32 -45 -21 39 74 53 59 73 71 86 51z m600 -11 c-7 -20 -5 -21 21 -14 16 4 48
9 72 12 33 3 42 1 42 -11 0 -21 -42 -49 -51 -34 -5 7 -12 3 -20 -11 -17 -27
-80 -65 -145 -87 -43 -14 -49 -15 -59 -1 -7 10 -20 14 -33 10 -34 -8 -26 9 19
42 31 23 51 30 86 30 56 0 69 21 24 36 -37 13 -40 26 -8 39 41 16 59 12 52
-11z m-8665 -7 c0 -10 -5 -23 -12 -30 -9 -9 -9 -12 0 -12 6 0 15 6 19 14 12
21 48 36 86 36 75 0 53 -34 -64 -100 -50 -28 -101 -55 -114 -60 -32 -12 -42 5
-19 31 28 31 8 33 -41 4 -26 -15 -49 -24 -52 -21 -3 3 28 39 68 81 57 58 80
75 101 75 20 0 28 -5 28 -18z m6066 -7 c-7 -27 5 -33 23 -11 12 14 84 17 97 3
4 -4 2 -7 -4 -7 -7 0 -12 -5 -12 -11 0 -21 -116 -99 -146 -99 -8 0 -26 -7 -40
-16 -33 -22 -42 -10 -21 25 21 36 21 41 2 41 -22 0 -19 11 16 58 24 33 37 42
61 42 27 0 30 -2 24 -25z m1724 5 c0 -23 4 -24 28 -9 13 8 26 7 54 -4 32 -14
35 -13 34 2 -1 21 28 21 32 -1 2 -12 -5 -19 -25 -24 -15 -4 -50 -22 -76 -41
-27 -18 -67 -38 -89 -43 -21 -6 -47 -14 -56 -17 -14 -5 -15 -3 -4 8 6 7 12 21
12 31 0 15 -7 13 -50 -14 -28 -17 -53 -28 -57 -25 -3 4 16 26 43 49 27 24 62
58 78 76 34 37 76 44 76 12z m570 16 c0 -2 -3 -12 -6 -20 -5 -13 -9 -14 -20
-5 -20 16 -17 29 6 29 11 0 20 -2 20 -4z m146 -28 c4 -7 3 -8 -5 -4 -6 4 -14
0 -17 -8 -3 -9 -10 -16 -15 -16 -4 0 -36 -20 -71 -44 -92 -64 -191 -89 -143
-36 29 32 9 36 -33 6 -69 -47 -73 -28 -6 28 34 28 49 35 57 27 15 -15 27 -14
27 4 0 10 10 15 28 15 15 1 45 9 67 20 45 22 100 26 111 8z m-2280 -13 c-21
-16 -32 -13 -21 4 3 6 14 11 23 11 15 -1 15 -2 -2 -15z m2657 -27 c-5 -29 -30
-45 -46 -29 -6 6 0 19 18 35 16 15 29 25 31 24 1 -2 0 -15 -3 -30z m-3813 -63
c-23 -25 -50 -33 -50 -16 0 11 41 40 59 40 10 1 7 -7 -9 -24z m870 18 c0 -13
-33 -43 -48 -43 -12 0 -10 6 8 25 23 24 40 32 40 18z m2895 -23 c3 -5 12 -7
20 -3 8 3 15 0 15 -7 0 -7 8 -10 19 -7 14 3 21 -2 25 -18 7 -27 -3 -85 -15
-85 -11 0 -49 50 -49 66 0 8 -4 14 -9 14 -14 0 -21 -29 -11 -48 5 -9 15 -32
22 -51 7 -19 23 -54 34 -78 12 -24 16 -39 10 -34 -13 11 -64 3 -72 -11 -3 -5
2 -12 13 -14 25 -7 60 -61 68 -106 10 -53 -16 -50 -45 5 -15 30 -47 53 -58 42
-4 -3 3 -23 14 -43 12 -20 24 -53 28 -73 4 -21 13 -42 21 -49 8 -7 15 -18 15
-25 0 -18 -25 -26 -39 -12 -6 6 -13 8 -17 4 -3 -3 15 -28 41 -56 40 -43 46
-54 43 -85 -4 -46 -18 -49 -43 -9 -20 32 -43 48 -53 38 -3 -3 5 -26 17 -53 12
-26 22 -51 22 -57 1 -5 8 -23 17 -39 16 -27 16 -29 -5 -43 -13 -9 -23 -19 -23
-23 0 -5 16 -27 35 -50 25 -30 35 -52 35 -76 0 -30 -2 -33 -17 -23 -10 6 -27
25 -38 42 -11 17 -26 32 -32 35 -15 4 -18 -29 -5 -43 5 -6 19 -38 32 -73 21
-59 22 -63 5 -82 -10 -11 -24 -16 -33 -13 -10 4 -2 -8 17 -25 18 -18 37 -32
42 -32 5 0 7 -11 3 -25 -4 -15 -2 -25 5 -25 6 0 11 -11 11 -25 0 -30 -26 -34
-35 -6 -3 10 -14 26 -25 36 -34 31 -33 -4 4 -92 33 -79 33 -83 16 -98 -15 -14
-17 -21 -8 -40 6 -13 18 -25 28 -28 12 -3 20 -19 25 -53 9 -60 9 -58 -4 -62
-6 -2 -14 5 -18 15 -4 10 -15 24 -25 31 -10 7 -18 20 -18 28 0 8 -7 14 -15 14
-8 0 -15 -4 -15 -10 0 -15 23 -63 38 -82 8 -10 12 -24 9 -32 -3 -8 1 -17 9
-20 23 -9 16 -35 -11 -42 -14 -3 -25 -12 -25 -19 0 -15 29 -48 55 -63 16 -8
20 -21 20 -60 0 -45 -2 -49 -17 -41 -10 5 -18 16 -18 23 0 12 -40 46 -55 46
-13 0 -3 -39 20 -73 14 -20 23 -42 20 -47 -3 -5 -1 -19 5 -30 9 -16 8 -22 -5
-26 -26 -10 -18 -53 16 -81 16 -14 28 -31 25 -38 -2 -6 3 -26 11 -44 21 -43 8
-51 -27 -15 -74 75 -93 79 -60 14 22 -43 50 -119 50 -137 0 -6 -9 -15 -20 -18
-28 -9 -25 -21 11 -42 25 -15 30 -23 25 -45 -4 -20 0 -30 13 -38 13 -6 17 -17
14 -30 -9 -33 -36 -22 -66 25 -16 25 -33 45 -38 45 -15 0 -10 -30 10 -58 10
-15 24 -51 31 -80 11 -49 11 -54 -6 -67 -18 -13 -18 -15 7 -42 28 -30 40 -54
44 -90 6 -45 -51 -20 -68 30 -4 9 -11 17 -17 17 -17 0 -11 -28 14 -68 12 -20
26 -58 30 -84 6 -41 5 -47 -8 -42 -30 12 -17 -34 24 -81 29 -34 40 -55 40 -79
0 -18 -3 -36 -7 -40 -4 -4 -26 15 -49 41 -46 52 -68 52 -42 0 49 -94 58 -140
31 -155 -15 -9 -13 -15 18 -53 18 -24 37 -47 41 -50 10 -7 -1 -69 -12 -69 -4
0 -26 21 -48 48 -23 26 -44 43 -49 38 -4 -5 -2 -11 5 -13 6 -3 12 -15 12 -28
0 -13 4 -26 9 -29 18 -12 37 -91 30 -125 -7 -32 9 -69 51 -119 14 -16 9 -64
-8 -70 -7 -2 -28 13 -47 34 -43 46 -55 39 -23 -13 25 -40 38 -143 19 -143 -6
0 -11 -7 -11 -15 0 -8 6 -15 14 -15 17 0 45 -41 45 -66 -1 -11 2 -29 6 -41 10
-32 -12 -29 -54 7 -19 16 -37 27 -39 25 -3 -3 10 -37 28 -76 27 -59 31 -75 21
-95 -6 -13 -17 -24 -24 -24 -8 0 8 -23 34 -52 41 -44 48 -58 46 -90 -1 -21 -4
-38 -7 -38 -4 0 -19 12 -36 28 -16 15 -37 33 -46 40 -14 12 -16 10 -11 -10 3
-13 14 -42 25 -66 13 -27 18 -54 15 -75 -3 -18 -7 -41 -9 -52 -2 -13 5 -23 19
-30 26 -11 48 -62 31 -67 -7 -3 -8 -10 -4 -17 7 -11 10 -11 17 0 7 11 9 10 9
-3 0 -9 -3 -23 -6 -31 -8 -22 -63 1 -70 30 -3 12 -12 28 -20 34 -26 21 -29 -1
-6 -44 29 -56 40 -117 20 -117 -8 0 -19 5 -26 12 -9 9 -12 8 -12 -4 0 -9 19
-37 42 -63 81 -90 100 -141 51 -129 -44 11 -63 24 -73 50 -10 24 -30 33 -30
13 0 -6 11 -29 24 -52 33 -57 43 -132 20 -145 -15 -8 -11 -16 29 -58 36 -38
47 -56 47 -81 0 -43 -17 -42 -66 2 -20 19 -40 33 -42 30 -3 -2 5 -24 16 -48
27 -58 33 -130 11 -135 -10 -2 -19 6 -23 20 -5 15 -9 18 -13 10 -3 -8 9 -31
26 -52 17 -21 31 -48 31 -58 0 -15 5 -19 20 -15 13 3 20 0 21 -8 5 -59 5 -92
2 -81 -3 6 -10 12 -16 13 -7 0 -27 19 -46 42 -19 23 -31 33 -27 22 39 -104 45
-141 27 -173 -11 -21 -8 -27 28 -69 40 -44 52 -73 31 -73 -5 0 -10 -7 -10 -15
0 -23 -15 -18 -49 17 -37 38 -42 19 -11 -42 11 -22 20 -50 20 -64 0 -13 5 -26
12 -28 6 -2 8 -10 4 -16 -5 -9 -13 -9 -27 -1 -35 18 -31 4 16 -56 25 -32 45
-69 45 -81 0 -12 3 -29 6 -38 11 -29 -17 -17 -59 24 -22 22 -42 39 -44 36 -2
-2 7 -26 20 -53 13 -26 27 -65 31 -86 6 -34 5 -39 -13 -44 -31 -8 -26 -25 24
-72 25 -24 45 -49 45 -56 0 -7 3 -20 6 -29 11 -30 -39 -18 -69 15 -34 39 -45
31 -24 -18 26 -62 39 -113 33 -128 -9 -25 -33 -17 -46 15 -14 33 -40 60 -40
41 0 -17 79 -121 96 -128 24 -9 43 -55 33 -80 -10 -28 -21 -29 -56 -6 -26 18
-27 18 -19 -7 22 -72 29 -121 17 -133 -8 -8 -15 -6 -26 9 -14 18 -14 18 -15 0
0 -10 17 -33 38 -51 20 -18 45 -46 54 -62 16 -27 15 -30 -3 -53 l-19 -25 -24
27 c-13 15 -26 33 -29 40 -2 7 -8 9 -13 5 -5 -4 2 -28 15 -52 13 -24 21 -51
17 -60 -3 -8 -1 -26 4 -40 6 -15 6 -26 0 -30 -15 -9 -12 -43 4 -52 21 -12 56
-75 56 -100 0 -28 -11 -29 -35 -3 -10 11 -24 20 -32 20 -7 0 -13 5 -13 12 0 6
-3 9 -6 5 -4 -3 -1 -21 5 -39 18 -49 25 -138 12 -138 -21 0 -11 -37 19 -65 29
-28 40 -68 21 -79 -5 -3 -20 4 -35 15 -25 19 -26 20 -26 2 0 -11 5 -24 10 -29
13 -13 20 -144 8 -144 -19 0 -6 -33 23 -57 20 -17 29 -32 26 -45 -3 -10 -1
-21 4 -24 12 -7 11 -44 -1 -44 -5 0 -10 4 -10 10 0 18 -62 70 -107 90 -29 12
-45 44 -37 75 4 16 0 34 -10 50 -24 37 -20 46 14 34 16 -6 32 -19 35 -29 7
-22 35 -47 35 -32 0 6 -7 17 -15 26 -8 8 -15 18 -15 23 0 4 -11 35 -25 68 -13
33 -25 75 -25 93 0 20 -5 31 -12 30 -10 -2 -13 17 -13 70 0 41 4 72 10 72 6 1
11 -9 13 -20 3 -17 6 -19 18 -10 11 10 16 7 25 -14 7 -14 16 -26 21 -26 4 0 4
8 -2 18 -19 33 -40 95 -40 116 0 23 -22 92 -33 102 -10 11 -8 134 2 134 5 0
11 -7 15 -15 8 -22 40 -20 33 3 -4 9 -11 37 -18 62 -6 25 -17 59 -25 75 -18
41 -15 356 4 363 6 2 12 11 12 21 0 9 7 27 16 40 15 21 15 27 -1 78 -12 37
-16 72 -12 108 4 44 2 56 -14 71 -10 9 -19 21 -19 25 0 11 61 0 78 -14 9 -7
11 -5 6 9 -4 10 -10 24 -14 29 -32 45 -51 261 -23 272 7 3 20 0 28 -7 19 -16
19 -6 1 28 -37 73 -41 87 -39 169 1 47 4 88 7 91 3 3 17 0 31 -6 l25 -12 -24
38 c-33 52 -60 209 -43 246 9 21 17 25 35 21 27 -7 27 -7 -4 66 -19 47 -26 80
-27 145 -2 89 9 118 36 95 12 -10 13 -4 2 42 -7 29 -17 63 -24 75 -6 11 -11
55 -11 97 0 68 2 77 20 82 26 7 26 35 0 88 -11 23 -21 63 -22 88 -1 26 -6 47
-10 47 -4 0 -8 17 -8 38 0 38 0 38 35 34 l36 -4 -22 41 c-12 23 -24 62 -27 87
-2 24 -8 44 -12 44 -4 0 -8 20 -8 45 -1 27 3 43 8 40 6 -3 10 -2 10 4 0 5 -4
13 -10 16 -5 3 -10 16 -10 28 0 13 3 17 8 11 4 -6 19 -14 34 -17 26 -7 26 -6
16 25 -5 18 -13 48 -18 66 -4 18 -13 39 -19 46 -6 7 -9 20 -5 29 3 8 1 18 -5
22 -11 6 -15 107 -5 118 3 3 17 1 31 -4 14 -5 28 -7 31 -5 2 3 -5 26 -17 51
-11 24 -21 57 -21 73 0 15 -7 37 -15 49 -16 23 -21 193 -5 193 11 0 21 -30 14
-41 -5 -8 45 -34 52 -27 1 2 -9 30 -22 62 -13 33 -24 65 -24 71 0 7 -7 18 -15
25 -19 16 -19 49 -1 56 11 4 13 12 6 29 -15 40 -22 105 -10 105 5 0 10 -11 10
-25 0 -14 3 -25 8 -26 4 0 15 -2 25 -4 21 -4 21 5 2 52 -8 19 -15 46 -15 58 0
12 -7 28 -15 35 -9 7 -14 19 -11 25 2 7 -1 18 -7 24 -14 14 -13 199 1 213 6 6
12 -13 17 -51 5 -43 11 -61 21 -61 19 0 29 27 16 43 -5 6 -15 30 -22 52 -7 22
-21 53 -31 70 -20 31 -24 87 -13 168 7 53 19 54 28 3 7 -35 31 -64 43 -52 4 4
0 29 -10 55 -9 27 -17 58 -17 69 0 11 -7 25 -15 32 -13 11 -15 8 -15 -16 0
-22 -3 -26 -10 -14 -10 16 -12 383 -3 513 6 86 20 92 25 12 3 -44 6 -50 23
-47 30 6 31 9 11 60 -10 26 -21 59 -23 75 -5 28 -23 38 -23 12 0 -8 -5 -15
-10 -15 -8 0 -10 103 -8 325 2 179 6 325 9 325 3 0 2 20 -4 43 -11 48 -1 157
14 157 5 0 14 -20 20 -44 10 -39 33 -65 47 -52 2 3 -7 28 -21 56 -14 28 -23
58 -20 66 6 17 -15 46 -28 38 -12 -7 -11 167 1 186 7 12 12 8 21 -17 6 -18 17
-33 25 -33 16 0 19 31 5 46 -11 12 -31 106 -25 116 3 5 0 7 -8 6 -16 -4 -24
54 -20 135 4 61 16 75 25 28 4 -17 14 -32 25 -35 10 -4 24 -18 31 -32 6 -15
14 -24 18 -21 3 4 -6 30 -20 59 -35 71 -46 122 -42 191 2 31 -1 57 -6 57 -5 0
-9 -10 -9 -22 0 -17 -3 -19 -12 -10 -8 8 -8 15 1 26 7 8 10 24 6 36 -4 14 -2
20 9 20 12 0 14 10 9 53 -3 33 -1 62 6 76 17 32 73 52 86 31z m-200 -252 c-2
-57 -5 -677 -6 -1378 -2 -701 -6 -1601 -10 -2000 -9 -1054 -19 -1900 -24
-2180 -2 -135 -7 -567 -11 -960 -3 -393 -9 -719 -13 -723 -7 -7 -111 70 -111
82 0 6 -20 6 -1200 -3 -415 -3 -1153 -8 -1640 -11 -487 -3 -1119 -8 -1405 -11
-719 -9 -1011 -11 -2590 -18 -759 -3 -1511 -9 -1672 -12 -290 -5 -291 -5 -298
16 -7 21 8 47 48 80 17 15 18 43 17 455 0 242 -2 514 -5 605 -2 91 -9 665 -15
1275 -6 611 -13 1198 -16 1305 -3 107 -6 204 -6 215 0 11 0 204 1 428 1 224
-2 413 -6 419 -3 7 -8 87 -9 178 -1 91 -5 173 -8 183 -14 40 -15 47 -6 47 5 0
8 59 7 133 -1 72 3 195 10 272 8 97 9 162 2 210 -9 68 -5 1342 4 1352 3 2 155
4 338 4 1562 -4 4971 -12 6522 -16 l1899 -5 26 27 c15 16 50 46 77 68 28 22
56 45 63 52 7 7 20 13 27 13 12 0 14 -19 10 -102z m-9097 -13 c-1 -28 -6 -45
-13 -45 -17 0 -25 37 -15 66 15 38 28 28 28 -21z m3 -286 c-2 -96 0 -154 7
-158 7 -4 8 -44 3 -116 -4 -61 -3 -170 3 -244 7 -101 6 -136 -2 -139 -7 -2
-12 -10 -12 -18 0 -8 -9 -14 -19 -14 -12 0 -26 15 -40 45 -27 58 -27 85 -1 85
15 0 20 7 20 25 0 16 -6 25 -16 25 -12 0 -14 5 -9 18 16 36 28 206 16 225 -8
12 -9 35 -5 65 4 26 8 94 9 152 2 198 2 200 28 200 l22 0 -4 -151z m-71 -400
c0 -105 -33 -104 -36 1 -1 75 4 94 22 79 10 -8 14 -33 14 -80z m-77 -239 c3
-11 1 -23 -4 -26 -5 -3 -9 6 -9 20 0 31 6 34 13 6z m77 -51 c0 -5 -7 -9 -15
-9 -9 0 -15 9 -15 21 0 18 2 19 15 9 8 -7 15 -16 15 -21z m87 -1 c-3 -8 -6 -5
-6 6 -1 11 2 17 5 13 3 -3 4 -12 1 -19z m4 -35 c0 -10 0 -67 -1 -128 -1 -60
-2 -143 -1 -184 1 -50 -2 -77 -11 -82 -10 -6 -10 -24 1 -91 19 -112 21 -219 4
-239 -9 -11 -10 -25 -4 -50 15 -56 22 -240 11 -254 -7 -8 -5 -24 5 -49 10 -25
14 -52 10 -84 -7 -58 -15 -386 -16 -671 0 -118 -4 -210 -9 -205 -4 5 -10 18
-12 29 -2 12 -13 21 -26 23 -20 3 -22 9 -21 55 0 29 3 46 6 40 11 -29 22 -9
26 50 2 34 7 72 11 84 6 15 2 27 -14 43 -22 22 -22 24 -6 51 16 28 16 29 -1
29 -15 0 -18 10 -20 72 -1 40 -7 74 -13 78 -8 5 -7 9 4 13 9 4 16 13 16 22 0
13 12 19 33 16 4 0 7 10 7 23 0 13 3 31 6 40 5 12 0 16 -21 16 -30 0 -29 -7
-10 91 5 26 3 40 -9 52 -20 20 -21 67 -1 93 19 25 19 34 -1 34 -13 0 -15 11
-13 63 1 34 -1 70 -5 79 -4 9 -3 25 3 35 9 16 10 16 11 -4 0 -13 5 -23 10 -23
13 0 13 87 0 95 -18 11 -11 45 11 54 20 7 20 8 -10 20 -17 8 -39 11 -50 8 -16
-4 -20 2 -23 32 -3 20 -1 39 4 42 6 4 7 30 3 62 -7 53 -6 55 14 50 18 -5 21
-1 21 24 0 17 -9 38 -20 48 -11 10 -20 31 -20 47 0 25 3 28 25 22 38 -10 32
20 -10 46 -23 15 -34 28 -31 39 2 9 7 32 10 52 4 20 20 52 36 70 l29 34 -26 5
c-25 5 -40 29 -37 60 1 8 2 20 3 27 0 6 10 15 21 18 11 3 20 13 20 21 0 8 8
14 19 14 13 0 20 9 25 30 6 32 35 42 37 13z m-61 -19 c0 -8 -5 -12 -10 -9 -6
4 -8 11 -5 16 9 14 15 11 15 -7z m-103 -336 c-3 -7 -5 -2 -5 12 0 14 2 19 5
13 2 -7 2 -19 0 -25z m-7 -413 c0 -8 -4 -15 -9 -15 -13 0 -22 16 -14 24 11 11
23 6 23 -9z m-211 -723 c-1 -52 22 -96 77 -150 48 -47 60 -66 70 -109 7 -29
11 -53 8 -53 -2 0 -18 13 -36 28 -36 32 -68 46 -68 32 0 -5 14 -30 32 -56 35
-52 54 -124 32 -124 -19 0 -72 48 -80 73 -4 12 -15 40 -25 62 -35 78 -51 340
-19 320 5 -3 9 -13 9 -23z m318 -294 c-3 -7 -5 -2 -5 12 0 14 2 19 5 13 2 -7
2 -19 0 -25z m-307 -68 c0 -17 80 -100 96 -100 18 0 59 -126 44 -135 -4 -2
-28 12 -54 32 -25 20 -48 34 -51 31 -3 -2 16 -35 41 -73 33 -51 44 -77 42
-100 -3 -30 -8 -32 -40 -20 -11 4 -18 3 -18 -4 0 -6 11 -13 25 -17 14 -3 25
-13 25 -22 0 -8 11 -30 24 -47 19 -25 23 -39 18 -60 l-8 -27 -31 26 c-53 44
-65 34 -32 -27 17 -32 33 -83 40 -128 6 -41 17 -93 24 -116 7 -26 8 -43 3 -43
-9 0 -48 28 -89 63 -9 8 -21 17 -27 21 -18 11 5 -44 28 -69 10 -11 28 -42 40
-69 34 -80 11 -101 -46 -41 -23 25 -36 51 -44 92 -6 32 -19 76 -29 98 -20 47
-23 156 -3 163 6 2 12 -3 12 -10 0 -18 68 -84 77 -75 3 4 -5 20 -19 35 -14 15
-33 54 -43 87 -9 33 -22 80 -30 105 -15 54 -20 210 -5 210 5 0 10 -4 10 -10 0
-5 5 -10 10 -10 11 0 14 49 4 74 -3 8 -11 13 -17 10 -14 -5 -21 136 -11 196
l7 35 13 -30 c7 -16 13 -37 14 -45z m9767 8 c-3 -8 -6 -5 -6 6 -1 11 2 17 5
13 3 -3 4 -12 1 -19z m0 -125 c-3 -10 -5 -4 -5 12 0 17 2 24 5 18 2 -7 2 -21
0 -30z m-9392 -248 c2 -66 8 -160 14 -210 7 -62 7 -103 -1 -132 -6 -25 -8 -86
-4 -150 8 -149 8 -161 -9 -193 -8 -15 -11 -31 -7 -34 9 -10 24 -170 26 -281 2
-154 -15 -540 -25 -549 -5 -6 -9 -26 -9 -45 0 -25 -3 -32 -11 -24 -7 7 -7 27
0 66 6 31 8 80 5 109 -4 39 -3 49 5 38 9 -13 11 -13 11 0 0 9 -5 21 -12 28 -9
9 -9 12 0 12 7 0 12 9 12 20 0 11 -6 19 -12 17 -9 -1 -14 24 -18 90 -7 118 -3
740 5 770 4 16 -1 26 -15 35 -28 18 -25 47 5 58 29 11 30 17 10 44 -20 26 -19
51 2 82 11 17 13 28 6 32 -6 4 -16 39 -23 79 -7 40 -16 70 -20 68 -9 -6 -24
45 -16 52 11 11 35 -7 39 -29 2 -13 5 4 6 36 1 47 -3 64 -19 81 -13 14 -18 28
-14 39 5 14 9 15 15 5 6 -10 9 -10 13 4 18 54 17 53 28 27 5 -14 11 -79 13
-145z m-165 -26 c0 -24 -23 -21 -28 4 -2 10 3 17 12 17 10 0 16 -9 16 -21z
m61 -142 c-8 -8 -11 -7 -11 4 0 20 13 34 18 19 3 -7 -1 -17 -7 -23z m52 -63
c-6 -16 -7 -16 -19 1 -11 14 -11 22 -2 32 10 12 13 12 20 -1 4 -8 5 -22 1 -32z
m-25 -60 c2 -16 -3 -23 -22 -26 -28 -6 -29 -4 -20 30 8 28 38 25 42 -4z m-88
-39 c0 -19 -4 -35 -9 -35 -5 0 -11 16 -13 35 -3 24 0 35 9 35 8 0 13 -13 13
-35z m-209 -176 c6 -43 16 -59 34 -59 7 0 16 -9 20 -19 7 -22 38 -36 57 -25 7
4 10 4 6 -1 -4 -4 -4 -13 1 -19 5 -6 12 -35 16 -63 9 -67 -11 -80 -55 -38 -38
36 -49 27 -16 -12 14 -17 30 -43 37 -59 12 -31 31 -136 30 -168 0 -11 5 -28
10 -38 7 -14 7 -23 -1 -33 -9 -11 -17 -9 -47 11 -20 13 -40 24 -45 24 -10 0
17 -56 32 -65 27 -16 53 -125 30 -125 -17 0 -71 60 -86 95 -8 19 -16 51 -17
72 -2 21 -9 49 -16 61 -7 13 -14 71 -17 130 l-5 107 23 -56 c24 -60 92 -147
102 -131 3 5 -9 29 -27 52 -45 60 -57 82 -57 107 0 12 -4 25 -10 28 -5 3 -10
20 -10 36 0 17 -6 42 -13 57 -11 24 -14 75 -9 150 3 35 26 21 33 -19z m209
-129 c0 -11 -2 -20 -4 -20 -2 0 -6 9 -9 20 -3 11 -1 20 4 20 5 0 9 -9 9 -20z
m0 -282 c0 -16 -3 -19 -11 -11 -6 6 -8 16 -5 22 11 17 16 13 16 -11z m-210
-172 c0 -38 56 -110 95 -123 25 -8 31 -17 38 -54 5 -24 13 -49 18 -55 5 -6 6
-14 2 -17 -13 -14 -38 -6 -64 19 -41 39 -55 26 -22 -21 42 -60 55 -89 51 -116
-2 -17 -8 -23 -21 -21 -15 3 -17 0 -8 -16 6 -11 17 -22 26 -26 8 -3 15 -16 15
-29 0 -13 4 -27 10 -33 12 -12 1 -54 -14 -54 -6 0 -22 9 -36 20 -46 36 -49 21
-10 -40 43 -64 50 -103 23 -119 -17 -9 -16 -11 5 -34 17 -18 21 -31 17 -50 -4
-14 -1 -35 5 -47 16 -30 4 -37 -23 -14 -12 11 -30 26 -39 33 -31 23 -22 -11
17 -69 33 -49 45 -102 27 -114 -32 -19 -102 102 -102 175 0 32 -3 40 -15 35
-12 -4 -15 5 -15 53 0 32 -3 79 -6 105 -9 60 10 61 36 2 10 -25 28 -50 39 -56
27 -14 26 -6 -4 34 -14 18 -25 41 -25 50 0 9 -9 36 -20 58 -21 44 -27 118 -9
118 6 0 3 7 -5 16 -16 16 -23 104 -8 104 4 -1 20 -19 35 -41 16 -23 30 -39 33
-36 2 2 -7 28 -21 58 -14 30 -25 66 -25 80 0 14 -7 48 -15 75 -15 49 -20 155
-9 167 9 9 24 -2 24 -17z m380 -602 c0 -15 -6 -24 -15 -24 -10 0 -15 10 -15
30 0 22 4 28 15 24 8 -4 15 -17 15 -30z m-371 -296 c11 -24 47 -73 80 -110 56
-61 61 -69 49 -88 -14 -21 -43 -27 -53 -10 -8 12 -25 13 -25 1 0 -5 16 -32 35
-61 35 -51 45 -102 24 -115 -18 -12 -87 71 -99 118 -5 23 -15 56 -21 72 -12
34 -25 235 -15 235 4 0 15 -19 25 -42z m9748 -40 c-2 -13 -4 -3 -4 22 0 25 2
35 4 23 2 -13 2 -33 0 -45z m-9753 -231 c6 -34 58 -110 109 -159 15 -15 27
-33 28 -40 0 -7 2 -23 5 -35 5 -30 -5 -29 -54 7 -23 17 -42 28 -42 25 0 -10
39 -83 64 -120 21 -31 23 -40 14 -66 l-10 -30 -30 28 c-39 36 -62 83 -77 158
-7 33 -16 65 -20 70 -11 16 -14 195 -3 195 5 0 13 -15 16 -33z m372 -24 c-10
-10 -19 5 -10 18 6 11 8 11 12 0 2 -7 1 -15 -2 -18z m-367 -284 c16 -45 83
-130 98 -125 8 3 15 -5 19 -22 3 -15 9 -35 15 -44 12 -24 11 -48 -3 -48 -6 0
-26 12 -45 26 -19 14 -37 23 -40 20 -3 -3 14 -31 37 -63 34 -44 44 -66 44 -97
1 -30 -3 -41 -14 -41 -22 0 -87 93 -100 144 -6 25 -16 57 -22 71 -15 37 -23
210 -10 210 5 0 15 -14 21 -31z m-6 -255 c-2 -26 42 -101 86 -143 39 -38 61
-78 61 -111 0 -21 -24 -27 -35 -10 -3 5 -15 15 -26 20 -29 16 -25 -13 9 -52
16 -18 34 -47 41 -65 21 -51 -4 -94 -36 -62 -6 6 -17 9 -24 7 -8 -3 1 -18 25
-44 35 -37 61 -96 45 -102 -4 -2 -21 4 -38 13 -26 13 -31 13 -31 2 0 -8 8 -25
19 -38 43 -55 53 -89 46 -149 -5 -46 -3 -63 10 -84 10 -14 14 -33 11 -42 -6
-15 -8 -15 -24 -1 -9 8 -30 19 -46 23 l-29 7 34 -47 c18 -26 37 -50 41 -52 11
-7 10 -92 -1 -99 -5 -3 -12 -1 -16 5 -3 5 -14 10 -23 10 -12 0 -9 -8 14 -33
33 -35 56 -81 47 -91 -13 -12 -40 -5 -58 14 -10 11 -22 20 -27 20 -17 0 -6
-22 33 -64 35 -39 41 -52 44 -101 4 -51 3 -58 -15 -62 -19 -5 -19 -8 -7 -27
20 -30 27 -65 15 -72 -5 -4 -23 4 -40 16 -16 12 -32 20 -34 17 -7 -6 18 -47
28 -47 16 0 7 -40 -11 -50 -31 -16 -40 -12 -56 23 l-15 32 6 -30 c3 -16 8 -42
10 -56 6 -27 -17 -56 -36 -44 -16 10 -13 151 5 168 11 12 12 16 2 20 -14 4
-21 514 -6 523 5 3 9 -7 9 -23 0 -15 7 -37 15 -47 9 -12 15 -15 15 -7 0 19
-22 94 -31 106 -15 21 -30 170 -21 210 l9 40 17 -37 c15 -35 36 -59 36 -41 0
4 -11 43 -25 86 -28 93 -49 220 -41 253 7 28 26 32 26 6 0 -10 7 -27 15 -38
14 -19 14 -19 15 3 0 12 -4 24 -9 27 -5 3 -11 23 -14 43 -3 21 -12 67 -21 103
-19 82 -22 204 -3 197 6 -2 11 -12 10 -23z m9494 -1166 c-3 -7 -5 -2 -5 12 0
14 2 19 5 13 2 -7 2 -19 0 -25z m-9122 -198 c5 -8 -39 -42 -70 -54 -5 -2 -7
-7 -3 -11 4 -4 26 -3 49 3 62 16 72 7 43 -36 -14 -20 -31 -40 -37 -44 -28 -18
-117 -37 -189 -40 -90 -4 -91 -11 25 104 55 55 74 68 100 68 18 0 39 5 47 10
19 12 27 12 35 0z m2555 -1 c23 0 24 -1 8 -13 -28 -21 -21 -35 19 -38 20 -2
38 -7 39 -13 2 -5 -9 -25 -24 -43 -31 -37 -110 -64 -194 -66 -25 -1 -50 -4
-54 -8 -12 -13 -46 -9 -42 5 3 6 31 34 64 60 32 26 65 60 72 75 19 37 43 54
67 47 11 -4 31 -6 45 -6z m1175 1 c3 -5 -9 -17 -27 -27 l-33 -18 40 -3 c60 -5
63 -16 17 -63 -34 -33 -51 -42 -87 -47 -25 -2 -48 -9 -51 -13 -7 -12 -44 -11
-44 1 0 14 -17 12 -56 -6 -19 -9 -37 -15 -39 -12 -7 7 46 61 87 88 21 14 45
40 55 57 13 25 27 35 58 42 55 12 73 13 80 1z m265 -7 c0 -2 -5 -13 -10 -24
-10 -17 -7 -19 28 -19 21 0 41 -3 45 -6 10 -11 -56 -85 -88 -98 -48 -20 -132
-29 -137 -14 -4 10 -13 9 -46 -1 -23 -8 -44 -12 -47 -9 -3 2 23 28 58 56 35
28 69 62 77 76 7 14 19 26 26 26 6 0 14 6 17 13 3 9 17 12 41 9 20 -2 36 -6
36 -9z m301 2 c0 -5 -9 -11 -21 -13 -20 -3 -27 8 -13 22 10 9 34 3 34 -9z
m299 5 c0 -6 -11 -16 -25 -22 -37 -16 -31 -28 14 -28 48 0 63 -18 33 -38 -12
-8 -22 -21 -22 -28 0 -8 -8 -14 -18 -14 -10 0 -22 -3 -26 -7 -4 -4 -30 -15
-59 -24 -29 -9 -60 -20 -69 -24 -13 -5 -20 -1 -26 14 -7 19 -9 20 -36 6 -54
-29 -49 -9 13 44 64 55 76 81 39 81 -15 0 -19 3 -12 10 6 6 40 12 76 14 36 2
74 9 85 15 23 13 33 14 33 1z m850 0 c0 -6 -6 -13 -14 -16 -23 -9 -6 -34 23
-34 14 0 32 -4 38 -8 30 -19 -51 -79 -132 -98 -16 -4 -40 -14 -52 -22 -27 -17
-55 -9 -47 13 8 21 -20 20 -54 -2 l-27 -18 29 38 c16 20 32 37 36 37 17 0 70
53 70 70 0 21 20 29 123 49 4 0 7 -4 7 -9z m287 -4 c1 -1 -10 -15 -24 -31
l-27 -28 39 6 c21 3 46 2 57 -4 18 -10 18 -11 -6 -30 -13 -10 -29 -19 -34 -19
-5 0 -12 -6 -15 -13 -6 -16 -109 -57 -143 -57 -13 0 -24 5 -24 10 0 15 -28 12
-54 -6 -14 -8 -27 -11 -30 -6 -6 10 106 122 123 122 6 0 13 11 17 25 8 34 31
45 79 38 22 -3 41 -6 42 -7z m1978 5 c19 -8 18 -9 -7 -21 -41 -19 -34 -30 16
-30 46 0 70 -15 41 -26 -9 -4 -22 -19 -30 -34 -21 -41 -126 -74 -204 -64 l-56
7 62 56 c33 31 63 65 65 75 2 12 17 24 43 32 49 15 46 14 70 5z m-7447 -13
c-3 -7 -17 -19 -31 -26 -32 -15 -26 -36 6 -26 12 4 41 8 64 9 50 2 48 -6 -15
-71 -34 -34 -49 -42 -93 -48 -29 -4 -60 -11 -70 -17 -10 -5 -40 -6 -69 -2
l-52 8 61 63 c34 34 61 68 61 75 0 18 39 39 60 32 11 -3 28 -2 37 4 25 14 45
14 41 -1z m592 4 c0 -4 -16 -16 -35 -26 -19 -11 -34 -20 -33 -22 2 -1 28 2 58
7 54 8 93 -3 57 -17 -9 -3 -17 -15 -17 -25 0 -37 -71 -75 -162 -87 -82 -10
-133 -11 -143 0 -3 3 24 31 60 62 37 33 65 66 65 77 0 19 14 25 75 32 56 7 75
7 75 -1z m280 -3 c0 -7 -8 -18 -17 -26 -16 -13 -13 -14 24 -9 23 3 44 2 48 -4
11 -17 -45 -91 -80 -106 -19 -7 -73 -17 -122 -20 -48 -4 -96 -11 -105 -16 -38
-19 -14 12 76 100 87 86 96 92 135 92 24 0 41 -5 41 -11z m280 1 c0 -3 -5 -12
-10 -20 -8 -12 -3 -16 23 -20 19 -3 33 -12 35 -21 5 -25 -54 -77 -101 -90 -23
-6 -62 -18 -86 -26 -41 -15 -45 -15 -57 2 -12 16 -17 17 -39 5 -62 -33 -23 20
91 122 54 49 66 55 103 54 22 0 41 -3 41 -6z m280 -15 c0 -21 5 -25 29 -25 37
0 48 -16 27 -39 -9 -10 -16 -22 -16 -27 0 -15 -61 -43 -115 -53 -27 -5 -58
-13 -67 -16 -9 -4 -25 -2 -35 3 -13 7 -28 6 -50 -3 -56 -24 -46 2 21 56 36 28
70 64 76 79 14 33 42 48 93 49 33 1 37 -2 37 -24z m297 7 c-24 -27 -21 -32 17
-32 19 0 38 -5 41 -10 8 -14 -30 -76 -53 -85 -44 -19 -173 -42 -178 -33 -6 10
-33 7 -66 -7 -13 -5 -18 -3 -18 9 0 9 4 16 8 16 16 0 122 107 122 124 0 11 9
16 28 17 35 1 85 9 91 15 14 14 21 1 8 -14z m290 0 c-25 -27 -21 -32 23 -32
22 0 40 -3 40 -6 0 -15 -42 -73 -64 -87 -21 -14 -113 -37 -161 -41 -11 0 -19
4 -17 12 3 15 -7 15 -38 -3 -66 -38 -52 -4 35 81 53 53 81 74 100 74 14 0 25
-6 25 -12 0 -7 7 -2 16 10 8 12 25 22 36 22 20 0 20 -1 5 -18z m583 7 c0 -4
-7 -12 -15 -19 -25 -21 -17 -31 19 -25 37 7 54 -6 33 -27 -7 -7 -16 -21 -20
-31 -11 -30 -94 -59 -182 -62 -44 -2 -88 -6 -97 -10 -10 -4 -18 -3 -18 2 0 11
87 93 99 93 5 0 21 20 35 45 l26 44 60 -2 c33 -1 60 -4 60 -8z m271 -2 c-22
-22 -12 -37 23 -37 19 0 37 -4 40 -9 8 -12 -53 -73 -89 -90 -37 -16 -116 -41
-132 -41 -18 0 -16 20 5 43 17 19 16 20 -8 7 -14 -7 -33 -19 -42 -27 -9 -8
-25 -13 -34 -11 -15 2 -9 11 26 43 25 22 66 61 91 87 42 41 52 47 89 46 30 0
39 -3 31 -11z m280 1 c1 -7 1 -19 0 -25 -1 -9 7 -11 27 -7 22 4 31 2 36 -11
11 -30 -42 -79 -119 -108 -84 -33 -105 -34 -105 -7 l0 20 -40 -20 c-25 -13
-40 -16 -40 -9 0 13 152 164 172 172 25 10 68 7 69 -5z m825 -3 c9 -8 12 -19
9 -25 -4 -6 11 -10 39 -10 49 0 60 -16 31 -40 -8 -7 -15 -18 -15 -25 0 -22
-81 -48 -160 -50 -41 -1 -83 -5 -92 -10 -11 -4 -18 -3 -18 3 0 9 30 37 99 92
17 14 31 32 31 40 0 13 20 26 58 39 2 1 10 -6 18 -14z m593 6 c9 -6 10 -11 2
-15 -23 -14 -10 -26 28 -26 51 0 58 -13 29 -49 -26 -33 -53 -47 -118 -60 -25
-5 -53 -12 -62 -16 -11 -4 -18 -3 -18 4 0 16 -31 13 -54 -4 -22 -17 -46 -20
-46 -6 0 6 27 30 59 55 33 25 65 59 72 75 17 39 76 62 108 42z m1171 -1 c0 -6
-8 -10 -17 -8 -12 2 -18 -3 -18 -17 0 -17 7 -20 47 -20 25 0 49 -3 52 -6 9 -9
-33 -59 -50 -59 -8 0 -14 -4 -14 -9 0 -4 -20 -14 -45 -21 -25 -7 -48 -17 -51
-21 -3 -5 -21 -9 -41 -9 -27 0 -34 3 -29 15 7 18 8 18 -45 0 l-43 -16 29 31
c17 17 44 40 61 51 18 11 39 35 48 53 10 21 25 36 39 39 43 8 77 7 77 -3z
m250 -26 c0 -8 20 -15 57 -20 l57 -7 -27 -21 c-15 -12 -27 -26 -27 -32 0 -10
-146 -64 -173 -64 -9 0 -17 7 -19 15 -2 12 -10 11 -45 -5 -24 -10 -43 -16 -43
-13 0 9 168 171 183 176 15 5 37 -11 37 -29z m278 8 c3 -16 10 -22 30 -23 15
-1 37 -4 50 -8 23 -6 23 -7 -16 -48 -28 -30 -51 -44 -78 -48 -22 -4 -51 -10
-66 -15 -18 -6 -30 -5 -34 1 -4 6 -21 8 -40 4 -20 -3 -34 -2 -34 4 0 5 26 31
59 58 32 26 65 61 74 76 20 33 50 33 55 -1z m335 11 c-3 -7 -9 -13 -14 -13 -5
0 -9 -4 -9 -9 0 -5 20 -12 45 -15 41 -7 44 -9 35 -26 -6 -11 -22 -23 -35 -26
-14 -3 -25 -12 -25 -19 0 -15 -110 -55 -152 -55 -20 0 -26 4 -22 15 8 19 -1
19 -31 -1 -48 -31 -45 -8 5 41 28 28 60 64 71 82 21 34 30 37 95 39 31 1 41
-3 37 -13z m282 7 c-3 -5 -15 -10 -25 -10 -36 0 -10 -29 28 -32 31 -2 36 -7
34 -23 -5 -31 -57 -73 -99 -80 -21 -3 -49 -11 -62 -16 -16 -6 -28 -6 -36 1 -8
7 -29 9 -52 5 l-38 -6 64 59 c36 33 61 63 57 70 -8 14 9 24 54 33 54 10 82 10
75 -1z m280 -6 c-10 -8 -23 -14 -28 -14 -4 0 -5 -4 -2 -10 3 -5 21 -10 38 -10
18 0 42 -3 55 -6 18 -5 20 -9 11 -20 -6 -8 -18 -14 -26 -14 -8 0 -25 -13 -39
-29 -18 -22 -38 -31 -88 -41 -35 -6 -73 -9 -83 -6 -10 3 -33 2 -51 -3 -17 -5
-32 -6 -32 -2 0 10 44 49 92 81 28 19 36 30 32 46 -7 27 22 40 90 41 45 1 48
-1 31 -13z m565 6 c0 -6 -9 -10 -20 -10 -11 0 -20 -4 -20 -9 0 -11 15 -16 75
-26 l40 -7 -30 -12 c-34 -15 -65 -46 -46 -46 7 0 21 5 32 10 21 12 26 -2 7
-18 -13 -10 -98 -34 -165 -46 -36 -6 -45 11 -18 34 27 22 7 23 -21 1 -26 -20
-54 -28 -54 -15 0 4 34 39 75 78 60 56 83 72 110 73 19 2 35 -2 35 -7z m267
-14 c-27 -20 -21 -26 28 -26 44 0 44 0 33 -25 -6 -14 -17 -25 -23 -25 -6 0
-17 -11 -23 -24 -9 -19 -25 -27 -83 -40 -39 -9 -74 -14 -77 -11 -3 2 3 14 13
25 23 25 11 26 -23 2 -15 -11 -38 -22 -52 -25 -19 -4 -10 8 41 56 36 34 69 73
74 86 6 19 12 22 38 17 18 -3 39 -1 47 4 21 13 28 1 7 -14z m303 15 c0 -5 -7
-11 -15 -15 -26 -9 -17 -26 14 -26 44 0 47 -18 10 -50 -22 -19 -29 -30 -19
-30 20 -2 -22 -18 -90 -36 -50 -14 -56 -14 -67 2 -10 14 -15 15 -27 5 -31 -26
-36 -5 -9 30 27 35 90 79 112 79 19 0 12 -22 -9 -27 -11 -3 -20 -12 -20 -21 0
-11 8 -8 30 13 18 17 28 35 25 45 -3 9 4 20 18 26 28 15 47 16 47 5z m566 -2
c4 -7 -1 -16 -10 -21 -27 -15 -7 -30 30 -23 21 3 34 2 34 -5 0 -5 -4 -10 -10
-10 -17 0 -50 -34 -50 -51 0 -26 -74 -49 -152 -46 l-68 2 48 46 c26 26 60 61
76 78 21 24 31 29 41 21 9 -7 16 -6 25 5 15 18 26 19 36 4z m-8607 -25 l-24
-25 53 7 c57 7 60 4 37 -43 -23 -46 -44 -58 -128 -76 -89 -19 -153 -22 -162
-6 -4 6 28 45 71 88 76 74 81 78 128 79 l49 2 -24 -26z m4591 16 c24 -8 21
-12 -9 -14 -8 -1 -16 -6 -18 -11 -2 -6 20 -9 57 -7 33 2 60 1 60 -3 0 -27 -35
-65 -77 -82 -108 -46 -124 -49 -135 -29 -8 14 -17 17 -47 11 l-36 -6 58 55
c31 31 57 62 57 70 0 24 41 32 90 16z m3708 -17 c7 -7 23 -13 35 -13 22 0 55
-16 47 -22 -3 -2 -22 -13 -42 -23 -21 -11 -38 -27 -38 -36 0 -17 -42 -32 -120
-44 l-45 -7 45 42 c38 34 41 40 20 34 -14 -3 -35 -19 -48 -35 -13 -16 -32 -29
-43 -29 -28 0 -17 16 70 93 74 66 88 71 119 40z m-4961 1 c-3 -3 -12 -4 -19
-1 -8 3 -5 6 6 6 11 1 17 -2 13 -5z m5407 -89 c-4 -10 1 -13 22 -12 19 1 29
-3 32 -14 4 -20 -48 -31 -96 -21 l-32 7 25 28 c27 29 58 37 49 12z"/>
<path d="M126 6963 c7 -28 34 -67 41 -59 5 5 -35 86 -42 86 -3 0 -2 -12 1 -27z"/>
<path d="M131 6680 c-1 -25 46 -106 56 -96 3 3 -5 19 -17 36 -12 17 -26 43
-30 58 l-8 27 -1 -25z"/>
<path d="M126 6383 c7 -47 27 -87 59 -113 13 -11 14 -10 8 6 -3 10 -15 31 -26
45 -10 14 -21 45 -24 67 -3 23 -10 42 -15 42 -5 0 -6 -20 -2 -47z"/>
<path d="M149 6023 c17 -32 70 -83 75 -74 3 4 -12 27 -34 50 -42 43 -57 52
-41 24z"/>
<path d="M615 8080 c-10 -11 -14 -20 -8 -20 5 0 18 9 28 20 10 11 14 20 8 20
-5 0 -18 -9 -28 -20z"/>
<path d="M2085 8099 c-10 -15 3 -25 16 -12 7 7 7 13 1 17 -6 3 -14 1 -17 -5z"/>
<path d="M2370 8089 c0 -5 5 -7 10 -4 6 3 10 8 10 11 0 2 -4 4 -10 4 -5 0 -10
-5 -10 -11z"/>
<path d="M3800 8094 c0 -9 5 -14 12 -12 18 6 21 28 4 28 -9 0 -16 -7 -16 -16z"/>
<path d="M7268 8101 c-36 -21 -36 -33 0 -25 34 8 49 21 37 33 -6 4 -22 1 -37
-8z"/>
<path d="M7557 8102 c-21 -23 -21 -32 -2 -32 8 0 15 5 15 10 0 6 7 10 16 10 9
0 14 5 12 12 -7 20 -23 20 -41 0z"/>
<path d="M7827 8093 c-4 -3 -7 -11 -7 -17 0 -6 5 -5 12 2 6 6 9 14 7 17 -3 3
-9 2 -12 -2z"/>
<path d="M4650 8074 c0 -14 3 -14 15 -4 8 7 15 14 15 16 0 2 -7 4 -15 4 -8 0
-15 -7 -15 -16z"/>
<path d="M5820 8090 c0 -5 5 -10 10 -10 6 0 10 5 10 10 0 6 -4 10 -10 10 -5 0
-10 -4 -10 -10z"/>
<path d="M8673 8071 c-10 -16 -9 -18 7 -14 21 6 36 33 17 33 -7 0 -18 -9 -24
-19z"/>
<path d="M9730 7808 c0 -9 5 -20 10 -23 13 -8 13 5 0 25 -8 13 -10 13 -10 -2z"/>
<path d="M9740 7170 c0 -5 5 -10 11 -10 5 0 7 5 4 10 -3 6 -8 10 -11 10 -2 0
-4 -4 -4 -10z"/>
<path d="M9665 6880 c-8 -13 4 -32 16 -25 12 8 12 35 0 35 -6 0 -13 -4 -16
-10z"/>
<path d="M9659 6753 c-7 -55 13 -103 53 -124 15 -8 17 -7 9 13 -5 13 -16 37
-25 53 -9 17 -16 38 -16 48 0 16 -19 25 -21 10z"/>
<path d="M9656 6453 c4 -10 9 -35 12 -55 3 -28 13 -44 39 -64 36 -28 37 -29
-1 43 -9 17 -16 40 -16 50 0 20 -18 43 -33 43 -5 0 -6 -8 -1 -17z"/>
<path d="M9740 6291 c0 -5 5 -13 10 -16 6 -3 10 -2 10 4 0 5 -4 13 -10 16 -5
3 -10 2 -10 -4z"/>
<path d="M9720 6022 c0 -5 7 -17 15 -28 15 -19 20 -8 9 20 -6 17 -24 22 -24 8z"/>
<path d="M9657 5910 c-4 -8 -3 -46 1 -85 5 -52 11 -70 22 -70 8 0 21 -4 28 -8
18 -12 15 8 -9 56 -12 23 -25 60 -29 82 -4 25 -9 34 -13 25z"/>
<path d="M9720 5421 c0 -5 7 -14 15 -21 16 -14 18 -10 9 14 -6 17 -24 22 -24
7z"/>
<path d="M9670 4494 c0 -8 5 -12 10 -9 6 4 8 11 5 16 -9 14 -15 11 -15 -7z"/>
<path d="M9727 2449 c4 -13 8 -18 11 -10 2 7 -1 18 -6 23 -8 8 -9 4 -5 -13z"/>
<path d="M9643 1446 c4 -10 7 -30 7 -44 0 -15 14 -43 30 -62 23 -28 28 -30 23
-13 -3 12 -11 28 -19 34 -8 6 -17 29 -20 51 -4 21 -11 41 -17 45 -6 4 -8 0 -4
-11z"/>
<path d="M9690 1021 c0 -5 5 -13 10 -16 6 -3 10 -2 10 4 0 5 -4 13 -10 16 -5
3 -10 2 -10 -4z"/>
<path d="M9265 7594 c-23 -12 -45 -14 -90 -10 -33 4 -143 6 -245 5 -102 -1
-194 -1 -205 0 -11 1 -99 1 -195 0 -255 -3 -305 -4 -410 -2 -52 1 -187 -1
-300 -4 -113 -3 -281 -8 -375 -10 -93 -1 -179 -4 -190 -4 -11 -1 -42 -1 -70 0
-27 2 -75 -2 -105 -7 -31 -5 -112 -6 -185 -2 l-130 7 -30 -30 c-27 -27 -34
-29 -81 -23 -35 4 -63 1 -87 -9 -23 -9 -51 -12 -82 -8 -32 4 -46 2 -41 -5 3
-6 19 -10 34 -10 43 1 95 -13 116 -31 14 -13 50 -17 180 -22 88 -3 152 -6 141
-7 -79 -7 -1417 -19 -3265 -28 -685 -4 -1252 -10 -1260 -15 -8 -4 190 -8 440
-8 1728 -1 2739 -5 2645 -11 -60 -4 -459 -8 -885 -9 -1492 -2 -3526 -12 -3589
-17 l-64 -6 6 -3186 c3 -1753 6 -3188 7 -3189 0 -2 9 -3 19 -3 16 0 21 10 27
48 4 26 10 39 12 29 3 -15 12 -17 60 -15 l57 3 0 725 c0 697 1 725 18 728 14
3 18 10 14 30 -6 30 12 74 27 69 6 -2 11 -12 11 -22 0 -27 41 -38 62 -16 19
19 54 36 143 71 30 12 57 25 60 29 3 5 32 16 65 25 33 9 96 32 140 50 44 18
107 44 140 56 33 13 83 34 111 46 28 13 73 28 99 34 27 6 53 14 59 18 6 3 20
6 31 7 16 0 21 9 27 48 8 58 14 66 31 43 10 -13 25 -16 72 -14 l60 3 22 60
c27 72 27 75 8 75 -8 0 -15 5 -15 10 0 6 7 10 15 10 18 0 29 -42 20 -78 -13
-52 -17 -112 -7 -112 19 0 31 27 26 61 -6 42 9 70 28 51 14 -14 28 -16 28 -3
0 5 27 66 60 136 33 70 60 129 60 132 0 3 -235 1 -522 -3 -709 -12 -873 -8
-903 23 -12 12 -15 60 -17 281 -1 288 -2 398 -11 1147 -5 415 -11 2367 -8
2446 l1 25 638 2 c350 1 972 1 1382 0 410 -1 862 -1 1005 -1 143 1 1303 1
2579 2 l2319 0 -6 35 c-5 30 -2 39 21 56 31 23 41 32 61 55 10 13 16 14 25 5
13 -13 12 -2048 -4 -4265 -14 -1982 -16 -2134 -24 -2143 -4 -4 -14 1 -21 12
-17 23 -64 48 -76 40 -5 -3 -9 30 -9 74 l0 79 -31 1 c-18 0 -37 6 -42 11 -6 6
-21 11 -34 11 -18 0 -23 -6 -23 -26 0 -23 3 -26 28 -22 26 4 28 2 24 -24 -4
-28 2 -32 46 -31 6 1 12 -5 12 -12 0 -10 -26 -13 -107 -13 -60 1 -335 -2 -613
-6 -455 -5 -502 -5 -472 9 29 14 44 35 23 35 -10 0 -91 105 -91 118 0 5 -17 9
-37 8 -35 -1 -40 2 -60 44 -25 52 -29 56 -72 90 -63 50 -91 80 -91 99 0 11 -7
27 -17 36 -15 15 -17 15 -25 1 -10 -17 -48 -22 -48 -6 0 5 -11 12 -25 16 -14
3 -25 10 -25 15 0 5 11 9 25 9 14 0 25 -4 25 -10 0 -5 10 -10 22 -10 20 0 21
1 3 20 -18 20 -70 50 -86 50 -5 0 -6 -7 -3 -15 4 -8 1 -15 -5 -15 -6 0 -11 6
-11 14 0 16 -34 31 -50 21 -21 -13 -49 7 -63 44 -9 21 -23 41 -31 44 -9 4 -16
13 -16 22 0 8 -4 15 -8 15 -5 0 -30 21 -57 47 -32 32 -55 47 -68 45 -15 -3
-18 0 -13 13 15 40 -39 155 -74 155 -30 0 -87 58 -94 95 -4 20 -10 44 -13 52
-5 12 -2 15 9 11 11 -5 14 -1 10 17 -7 40 13 60 87 84 38 12 78 29 88 37 10 7
30 14 46 14 16 0 27 5 27 14 0 18 22 26 69 26 24 0 47 8 61 20 17 15 32 19 50
15 28 -6 52 12 57 43 2 20 39 52 59 52 7 0 11 -6 8 -13 -5 -14 72 -37 122 -37
13 0 24 -4 24 -9 0 -5 -28 -8 -63 -8 -72 0 -107 -9 -107 -26 0 -9 36 -11 131
-10 92 1 129 -2 127 -9 -5 -14 -24 -25 -63 -34 -27 -7 -25 -8 25 -14 30 -4 65
-10 78 -14 15 -5 22 -3 22 5 0 10 3 10 12 1 7 -7 36 -12 64 -12 29 0 56 -4 59
-10 3 -5 -2 -10 -12 -10 -22 -1 55 -39 80 -40 9 0 17 -4 17 -10 0 -5 6 -10 14
-10 8 0 16 -5 18 -11 2 -5 39 -13 82 -16 73 -6 81 -9 115 -42 20 -20 57 -47
83 -60 40 -22 44 -27 31 -39 -11 -11 -42 -15 -118 -16 -114 -1 -122 -12 -25
-32 47 -9 76 -10 120 -2 52 10 62 9 92 -9 41 -24 136 -30 117 -7 -9 11 -9 14
1 14 21 0 90 -43 95 -59 3 -10 34 -24 82 -38 100 -27 140 -43 182 -70 18 -12
40 -19 47 -16 8 3 14 -1 14 -11 0 -9 8 -16 20 -16 11 0 48 -9 81 -20 34 -12
63 -20 64 -18 2 2 6 327 10 723 5 639 4 718 -9 701 -13 -16 -24 -17 -93 -11
-43 4 -136 8 -208 10 -85 2 -145 9 -174 19 -62 23 -269 40 -371 31 -187 -16
-177 -16 -184 8 -10 38 -7 90 8 106 30 35 51 221 26 236 -9 5 -17 32 -34 108
-4 18 -13 27 -25 27 -12 0 -29 17 -45 45 -15 25 -30 44 -34 42 -4 -1 -22 14
-39 33 -17 19 -35 32 -39 27 -4 -4 2 -17 14 -30 22 -23 30 -67 13 -67 -14 0
-23 -32 -12 -43 6 -6 13 -1 20 12 16 29 25 26 44 -15 13 -26 15 -40 7 -55 -6
-10 -10 -37 -8 -60 2 -43 2 -43 66 -24 31 10 29 -18 -3 -43 -14 -11 -25 -28
-25 -39 0 -22 -33 -45 -53 -37 -8 3 -17 -2 -20 -10 -4 -9 -11 -16 -17 -16 -15
0 -12 42 5 67 20 29 4 73 -35 95 -17 9 -30 24 -30 32 0 10 -6 13 -15 10 -8 -4
-15 -2 -15 4 0 13 -61 22 -80 12 -9 -5 -34 -4 -56 2 -49 13 -90 5 -96 -20 -4
-14 -18 -21 -54 -26 -51 -7 -68 1 -59 26 9 23 135 68 135 49 0 -6 5 -11 10
-11 27 0 5 30 -32 45 l-43 17 25 14 c32 17 81 18 105 0 16 -11 17 -17 7 -29
-10 -11 -10 -17 -2 -22 14 -9 27 3 32 30 2 15 12 20 36 21 18 1 38 6 44 12 7
7 19 7 36 1 17 -7 29 -6 36 1 7 7 5 10 -6 10 -9 0 -18 7 -22 15 -3 8 -17 20
-31 27 -27 12 -34 38 -11 38 8 0 21 -7 30 -15 8 -8 19 -15 25 -15 22 0 10 19
-25 41 -39 24 -164 39 -186 22 -7 -5 -47 -20 -88 -33 -41 -13 -85 -34 -97 -47
-12 -13 -27 -23 -32 -23 -17 0 -43 -58 -30 -66 6 -3 14 -2 18 4 3 6 19 14 34
17 16 4 31 14 34 21 6 16 53 19 53 4 0 -5 -8 -10 -18 -10 -10 0 -27 -8 -38
-18 -38 -35 -96 -63 -108 -53 -17 14 -116 -11 -116 -29 0 -8 81 -5 116 6 12 3
25 1 28 -4 3 -6 16 -8 29 -5 l22 6 -23 -22 c-18 -18 -28 -21 -49 -14 -54 18
-266 -35 -323 -81 -26 -21 -116 -53 -236 -85 -23 -6 -72 -32 -110 -57 -38 -25
-82 -51 -99 -57 -31 -13 -104 -13 -162 -1 -22 4 -33 2 -33 -5 0 -6 -12 -11
-26 -11 -19 0 -25 -4 -22 -17 2 -10 11 -17 20 -15 9 1 19 -2 23 -8 4 -6 -9
-10 -34 -10 -63 0 -70 -6 -63 -53 5 -38 4 -41 -11 -28 -10 7 -17 19 -17 26 0
19 -27 38 -35 25 -13 -20 -25 -9 -19 18 12 55 16 62 34 62 13 0 17 5 13 19 -3
10 0 22 6 25 11 7 -5 66 -19 66 -4 0 -10 23 -12 50 -2 32 1 50 8 50 6 0 19 9
29 20 10 11 15 20 12 20 -3 0 0 12 8 27 8 15 12 30 9 35 -7 11 -44 10 -44 -2
0 -5 -4 -10 -10 -10 -19 0 -10 40 20 93 17 30 30 68 30 86 0 27 4 32 30 38 20
4 30 11 30 24 0 41 87 51 207 23 37 -9 111 -20 163 -24 52 -4 126 -11 163 -15
48 -4 73 -3 83 6 11 9 20 9 40 0 19 -8 30 -9 39 -1 15 12 82 4 91 -11 8 -14
65 -11 83 4 9 8 47 24 84 36 104 33 137 49 137 65 0 8 6 19 14 23 7 4 41 61
75 127 47 91 67 143 87 230 14 61 32 131 39 156 8 25 17 63 21 85 4 22 22 89
41 150 19 60 38 136 42 169 8 57 7 62 -25 112 -19 29 -47 62 -63 73 -16 12
-33 32 -37 44 -4 12 -23 38 -43 57 -63 62 -94 104 -112 154 -10 26 -35 64 -56
84 -21 21 -69 75 -106 122 -38 47 -84 98 -103 113 -19 16 -46 50 -61 75 -26
46 -186 230 -229 265 -12 9 -27 17 -33 17 -30 0 -95 45 -126 88 -18 26 -43 53
-55 60 -11 7 -20 18 -19 25 3 27 -2 35 -26 41 -16 4 -27 16 -31 34 -12 57 -16
63 -30 58 -8 -3 -14 -1 -14 4 0 6 6 10 13 10 22 0 -16 20 -40 20 -35 0 -74
103 -88 231 -8 77 -27 126 -64 165 -17 19 -31 44 -31 55 0 13 -11 25 -35 35
-19 8 -35 18 -35 24 0 5 -20 23 -45 41 -25 18 -45 40 -45 49 0 12 -10 16 -37
16 -23 0 -76 18 -132 43 -52 23 -108 45 -125 48 -17 3 -67 15 -111 27 -156 44
-261 69 -320 77 -33 4 -89 15 -125 23 -36 9 -106 16 -157 16 -50 0 -94 4 -97
9 -9 14 -349 28 -556 22 -78 -3 -102 -7 -136 -27 -41 -23 -137 -62 -223 -90
-25 -8 -54 -23 -65 -33 -12 -11 -41 -25 -66 -32 -44 -13 -109 -69 -110 -96 0
-6 -13 -22 -29 -35 -15 -13 -47 -51 -69 -84 -23 -34 -56 -73 -74 -88 -84 -68
-154 -146 -173 -195 -11 -28 -23 -51 -27 -51 -3 0 -8 -10 -10 -22 -2 -17 -9
-22 -25 -20 -15 2 -40 -13 -77 -47 -31 -28 -63 -51 -71 -51 -9 0 -18 -6 -21
-14 -3 -8 -18 -20 -32 -26 -43 -17 -176 -103 -186 -119 -3 -5 -21 -12 -39 -15
-18 -3 -47 -16 -64 -29 -16 -12 -59 -35 -94 -51 -35 -16 -89 -42 -120 -58 -31
-15 -67 -28 -79 -28 -12 0 -38 -13 -57 -30 -18 -16 -39 -30 -45 -30 -21 0
-219 -102 -241 -124 -12 -12 -35 -40 -50 -63 -26 -38 -28 -47 -32 -182 -3 -82
-1 -159 5 -184 6 -23 13 -67 17 -97 3 -32 12 -59 21 -66 13 -10 13 -11 -2 -17
-20 -8 -21 -33 -1 -40 8 -4 14 -18 13 -34 -1 -56 23 -209 41 -258 10 -27 22
-63 27 -79 7 -23 25 -37 84 -67 41 -21 81 -39 88 -39 8 0 50 -15 95 -34 45
-18 129 -48 185 -66 57 -17 134 -48 170 -67 75 -39 277 -109 344 -119 23 -3
61 -14 83 -24 22 -10 53 -20 69 -22 26 -3 31 1 38 30 5 19 13 30 19 26 8 -4 9
1 4 16 -5 15 -2 25 6 31 24 15 29 10 19 -17 -6 -14 -10 -30 -10 -35 0 -15 59
23 65 42 7 21 -22 88 -46 108 -12 10 -21 32 -24 58 -4 38 -1 44 23 57 56 28
71 29 83 4 5 -13 19 -39 29 -58 11 -19 24 -52 30 -72 6 -21 20 -47 32 -58 12
-11 17 -20 11 -20 -6 0 -14 -27 -18 -60 -4 -33 -11 -63 -16 -66 -12 -7 -12
-34 1 -34 5 0 13 12 16 28 4 15 15 47 26 70 11 24 17 50 14 58 -3 9 -1 12 4 9
6 -3 10 -1 10 5 0 6 15 17 34 25 46 19 84 89 90 164 7 83 17 121 33 121 7 0
16 7 19 15 8 20 112 75 141 75 14 0 34 5 45 11 20 11 21 9 15 -21 -9 -42 12
-36 35 10 22 43 47 58 62 38 7 -9 30 -15 64 -15 39 -1 57 -6 66 -18 9 -12 15
-14 20 -7 4 7 16 6 36 -6 36 -21 47 -12 25 22 -10 15 -13 26 -6 26 6 0 16 -9
23 -20 7 -11 24 -20 37 -20 27 0 50 -25 51 -56 0 -11 15 -41 34 -65 19 -24 46
-66 60 -94 25 -49 25 -50 5 -53 -11 -2 -28 3 -37 11 -26 22 -148 21 -163 -1
-10 -16 -10 -15 -5 1 5 14 3 16 -12 7 -75 -46 -89 -51 -138 -53 -30 -1 -54 -4
-55 -7 -4 -17 -5 -80 -2 -80 10 0 51 25 86 52 22 18 44 28 53 24 8 -3 36 -1
61 5 54 14 143 -3 169 -33 20 -21 21 -21 -44 -8 -31 5 -62 6 -79 0 -15 -4 -45
-11 -65 -15 -55 -9 -65 -34 -32 -82 27 -40 47 -50 105 -52 23 -1 39 -7 43 -16
6 -15 35 -19 72 -9 17 4 20 13 20 47 -1 39 1 42 26 42 16 1 24 -3 20 -10 -3
-5 -7 -25 -8 -43 -1 -32 0 -33 30 -26 40 8 39 6 22 39 -19 36 -8 55 15 27 22
-28 39 -28 39 -2 0 11 7 23 15 26 20 8 19 26 -6 68 -19 33 -26 54 -28 84 -1 6
-12 12 -26 12 -21 0 -25 5 -25 30 0 33 6 36 34 15 31 -23 43 -18 49 22 5 29 2
42 -19 66 -14 16 -27 42 -30 57 -5 20 -17 31 -50 45 -46 19 -94 65 -94 90 0 7
-13 24 -28 37 -46 39 -46 45 5 68 27 12 61 28 76 36 39 19 43 19 97 -20 32
-23 55 -33 69 -29 27 7 93 -42 89 -66 -4 -22 26 -59 84 -103 56 -43 138 -111
183 -153 103 -96 135 -129 135 -137 0 -5 -13 -15 -30 -21 -16 -6 -30 -17 -30
-24 0 -7 -5 -13 -10 -13 -6 0 -25 -23 -43 -52 -32 -49 -33 -54 -25 -107 5 -31
8 -126 6 -211 -3 -136 -6 -160 -25 -199 -21 -42 -21 -46 -6 -78 11 -25 22 -33
42 -33 14 0 37 -9 51 -19 21 -17 23 -22 13 -43 -7 -12 -13 -32 -15 -43 -2 -12
-19 -27 -41 -38 -20 -9 -37 -21 -37 -25 0 -5 -27 -9 -60 -10 -44 -1 -71 4
-101 20 l-42 21 27 20 c14 10 26 25 26 32 0 20 39 26 49 7 16 -28 24 -5 10 27
-18 39 -43 40 -59 1 -15 -37 -41 -61 -47 -42 -3 6 -11 12 -19 12 -8 0 -14 6
-14 14 0 8 -10 16 -22 18 -14 2 -22 9 -20 18 3 12 1 13 -10 2 -10 -10 -10 -16
1 -33 19 -31 0 -45 -37 -30 -16 7 -41 9 -56 5 -16 -4 -35 -1 -49 8 -12 8 -34
18 -49 22 -23 5 -28 3 -28 -13 0 -11 12 -34 26 -51 36 -42 23 -53 -67 -54 -70
-1 -104 -17 -59 -29 26 -7 26 -27 0 -27 -11 0 -20 6 -20 14 0 8 -7 17 -16 20
-13 5 -12 10 8 35 13 17 30 30 39 30 9 1 24 12 33 26 9 14 23 25 31 25 8 0 15
5 15 10 0 29 -109 -8 -117 -40 -3 -10 -16 -23 -29 -31 -19 -10 -24 -18 -19
-36 3 -13 2 -23 -2 -23 -5 0 -28 -20 -53 -45 -25 -24 -49 -44 -53 -45 -14 0
-96 40 -102 51 -4 6 -13 8 -20 5 -7 -2 -22 2 -34 10 -18 13 -22 13 -42 -7
l-21 -21 23 -24 c42 -45 17 -43 -84 8 -32 16 -31 0 2 -30 24 -21 56 -35 120
-50 92 -22 136 -21 205 4 33 13 41 13 55 1 9 -9 51 -17 101 -21 52 -4 91 -12
101 -21 12 -12 22 -13 47 -4 22 7 36 7 50 0 26 -14 112 -3 135 17 9 8 17 23
17 32 0 17 36 57 44 49 11 -11 46 -103 46 -120 0 -16 7 -19 41 -19 53 0 150
-25 192 -50 18 -11 43 -33 54 -49 12 -16 44 -39 70 -51 26 -13 54 -28 62 -34
7 -6 28 -9 45 -8 26 3 34 -2 44 -22 8 -18 16 -24 28 -19 15 6 16 0 11 -50 -3
-37 -12 -62 -26 -76 -20 -20 -21 -20 -31 -1 -6 11 -19 20 -29 20 -9 0 -28 11
-41 25 -15 16 -34 25 -55 25 -17 0 -41 7 -53 16 -13 9 -67 38 -122 64 -97 48
-100 49 -169 43 -62 -5 -76 -3 -126 21 -31 14 -76 27 -101 28 -44 1 -68 14
-76 40 -4 10 -8 10 -21 -1 -9 -7 -14 -18 -11 -23 4 -6 -2 -8 -12 -6 -11 2 -23
13 -29 26 -7 15 -15 20 -25 15 -8 -4 -34 -6 -57 -5 -36 2 -48 -3 -74 -28 -18
-16 -36 -30 -40 -30 -5 0 -9 -5 -9 -12 0 -7 -21 -34 -47 -60 l-46 -47 35 -73
c20 -40 39 -84 43 -97 4 -13 19 -37 34 -52 14 -16 33 -37 42 -48 16 -18 107
-52 179 -66 19 -4 54 -16 77 -27 35 -16 55 -19 110 -14 38 4 88 7 113 7 87 -1
105 6 119 44 15 42 4 68 -39 90 -18 9 -30 24 -30 35 0 21 -14 32 -44 37 -66 9
-97 16 -102 24 -3 5 -18 9 -35 9 -20 0 -29 5 -29 16 0 19 19 56 34 66 16 11
60 10 72 -2 7 -7 21 -7 42 1 43 15 148 -3 182 -31 48 -39 114 -63 196 -71 45
-4 90 -12 100 -17 23 -12 58 -96 50 -117 -3 -8 -14 -15 -25 -15 -15 0 -22 -9
-26 -37 -11 -64 -16 -73 -36 -73 -12 0 -19 -7 -19 -19 0 -20 -18 -31 -51 -31
-18 0 -49 -54 -49 -86 0 -8 -12 -32 -26 -54 -21 -31 -25 -47 -20 -73 6 -30 3
-37 -21 -53 -16 -11 -39 -21 -53 -24 -21 -5 -25 -11 -22 -39 2 -33 2 -33 -31
-27 -42 8 -73 -20 -63 -58 6 -26 138 -146 160 -146 8 0 19 -6 25 -14 7 -8 27
-22 46 -31 19 -9 35 -20 35 -25 0 -12 -47 -13 -54 -1 -3 5 -23 12 -43 16 -21
4 -44 11 -50 17 -7 6 -28 12 -48 15 -29 4 -34 2 -29 -11 4 -10 -3 -19 -20 -27
-22 -10 -30 -9 -61 12 -19 13 -35 30 -35 38 0 7 -10 35 -22 61 -20 44 -23 47
-33 27 -15 -29 -32 -32 -40 -5 -4 13 -14 39 -23 58 -8 19 -16 53 -17 75 -1 22
-3 50 -4 61 -1 23 -46 74 -65 74 -19 0 -59 -99 -52 -130 10 -51 -9 -129 -38
-159 -18 -19 -23 -30 -15 -33 11 -4 0 -28 -28 -67 -6 -8 -53 42 -53 56 0 7 7
13 15 13 8 0 15 -7 15 -16 0 -8 4 -12 10 -9 16 10 12 21 -15 35 -21 11 -25 21
-25 57 0 29 -5 46 -15 49 -21 8 -95 -47 -94 -71 0 -17 2 -16 11 5 l11 25 5
-24 c2 -15 -2 -28 -11 -32 -8 -5 -17 -20 -21 -33 -4 -16 -23 -32 -62 -50 -59
-28 -86 -26 -60 3 9 10 13 21 9 24 -3 4 3 17 14 30 28 30 45 65 38 77 -8 13
-45 13 -45 1 0 -17 -67 -51 -99 -51 -18 0 -46 7 -62 16 -17 8 -37 13 -45 10
-8 -3 -17 1 -20 9 -4 8 -10 15 -15 15 -12 0 -11 -57 1 -80 12 -23 2 -82 -14
-77 -22 6 -47 71 -41 104 4 21 0 44 -10 64 -16 29 -20 31 -57 26 -57 -8 -66
-28 -42 -91 8 -21 -19 -21 -36 -1 -7 8 -18 15 -25 15 -16 0 -25 23 -25 64 0
18 -6 38 -12 45 -11 10 -9 15 6 27 27 19 46 18 46 -4 0 -25 20 -42 48 -42 23
0 24 3 19 41 -8 62 -32 82 -88 76 -32 -4 -57 0 -87 13 -54 24 -63 57 -33 111
12 21 22 42 22 46 -1 5 17 8 39 8 40 0 78 23 53 32 -26 9 6 43 40 43 40 1 64
18 73 55 6 26 5 28 -17 21 -13 -4 -30 -8 -36 -8 -7 -1 -14 -6 -14 -12 -4 -24
-17 104 -18 166 -1 71 -15 95 -31 54 -17 -46 -40 -31 -42 29 -1 36 -18 29 -18
-7 0 -10 -4 -18 -10 -18 -13 0 -58 -49 -76 -82 -7 -15 -23 -29 -34 -33 -25 -8
-25 -14 0 -43 15 -19 23 -21 37 -13 11 6 13 11 5 11 -32 0 2 18 45 23 27 4 60
9 75 13 24 5 26 4 21 -16 -4 -17 -11 -20 -29 -16 -14 4 -29 0 -40 -11 -10 -10
-38 -26 -62 -35 -50 -19 -46 -21 -88 40 -21 29 -32 28 -40 -3 -4 -16 -13 -25
-25 -25 -16 0 -18 6 -13 45 3 28 1 45 -6 45 -5 0 -10 -7 -10 -15 0 -33 -70 -4
-132 56 -56 54 -68 59 -68 29 0 -11 -5 -20 -11 -20 -7 0 -8 11 -4 29 5 24 2
32 -16 41 -17 10 -24 9 -36 -3 -13 -13 -13 -18 0 -43 8 -16 19 -51 26 -78 7
-27 21 -66 31 -86 23 -46 98 -106 163 -131 30 -12 34 -24 12 -37 -14 -7 -13
-11 5 -27 11 -10 20 -31 20 -48 0 -16 5 -48 11 -71 6 -22 15 -59 21 -81 6 -22
18 -45 28 -52 10 -7 23 -26 29 -43 l10 -31 -33 36 c-18 19 -41 35 -50 35 -9 0
-16 7 -16 16 0 9 -13 36 -30 61 -16 24 -30 49 -30 55 0 6 -5 40 -11 74 l-11
63 -26 -12 c-15 -6 -29 -12 -31 -14 -2 -2 -3 -33 -2 -69 2 -73 -14 -82 -25
-13 -7 44 -24 63 -24 27 0 -13 7 -59 15 -103 19 -106 19 -108 -6 -100 -24 8
-50 -20 -42 -45 3 -9 2 -11 -4 -4 -4 6 -15 13 -24 16 -17 7 -28 52 -30 128 -1
25 -5 2 -9 -51 -5 -82 -10 -99 -30 -119 l-24 -24 23 -10 c14 -6 21 -17 19 -30
-1 -12 3 -31 10 -43 26 -48 16 -62 -112 -153 -12 -8 -27 -23 -34 -32 -7 -10
-20 -18 -28 -18 -8 0 -14 -8 -14 -18 0 -18 -71 -102 -87 -102 -4 0 -31 -22
-60 -48 -71 -64 -119 -102 -129 -102 -12 0 -49 -41 -57 -63 -4 -10 -11 -16
-17 -12 -5 3 -20 -12 -34 -34 -34 -53 -162 -181 -182 -181 -11 0 -14 -5 -10
-16 3 -9 -1 -25 -9 -37 -13 -19 -15 -20 -15 -3 0 23 -50 103 -69 111 -29 12
-34 -13 -11 -59 22 -47 21 -76 -3 -76 -16 0 -68 54 -93 97 -10 18 -24 33 -31
33 -17 0 -33 41 -34 83 -1 70 -13 70 -48 2 l-34 -64 14 -62 c8 -34 19 -68 26
-75 10 -9 9 -15 -2 -24 -11 -9 -21 -7 -45 10 -16 12 -34 29 -39 39 -6 9 -17
99 -26 199 -26 301 -54 447 -86 447 -11 0 -14 -28 -16 -144 -1 -88 -5 -147
-12 -154 -6 -6 -11 -9 -12 -7 0 3 -2 30 -4 60 -5 68 -12 87 -48 130 -33 39
-52 34 -77 -18 -19 -41 -32 -36 -47 18 -16 54 -27 67 -46 52 -7 -6 -24 -11
-38 -10 -106 7 -117 -5 -129 -138 -23 -234 -40 -366 -51 -380 -5 -6 -11 -74
-12 -152 l-4 -140 35 -4 c19 -3 92 -3 161 -2 69 1 154 3 188 3 65 0 83 10 57
32 -12 10 -22 10 -48 1 -43 -16 -79 -15 -74 1 6 16 128 28 146 15 6 -6 12 -19
12 -29 0 -16 12 -18 128 -21 70 -2 625 -2 1234 -1 964 1 1238 5 1238 19 0 3
-49 121 -62 150 -6 12 -8 30 -6 40 4 16 7 15 16 -8 6 -16 16 -28 22 -28 5 0
10 -9 10 -21 0 -26 16 -55 34 -62 11 -5 12 1 3 31 -6 20 -17 44 -24 53 -7 8
-13 25 -13 37 0 15 -6 22 -20 22 -11 0 -22 -1 -24 -2 -2 -2 -13 6 -25 16 -22
20 -28 51 -11 61 7 4 6 13 -2 27 -7 11 -22 36 -34 56 -12 23 -38 46 -65 60
-50 27 -61 40 -53 63 2 9 -9 42 -26 72 -16 30 -30 61 -30 69 0 8 -14 36 -32
64 -59 90 -93 186 -86 240 l4 29 12 -28 c20 -47 62 -77 99 -71 39 7 76 -3 67
-19 -5 -8 -2 -8 7 0 19 18 37 16 66 -7 32 -25 51 -26 49 -2 -1 12 5 16 21 15
16 -2 30 10 55 50 l33 52 3 -43 c3 -45 16 -55 27 -22 10 32 23 14 30 -44 4
-29 10 -58 14 -65 10 -16 44 -2 37 16 -7 18 22 29 36 15 8 -8 7 -13 -5 -18
-31 -12 -19 -31 19 -30 28 1 39 7 45 24 5 12 11 22 14 22 14 0 75 -53 80 -70
3 -10 18 -33 33 -52 37 -45 83 -49 137 -12 57 38 115 64 149 64 16 0 53 13 83
30 66 37 85 38 51 3 -32 -34 -47 -93 -25 -93 9 0 17 4 19 9 5 15 48 -7 48 -25
0 -12 -6 -15 -21 -11 -22 6 -58 -25 -59 -50 0 -21 17 -15 23 7 6 25 27 26 27
2 0 -11 -14 -25 -36 -35 -30 -15 -35 -21 -30 -41 3 -14 2 -35 -3 -48 -5 -14
-4 -29 2 -39 7 -12 5 -21 -12 -38 -12 -12 -21 -16 -21 -8 0 6 -5 4 -11 -5 -5
-10 -18 -18 -28 -18 -11 0 -37 -24 -62 -57 -24 -32 -50 -62 -56 -66 -7 -4 -13
-14 -13 -22 0 -16 -40 -80 -66 -107 -20 -21 -39 -52 -55 -91 -15 -37 -44 -47
-139 -47 -43 0 -81 -4 -84 -8 -4 -7 2155 -15 3409 -13 110 0 214 -3 230 -8 39
-12 44 -12 -1245 -16 -4411 -15 -6103 -25 -6140 -36 -27 -8 754 -14 1420 -11
369 2 490 -2 477 -15 -8 -7 -449 -14 -1189 -16 -383 -2 -700 -6 -704 -10 -4
-4 240 -7 542 -7 447 -1 1638 0 1759 0 17 0 183 -2 370 -4 187 -3 371 -5 408
-5 47 -1 66 -4 61 -12 -4 -7 -51 -10 -133 -10 -138 1 -747 -4 -1466 -13 -253
-3 -482 -6 -510 -6 -35 0 -46 -3 -35 -10 11 -7 12 -12 3 -21 -16 -16 -47 -3
-39 16 5 13 -14 15 -126 15 -72 0 -129 -2 -127 -5 3 -2 52 -6 109 -9 58 -3
107 -5 109 -6 2 0 -2 -7 -9 -15 -13 -16 -105 -22 -114 -7 -6 9 -172 6 -248 -6
-31 -5 -63 -5 -71 -1 -17 10 -208 6 -225 -5 -6 -4 -31 -2 -54 5 -31 8 -43 8
-46 0 -2 -7 -33 -11 -78 -11 -59 0 -74 3 -74 15 0 19 -20 19 -44 2 -17 -13
-18 -14 -2 -20 27 -10 9 -27 -29 -27 -20 0 -35 6 -39 15 -8 23 -34 18 -63 -11
-21 -21 -23 -28 -12 -35 19 -12 73 -11 85 1 7 7 19 7 35 2 13 -6 143 -10 289
-11 747 -5 1300 -11 1342 -17 33 -4 57 -1 79 10 19 10 36 12 43 7 21 -16 193
-22 876 -27 1120 -9 3266 -11 3395 -3 190 11 414 12 1749 10 241 0 441 -3 444
-5 2 -3 13 -1 23 5 10 5 29 7 42 4 15 -4 28 -1 37 10 11 14 11 21 -4 46 -9 16
-19 48 -22 71 -7 53 -12 62 -29 48 -11 -9 -23 -8 -49 1 -41 15 -51 35 -37 73
14 34 17 187 7 253 -7 44 -6 54 7 59 9 3 23 -1 31 -9 20 -20 37 -97 26 -116
-8 -14 -9 -14 -14 -1 -3 8 -7 26 -9 40 -2 14 -5 -26 -6 -88 0 -62 -6 -122 -11
-132 -12 -22 0 -33 24 -24 18 7 22 49 6 59 -12 7 -13 85 -1 103 13 21 20 -6
15 -60 -2 -30 1 -50 10 -57 11 -9 15 -6 20 14 4 14 3 37 0 51 -5 18 0 34 15
55 23 31 21 64 -5 106 -11 18 -12 27 -2 48 8 19 9 28 1 33 -12 8 -22 172 -11
172 5 0 8 -6 9 -12 3 -34 17 64 18 118 0 34 1 66 2 70 1 5 -1 17 -6 27 -10 25
-1 205 11 217 13 13 7 156 -7 182 -5 9 -9 41 -10 70 0 29 -4 62 -8 72 -4 10
-3 44 2 75 5 31 10 88 11 127 2 39 7 77 11 85 5 7 10 439 11 959 2 520 6 1224
9 1565 12 1298 13 2605 1 2605 -6 0 -24 -7 -41 -16z m-2222 -171 c-13 -2 -33
-2 -45 0 -13 2 -3 4 22 4 25 0 35 -2 23 -4z m-2168 -113 c1370 -1 2540 -6
2600 -10 l110 -7 -80 -2 c-241 -7 -757 -10 -2300 -15 -3021 -11 -4190 -18
-4198 -26 -8 -7 -11 -4238 -4 -5284 2 -286 0 -510 -4 -499 -7 18 -11 399 -24
1958 -9 1018 -13 3545 -6 3720 6 156 6 159 29 165 13 3 330 4 705 4 375 -1
1803 -3 3172 -4z m3110 -11 l90 -3 -100 -6 c-55 -3 -165 -4 -245 -1 l-145 6
115 6 c63 3 133 4 155 3 22 -1 81 -4 130 -5z m183 -6 c-15 -2 -42 -2 -60 0
-18 2 -6 4 27 4 33 0 48 -2 33 -4z m105 0 c-13 -2 -35 -2 -50 0 -16 2 -5 4 22
4 28 0 40 -2 28 -4z m-3184 -497 c19 -23 10 -71 -14 -71 -16 0 -20 -7 -22 -37
-1 -21 2 -38 6 -38 5 0 12 -12 16 -27 7 -30 23 -53 35 -53 5 0 27 16 51 36 39
33 44 34 55 19 12 -16 15 -16 44 5 27 19 39 21 87 15 91 -11 153 -44 206 -110
45 -54 47 -60 47 -118 0 -34 -6 -85 -14 -113 -11 -42 -11 -55 0 -75 25 -44 17
-90 -21 -132 -30 -32 -38 -36 -55 -27 -16 9 -20 8 -20 -5 0 -19 -4 -19 -40 0
-27 14 -30 14 -41 -6 -6 -12 -9 -35 -6 -53 2 -17 -1 -47 -8 -67 -14 -38 -5
-62 20 -53 16 7 27 -58 11 -69 -17 -13 -136 1 -163 19 -20 13 -24 21 -18 42
14 55 17 112 6 112 -6 0 -11 -4 -11 -10 0 -5 -6 -10 -14 -10 -18 0 -29 -48
-20 -84 6 -24 4 -26 -26 -26 -31 0 -32 1 -27 33 14 82 19 210 8 203 -6 -4 -11
-28 -11 -54 0 -62 -11 -123 -20 -117 -4 2 -5 16 -3 29 l5 25 -53 -20 c-30 -12
-68 -24 -85 -29 -28 -7 -72 -34 -144 -89 -14 -11 -45 -21 -70 -23 -45 -3 -45
-3 -48 31 -2 19 -10 44 -18 55 -17 25 -18 70 -1 84 6 5 26 13 44 16 27 6 34 3
49 -19 20 -30 46 -28 124 7 80 36 140 51 156 37 22 -18 44 7 44 52 0 37 -1 39
-33 39 -41 0 -75 24 -91 62 -18 42 -10 71 34 118 42 46 63 121 38 137 -22 13
-43 54 -66 128 -16 51 -34 83 -67 120 -33 36 -45 57 -43 75 3 21 8 25 35 24
23 -1 34 3 38 16 9 28 46 40 76 24 14 -7 31 -19 38 -28z m761 -226 c11 -21 20
-47 20 -56 0 -9 7 -22 15 -28 8 -6 17 -24 20 -41 5 -26 2 -33 -27 -49 -75 -44
-126 -66 -180 -77 -32 -6 -63 -18 -69 -25 -16 -20 -32 -17 -24 4 4 9 8 22 9
29 1 7 21 26 44 43 23 16 42 37 42 45 0 9 7 18 15 21 8 4 15 17 15 29 0 13 5
27 10 30 6 3 10 14 10 24 0 16 61 91 74 91 3 0 15 -18 26 -40z m-334 -568 c6
-4 29 -38 50 -76 31 -55 48 -74 84 -93 51 -27 60 -38 53 -64 -7 -26 -28 -41
-60 -43 -37 -2 -53 -13 -53 -37 0 -16 -5 -18 -27 -13 -46 11 -60 22 -67 50 -5
18 -2 32 7 41 12 12 10 24 -12 86 -14 40 -29 74 -33 75 -4 2 -8 21 -8 43 0 36
2 39 28 39 15 0 32 -4 38 -8z m-376 -152 c0 -11 -4 -20 -10 -20 -5 0 -10 9
-10 20 0 11 5 20 10 20 6 0 10 -9 10 -20z m4027 -52 c-3 -7 -5 -2 -5 12 0 14
2 19 5 13 2 -7 2 -19 0 -25z m-3570 -374 c-3 -3 -12 -4 -19 -1 -8 3 -5 6 6 6
11 1 17 -2 13 -5z m138 -24 c3 -5 23 -10 43 -11 35 0 36 -1 12 -10 -26 -11
-100 6 -100 23 0 11 38 10 45 -2z m-536 -16 c2 -2 -10 -4 -27 -4 -18 0 -32 5
-32 10 0 9 47 4 59 -6z m-244 -41 c-16 -27 -24 -55 -21 -67 3 -12 -2 -30 -12
-42 -14 -18 -31 -23 -94 -26 -66 -4 -79 -8 -101 -31 -13 -15 -31 -27 -38 -27
-8 0 -20 -9 -27 -20 -7 -11 -22 -20 -34 -20 l-21 0 22 23 c23 25 18 36 -21 50
-14 5 -18 18 -18 56 0 27 -5 53 -11 56 -28 18 91 82 127 68 8 -3 21 0 29 7 19
16 45 6 45 -17 0 -11 3 -14 8 -7 12 18 94 42 145 43 l48 1 -26 -47z m590 38
c8 -13 -3 -18 -55 -24 -25 -3 -36 -3 -25 0 11 3 24 11 28 19 9 16 43 19 52 5z
m-365 -53 l1 -23 13 24 13 23 7 -32 c4 -24 2 -38 -10 -51 -9 -10 -14 -25 -11
-33 4 -10 1 -13 -7 -10 -14 5 -46 -36 -46 -60 0 -20 22 -24 163 -30 161 -7
174 -17 77 -60 -74 -33 -93 -61 -60 -88 14 -12 20 -25 17 -38 -3 -10 0 -21 7
-24 7 -3 4 -10 -8 -20 -19 -15 -62 -13 -99 6 -10 5 -22 7 -25 3 -3 -3 3 -8 15
-11 12 -3 24 -13 27 -21 5 -12 15 -14 42 -8 21 4 41 2 49 -5 22 -18 111 16
137 54 12 17 44 52 70 78 48 47 49 47 58 24 5 -13 13 -27 19 -30 6 -4 8 -13 4
-21 -3 -9 7 -31 22 -51 16 -21 25 -43 22 -54 -4 -16 3 -20 49 -26 29 -3 60 -4
69 0 9 3 15 0 15 -10 0 -8 -11 -19 -25 -24 -16 -6 -25 -17 -25 -32 0 -43 -48
-96 -104 -114 -28 -9 -54 -23 -59 -30 -4 -7 -27 -16 -51 -19 -58 -9 -130 29
-260 137 -12 9 -52 40 -90 68 -63 47 -72 51 -107 45 -26 -4 -39 -3 -39 4 0 6
-9 11 -19 11 -26 0 -37 18 -17 26 25 10 19 20 -24 39 -22 10 -66 42 -98 71
-31 29 -69 56 -84 59 -34 8 -35 15 -5 42 41 38 87 55 126 48 20 -4 68 -9 108
-11 l72 -3 -1 49 c0 28 -4 50 -9 50 -5 0 -9 5 -9 11 0 6 8 8 18 5 23 -7 56 19
49 39 -7 18 1 45 14 45 5 0 9 -10 9 -22z m-126 -4 c4 -9 1 -23 -6 -31 -9 -11
-9 -16 1 -22 16 -10 4 -61 -16 -61 -45 0 -63 37 -47 98 7 26 31 29 37 5 4 -14
5 -12 6 5 1 26 16 29 25 6z m226 -6 c0 -9 4 -8 10 2 9 13 11 13 20 0 13 -20
12 -26 -3 -38 -29 -24 -76 15 -50 41 10 11 23 8 23 -5z m2080 -24 c0 -8 -4
-12 -10 -9 -5 3 -10 10 -10 16 0 5 5 9 10 9 6 0 10 -7 10 -16z m-2800 -3 c0
-5 -7 -11 -15 -15 -8 -3 -15 -16 -15 -28 0 -13 -6 -32 -14 -43 -33 -49 -25
-145 11 -145 7 0 13 -4 13 -10 0 -5 -10 -10 -21 -10 -35 0 -98 78 -83 102 5 8
2 9 -10 5 -10 -4 -20 -7 -22 -7 -3 0 -2 -4 1 -10 10 -16 -11 -11 -26 6 -11 13
-8 19 17 39 36 29 72 39 89 25 10 -8 13 -5 11 13 -1 19 -5 22 -25 19 -36 -7
-22 19 25 45 41 24 64 29 64 14z m816 -26 c-25 -19 -52 -19 -60 0 -4 12 3 15
37 15 39 -1 41 -2 23 -15z m-118 -17 c17 -17 15 -28 -6 -28 -24 0 -32 8 -25
26 6 17 15 18 31 2z m482 -79 c0 -5 -4 -8 -9 -4 -11 6 -36 -63 -26 -73 4 -4
12 1 19 11 18 23 46 22 46 -3 0 -13 -7 -20 -20 -20 -12 0 -31 -12 -44 -27 -13
-15 -28 -23 -34 -19 -15 9 -15 59 -1 109 9 32 14 37 39 37 17 0 30 -5 30 -11z
m-1440 -79 c0 -5 -4 -10 -10 -10 -5 0 -10 5 -10 10 0 6 5 10 10 10 6 0 10 -4
10 -10z m1280 5 c0 -16 -31 -63 -44 -68 -27 -11 -27 10 0 42 23 28 44 40 44
26z m-1392 -127 c-2 -17 -24 -33 -85 -65 -58 -29 -83 -37 -83 -27 0 14 59 56
96 68 12 3 29 15 39 26 24 26 37 25 33 -2z m5002 -7 c0 -6 -4 -13 -10 -16 -5
-3 -10 1 -10 9 0 9 5 16 10 16 6 0 10 -4 10 -9z m2 -236 c-6 -50 -6 -50 -13
-16 -4 21 -3 41 4 52 15 25 16 22 9 -36z m-5482 -71 c0 -8 -4 -12 -10 -9 -5 3
-10 10 -10 16 0 5 5 9 10 9 6 0 10 -7 10 -16z m5482 -162 c3 -10 0 -26 -7 -35
-11 -15 -14 -15 -24 -3 -9 11 -9 19 1 35 16 26 24 27 30 3z m-4699 -93 c-17
-17 -37 -1 -22 17 8 10 15 12 23 4 7 -7 7 -13 -1 -21z m109 -31 c-6 -6 -15 -8
-19 -4 -4 4 -1 11 7 16 19 12 27 3 12 -12z m4592 -65 c4 -27 9 -73 11 -103 3
-30 7 -72 10 -93 3 -21 1 -47 -5 -57 -10 -20 -11 -20 -31 -1 -17 16 -20 35
-24 151 -4 101 -2 136 7 142 22 13 25 9 32 -39z m93 -160 c-3 -10 -5 -2 -5 17
0 19 2 27 5 18 2 -10 2 -26 0 -35z m-3865 -101 c6 -7 8 -15 4 -19 -3 -3 -7 -4
-9 -2 -1 2 -12 18 -25 36 -22 32 -28 63 -15 76 4 4 13 -12 21 -35 8 -24 19
-49 24 -56z m3775 -57 c19 -20 11 -73 -17 -105 l-20 -23 0 34 c0 41 11 109 17
109 2 0 11 -7 20 -15z m-3747 -18 c0 -7 9 -20 19 -29 16 -14 20 -14 25 -2 8
20 29 8 50 -27 11 -18 37 -39 64 -51 75 -33 77 -34 80 -52 2 -9 -13 -37 -33
-61 -20 -25 -35 -53 -34 -62 3 -35 -1 -43 -26 -43 -16 0 -25 6 -25 15 0 8 -4
15 -8 15 -5 0 -20 9 -33 21 -13 11 -36 23 -52 26 -51 10 -85 68 -78 137 2 29
22 49 35 36 29 -29 36 6 6 38 -24 25 -26 52 -5 52 8 0 15 -6 15 -13z m2180
-153 c0 -2 -9 -4 -21 -4 -11 0 -18 4 -14 10 5 8 35 3 35 -6z m1559 -124 c1
-41 6 -115 11 -165 8 -68 8 -95 -1 -113 -25 -45 -34 -18 -32 94 1 60 5 126 9
146 3 21 2 50 -4 66 -5 16 -7 42 -4 58 5 25 6 26 13 9 4 -11 8 -54 8 -95z
m-1614 89 c11 -17 -1 -21 -15 -4 -8 9 -8 15 -2 15 6 0 14 -5 17 -11z m-1900
-189 c3 -5 -1 -10 -10 -10 -9 0 -13 5 -10 10 3 6 8 10 10 10 2 0 7 -4 10 -10z
m2255 -6 c0 -8 -4 -12 -10 -9 -5 3 -10 10 -10 16 0 5 5 9 10 9 6 0 10 -7 10
-16z m-2320 -3 c0 -6 -4 -13 -10 -16 -5 -3 -10 1 -10 9 0 9 5 16 10 16 6 0 10
-4 10 -9z m-1040 -41 c0 -5 -7 -10 -15 -10 -8 0 -15 5 -15 10 0 6 7 10 15 10
8 0 15 -4 15 -10z m-220 -14 c0 -11 -19 -15 -25 -6 -3 5 1 10 9 10 9 0 16 -2
16 -4z m2853 -35 c-6 -25 29 -32 73 -14 19 7 35 8 45 2 31 -20 -35 -46 -103
-41 -12 1 -18 -5 -18 -18 0 -12 7 -20 16 -20 8 0 22 -7 30 -15 13 -13 12 -16
-6 -27 -21 -13 -28 -38 -10 -38 5 0 14 8 19 19 14 25 46 32 68 16 17 -13 16
-14 -9 -24 -38 -14 -47 -34 -11 -25 15 4 34 11 41 17 9 7 17 6 25 -2 9 -9 6
-13 -11 -18 -21 -5 -23 -10 -16 -47 3 -22 12 -62 18 -87 12 -46 3 -96 -28
-155 -30 -57 -132 -144 -168 -144 -9 0 -21 -7 -28 -15 -17 -21 -30 -19 -30 5
0 11 6 20 14 20 8 0 16 7 20 15 6 17 -19 21 -29 5 -3 -5 -11 -10 -17 -10 -6 0
-4 9 4 23 15 22 14 22 -28 23 -24 1 -55 9 -69 18 -14 9 -30 14 -34 11 -13 -7
-42 5 -35 16 9 15 -45 30 -65 19 -34 -17 -33 -39 2 -60 17 -11 41 -20 52 -20
11 -1 31 -7 45 -14 21 -12 29 -12 55 1 28 15 29 15 16 -1 -8 -9 -38 -28 -68
-42 -29 -14 -58 -34 -63 -44 -6 -11 -27 -24 -48 -29 -50 -13 -238 -18 -234 -6
8 24 104 65 150 65 44 0 72 12 72 32 0 13 -39 9 -72 -8 l-31 -16 6 36 c5 30 2
38 -16 48 -12 6 -35 11 -52 10 -28 -1 -28 0 -7 8 16 7 22 18 22 40 0 23 6 33
23 39 13 5 27 5 34 -1 7 -6 27 -7 45 -4 18 4 41 7 51 7 18 0 25 39 7 39 -5 0
-10 12 -10 26 0 23 -3 25 -25 20 -30 -8 -33 4 -5 24 22 16 27 46 8 52 -7 3 -9
12 -5 22 4 11 13 16 22 12 8 -3 15 -1 15 4 0 6 19 10 41 10 35 0 47 6 75 35
32 35 34 35 113 34 44 -1 84 2 90 6 16 9 13 35 -4 35 -8 0 -22 11 -31 25 -12
19 -25 25 -53 25 -21 0 -46 6 -57 14 -18 14 -18 15 9 25 16 6 42 11 58 11 18
0 32 6 36 16 6 17 63 45 74 38 4 -2 5 -13 2 -23z m-1556 -3 c-3 -8 -6 -5 -6 6
-1 11 2 17 5 13 3 -3 4 -12 1 -19z m1743 -8 c-8 -5 -21 -10 -29 -10 -11 0 -10
5 4 20 13 15 22 17 29 10 8 -8 6 -14 -4 -20z m-1620 10 c0 -5 -5 -10 -11 -10
-5 0 -7 5 -4 10 3 6 8 10 11 10 2 0 4 -4 4 -10z m1730 -9 c14 -27 14 -27 -25
-27 -40 0 -41 2 -18 28 21 23 30 23 43 -1z m130 7 c-1 -15 -24 -48 -34 -48 -8
0 -8 45 1 53 11 12 33 8 33 -5z m-1730 -42 c0 -35 -10 -56 -27 -56 -10 0 -12
6 -8 21 4 13 2 25 -5 29 -17 10 -3 30 21 30 13 0 19 -7 19 -24z m1730 -36 c14
-26 65 -27 79 -2 9 15 10 15 11 -4 0 -12 -7 -27 -15 -34 -18 -15 -20 -40 -2
-40 27 -1 48 -27 41 -54 -6 -26 -139 -134 -151 -123 -10 11 7 56 29 77 12 11
19 22 16 25 -12 12 -72 -31 -109 -77 -31 -40 -37 -53 -28 -64 6 -8 18 -14 25
-14 8 0 14 -7 14 -15 0 -9 -6 -12 -15 -9 -9 4 -17 -1 -20 -10 -17 -53 -14 -50
-34 -32 -11 10 -22 33 -25 52 -4 18 -16 38 -26 44 -26 14 -25 26 6 67 21 28
23 34 10 39 -20 8 -21 30 -1 38 8 3 20 16 26 30 6 13 20 26 30 29 11 3 19 16
21 38 3 31 7 35 48 46 60 15 58 16 70 -7z m210 -49 c0 -3 -11 -6 -25 -6 -26 0
-35 20 -12 28 12 4 37 -10 37 -22z m1355 -31 c4 -27 4 -54 0 -60 -4 -6 -7 -42
-7 -80 0 -73 -12 -94 -21 -37 -6 44 4 227 14 227 4 0 10 -22 14 -50z m-2854
-93 c-10 -9 -11 -8 -5 6 3 10 9 15 12 12 3 -3 0 -11 -7 -18z m1479 -31 c0 -3
-4 -8 -10 -11 -5 -3 -10 -1 -10 4 0 6 5 11 10 11 6 0 10 -2 10 -4z m-1070 -57
c0 -5 -11 -7 -25 -3 -14 3 -32 1 -40 -6 -8 -6 -20 -10 -27 -7 -7 2 3 11 22 19
35 15 70 13 70 -3z m1070 -21 c0 -18 -2 -20 -9 -8 -6 8 -7 18 -5 22 9 14 14 9
14 -14z m675 11 c11 -16 1 -20 -36 -12 -33 7 -33 7 -9 14 36 10 38 10 45 -2z
m-1050 -107 c4 -47 3 -52 -15 -52 -21 0 -27 24 -9 35 6 4 8 14 4 22 -5 16 3
58 11 50 2 -2 6 -27 9 -55z m1745 -67 c0 -25 -4 -45 -10 -45 -5 0 -10 20 -10
45 0 25 5 45 10 45 6 0 10 -20 10 -45z m-7933 9 c-3 -3 -12 -4 -19 -1 -8 3 -5
6 6 6 11 1 17 -2 13 -5z m6161 -61 c28 -37 34 -55 34 -94 -1 -46 1 -49 26 -49
31 0 19 -15 -20 -24 -15 -3 -30 -1 -33 4 -9 14 -35 -7 -35 -27 0 -7 -10 -27
-22 -44 -22 -29 -22 -31 -5 -43 23 -17 22 -32 -3 -39 -12 -3 -20 -14 -20 -26
0 -12 -6 -21 -15 -21 -17 0 -18 -2 -9 -24 3 -9 14 -16 24 -16 30 0 32 -16 4
-29 -55 -25 -104 -2 -74 34 6 8 10 20 7 27 -3 9 -7 7 -12 -5 -11 -26 -50 -64
-75 -72 -24 -8 -26 -21 -4 -29 25 -10 34 -7 34 9 0 8 9 15 20 15 26 0 25 -15
0 -40 -22 -22 -63 -19 -88 6 -18 18 -94 7 -153 -23 -75 -37 -80 -34 -128 60
-20 40 -25 59 -18 66 18 18 55 13 67 -9 16 -30 46 -25 64 11 16 33 12 59 -10
59 -23 0 -16 14 34 71 65 75 81 90 134 128 38 27 50 32 62 22 16 -13 32 1 21
19 -3 6 -2 10 3 10 11 0 123 89 135 108 12 19 19 14 55 -35z m1036 -22 c7 -11
-22 -23 -35 -15 -5 3 -7 10 -4 15 8 12 32 12 39 0z m-1764 -31 c0 -19 -20 -27
-33 -13 -8 7 11 33 24 33 5 0 9 -9 9 -20z m-3210 -51 c0 -6 -7 -6 -20 1 -11 6
-20 15 -20 21 0 6 7 6 20 -1 11 -6 20 -15 20 -21z m3441 -53 c-14 -17 -51 -28
-51 -15 0 5 10 14 23 19 32 13 41 12 28 -4z m519 -40 c0 -2 3 -11 6 -20 5 -12
0 -16 -20 -16 -24 0 -35 18 -19 33 7 8 33 10 33 3z m-3886 -15 c3 -5 -1 -11
-9 -15 -15 -6 -29 7 -18 18 9 9 21 8 27 -3z m3234 -13 c-5 -14 -58 -30 -58
-18 0 11 30 29 48 30 8 0 12 -5 10 -12z m2402 -48 c0 -5 -5 -10 -11 -10 -5 0
-7 5 -4 10 3 6 8 10 11 10 2 0 4 -4 4 -10z m-3497 -49 c4 -1 7 -5 7 -10 0 -5
-16 -11 -35 -13 -24 -3 -39 1 -50 15 -15 17 -14 18 27 13 24 -3 46 -5 51 -5z
m3494 -48 c-3 -10 -5 -4 -5 12 0 17 2 24 5 18 2 -7 2 -21 0 -30z m-3747 -9 c0
-14 -4 -23 -10 -19 -5 3 -10 15 -10 26 0 10 5 19 10 19 6 0 10 -12 10 -26z
m351 2 c-14 -16 -68 -29 -84 -19 -7 4 11 12 38 19 28 6 52 12 54 13 2 0 -2 -5
-8 -13z m-415 -43 c3 -10 10 -26 15 -35 22 -42 5 -49 -34 -15 -33 28 -36 67
-7 67 11 0 23 -8 26 -17z m1154 -3 c0 -5 -2 -10 -4 -10 -3 0 -8 5 -11 10 -3 6
-1 10 4 10 6 0 11 -4 11 -10z m2654 -27 c2 -10 7 -43 11 -73 6 -60 -9 -97 -33
-81 -10 6 -11 17 -1 54 6 26 9 62 7 82 -4 36 7 49 16 18z m-3654 -16 c9 -7 26
-25 39 -42 13 -17 35 -32 52 -35 35 -6 40 -23 8 -30 -18 -4 -19 -7 -8 -16 8
-6 23 -14 34 -18 l20 -7 -20 -15 c-11 -9 -32 -14 -47 -11 -33 4 -35 -3 -9 -27
17 -16 18 -20 4 -47 -8 -16 -21 -29 -29 -29 -9 0 -14 -7 -12 -19 2 -10 -9 -33
-25 -50 -22 -26 -35 -31 -70 -31 -60 1 -79 30 -85 132 l-5 78 -48 0 c-67 0
-103 37 -59 60 15 8 20 8 20 -1 0 -28 31 -48 66 -42 23 4 34 2 34 -6 0 -8 7
-7 22 3 19 14 23 14 34 -2 13 -16 13 -16 14 0 0 34 -23 68 -46 68 -31 0 -21
26 17 46 16 8 29 21 29 29 0 7 10 16 23 18 12 2 24 5 27 5 3 1 12 -4 20 -11z
m280 -23 c0 -8 -4 -12 -10 -9 -5 3 -10 10 -10 16 0 5 5 9 10 9 6 0 10 -7 10
-16z m826 -11 c-10 -10 -19 5 -10 18 6 11 8 11 12 0 2 -7 1 -15 -2 -18z m224
8 c0 -9 -55 -41 -72 -41 -17 0 -7 26 15 36 28 15 57 17 57 5z m-337 -61 c-8
-17 -19 -28 -24 -24 -5 3 -6 11 -3 17 26 45 49 51 27 7z m-3036 -62 c-3 -7 -5
-2 -5 12 0 14 2 19 5 13 2 -7 2 -19 0 -25z m3050 -20 c-3 -8 -6 -5 -6 6 -1 11
2 17 5 13 3 -3 4 -12 1 -19z m-2875 -138 c31 -15 59 -26 62 -23 3 3 2 19 -1
36 -4 21 -3 28 5 23 7 -4 12 -18 12 -32 0 -13 4 -24 9 -24 5 0 13 -10 17 -22
3 -12 15 -29 26 -38 16 -12 17 -20 9 -40 -9 -24 -10 -24 -10 8 -1 35 -21 36
-21 1 0 -16 -5 -18 -27 -13 -23 6 -25 4 -20 -15 3 -11 2 -21 -2 -21 -15 0 -76
34 -91 50 -24 25 -68 50 -89 50 -23 0 -63 47 -59 69 4 18 59 31 98 24 14 -2
51 -17 82 -33z m2934 0 c15 -22 24 -43 21 -46 -9 -10 -67 48 -67 68 0 29 18
21 46 -22z m1988 23 c44 -5 71 -13 74 -22 4 -11 -18 -12 -124 -7 -127 7 -164
17 -134 37 14 9 34 8 184 -8z m376 -6 c0 -24 -24 -37 -69 -37 -59 0 -80 12
-62 34 17 21 131 23 131 3z m-3102 -53 c-4 -24 -38 -32 -38 -9 0 21 23 45 33
35 5 -4 7 -16 5 -26z m860 1 c-12 -27 -28 -33 -28 -10 0 11 23 33 37 35 2 0
-3 -11 -9 -25z m-962 -32 c-10 -10 -19 5 -10 18 6 11 8 11 12 0 2 -7 1 -15 -2
-18z m-2393 10 c-7 -2 -19 -2 -25 0 -7 3 -2 5 12 5 14 0 19 -2 13 -5z m2345
-35 c-6 -17 -36 -34 -45 -24 -4 4 1 14 11 22 24 17 39 18 34 2z m2615 -4 c26
-4 44 -11 41 -15 -3 -5 -16 -6 -30 -3 -21 5 -26 2 -31 -17 l-6 -23 -8 22 c-5
13 -17 22 -29 22 -11 0 -20 5 -20 10 0 12 19 12 83 4z m-2773 -14 c0 -5 -7
-10 -16 -10 -8 0 -12 5 -9 10 3 6 10 10 16 10 5 0 9 -4 9 -10z m1205 1 c3 -5
1 -12 -5 -16 -5 -3 -10 1 -10 9 0 18 6 21 15 7z m1775 -8 c14 -13 -32 -23 -83
-19 -61 4 -73 9 -64 23 6 9 137 5 147 -4z m284 -29 c75 -11 53 -24 -39 -24
-106 0 -116 15 -19 29 6 0 32 -2 58 -5z m-3539 -44 c4 -6 11 -8 16 -5 5 4 9 1
9 -5 0 -15 -52 -8 -58 8 -4 14 24 16 33 2z m1620 -21 c10 -15 -1 -23 -20 -15
-9 3 -13 10 -10 16 8 13 22 13 30 -1z m2284 -201 c-1 -42 -3 -48 -9 -28 -12
36 -12 80 0 80 6 0 10 -24 9 -52z m-4109 8 c0 -3 -4 -8 -10 -11 -5 -3 -10 -1
-10 4 0 6 5 11 10 11 6 0 10 -2 10 -4z m849 -116 c31 -15 72 -31 91 -35 19 -4
60 -18 92 -32 51 -23 56 -28 60 -61 3 -21 1 -38 -4 -40 -4 -2 -8 -12 -8 -23 0
-10 -4 -19 -10 -19 -12 0 -168 76 -186 91 -8 6 -46 21 -86 33 l-72 22 -88 -28
c-49 -15 -108 -28 -132 -28 -30 0 -55 -8 -80 -25 -20 -14 -41 -25 -46 -25 -20
0 -9 22 20 38 16 9 35 31 40 48 11 31 34 48 80 58 76 15 144 36 163 50 30 21
94 11 166 -24z m3266 -136 c0 -112 -3 -155 -12 -158 -21 -9 -26 13 -26 133 0
108 16 202 31 186 4 -4 7 -76 7 -161z m-3755 -47 c0 -2 -10 -12 -21 -23 -22
-19 -22 -19 -10 4 10 18 31 31 31 19z m-60 -68 c0 -10 -9 -20 -20 -24 -11 -3
-27 -19 -37 -36 -9 -16 -20 -29 -23 -29 -3 0 -16 -10 -30 -23 -14 -12 -40 -29
-57 -36 -18 -7 -33 -19 -33 -26 0 -7 -7 -15 -15 -19 -26 -9 -17 23 14 52 16
15 59 53 95 86 36 32 68 67 72 78 4 15 9 17 20 7 8 -6 14 -20 14 -30z m3870
-9 c0 -22 -4 -40 -8 -40 -7 0 -8 29 -4 68 4 28 12 9 12 -28z m-8230 -181 c0
-70 -4 -108 -10 -104 -6 4 -8 47 -6 108 4 112 4 107 11 107 3 0 5 -50 5 -111z
m1005 21 c3 -5 -1 -10 -10 -10 -9 0 -13 5 -10 10 3 6 8 10 10 10 2 0 7 -4 10
-10z m309 -116 c14 3 25 -1 33 -13 14 -22 8 -31 -22 -31 -22 0 -60 52 -47 64
4 5 9 0 10 -9 3 -12 10 -15 26 -11z m-104 -24 c0 -5 -5 -10 -11 -10 -5 0 -7 5
-4 10 3 6 8 10 11 10 2 0 4 -4 4 -10z m5463 -27 c-7 -2 -19 -2 -25 0 -7 3 -2
5 12 5 14 0 19 -2 13 -5z m1150 -40 c-13 -2 -33 -2 -45 0 -13 2 -3 4 22 4 25
0 35 -2 23 -4z m-5709 -63 c24 -8 -112 -21 -143 -13 -17 4 -19 8 -10 20 9 10
26 12 73 7 34 -4 70 -10 80 -14z m2186 11 c0 -6 -5 -13 -10 -16 -15 -9 -43 3
-35 15 8 13 45 13 45 1z m-2065 -11 c4 -6 -6 -10 -24 -10 -16 0 -33 5 -36 10
-4 6 6 10 24 10 16 0 33 -4 36 -10z m915 0 c0 -5 -2 -10 -4 -10 -3 0 -8 5 -11
10 -3 6 -1 10 4 10 6 0 11 -4 11 -10z m-827 -7 c-7 -2 -19 -2 -25 0 -7 3 -2 5
12 5 14 0 19 -2 13 -5z m200 0 c-7 -2 -21 -2 -30 0 -10 3 -4 5 12 5 17 0 24
-2 18 -5z m284 0 c-20 -2 -52 -2 -70 0 -17 2 0 4 38 4 39 0 53 -2 32 -4z m151
0 c-15 -2 -42 -2 -60 0 -18 2 -6 4 27 4 33 0 48 -2 33 -4z m597 -44 c6 0 1 -4
-10 -9 -27 -12 -352 -12 -360 -1 -9 16 42 19 205 15 85 -2 160 -4 165 -5z
m735 -5 c0 -2 -9 -4 -21 -4 -11 0 -18 4 -14 10 5 8 35 3 35 -6z"/>
<path d="M5190 6369 l-31 -32 27 -28 c29 -30 44 -30 44 2 0 10 4 19 10 19 8 0
40 51 40 65 0 3 -13 5 -29 5 -20 0 -40 -11 -61 -31z"/>
<path d="M5384 6334 c-43 -45 -57 -85 -33 -99 6 -4 25 9 43 29 35 37 46 37 46
0 0 -59 46 -18 57 50 13 79 -47 89 -113 20z m76 6 c0 -5 -2 -10 -4 -10 -3 0
-8 5 -11 10 -3 6 -1 10 4 10 6 0 11 -4 11 -10z"/>
<path d="M5257 6177 c-13 -36 41 -85 78 -71 18 7 20 48 3 61 -22 17 -76 23
-81 10z"/>
<path d="M5430 6165 c0 -8 5 -15 10 -15 6 0 10 7 10 15 0 8 -4 15 -10 15 -5 0
-10 -7 -10 -15z"/>
<path d="M5230 6086 c0 -8 -3 -21 -6 -29 -5 -13 13 -16 65 -8 8 1 -42 51 -51
51 -4 0 -8 -6 -8 -14z"/>
<path d="M4720 5320 c0 -5 4 -10 9 -10 6 0 13 5 16 10 3 6 -1 10 -9 10 -9 0
-16 -4 -16 -10z"/>
<path d="M5179 5068 c9 -25 41 -37 41 -16 0 17 -20 38 -37 38 -9 0 -10 -7 -4
-22z"/>
<path d="M5010 5041 l-20 -40 21 -35 c11 -19 32 -42 46 -52 25 -16 27 -16 40
2 7 10 13 24 13 31 0 7 15 19 33 26 26 11 33 20 32 41 -2 36 -36 58 -96 63
-48 4 -49 3 -69 -36z"/>
<path d="M5630 4880 c0 -5 5 -10 11 -10 5 0 7 5 4 10 -3 6 -8 10 -11 10 -2 0
-4 -4 -4 -10z"/>
<path d="M5680 4719 c0 -5 5 -7 10 -4 6 3 10 8 10 11 0 2 -4 4 -10 4 -5 0 -10
-5 -10 -11z"/>
<path d="M4990 5274 c0 -8 5 -12 10 -9 6 3 10 10 10 16 0 5 -4 9 -10 9 -5 0
-10 -7 -10 -16z"/>
<path d="M5015 5240 c-3 -5 -1 -10 4 -10 6 0 11 5 11 10 0 6 -2 10 -4 10 -3 0
-8 -4 -11 -10z"/>
<path d="M6874 3205 c-19 -14 -18 -15 6 -35 29 -24 64 -34 85 -26 27 10 16 33
-25 55 -48 25 -42 24 -66 6z"/>
<path d="M7077 3159 c-9 -6 -17 -14 -17 -19 0 -13 57 -13 65 -1 9 16 -28 31
-48 20z"/>
<path d="M7120 3053 c0 -12 5 -25 10 -28 13 -8 50 4 50 16 0 6 -9 8 -19 4 -13
-4 -23 0 -30 12 -9 16 -10 16 -11 -4z"/>
<path d="M6755 2990 c-4 -6 7 -10 27 -10 25 0 29 3 18 10 -19 13 -37 13 -45 0z"/>
<path d="M6990 2969 c0 -5 5 -7 10 -4 6 3 10 8 10 11 0 2 -4 4 -10 4 -5 0 -10
-5 -10 -11z"/>
<path d="M7480 3211 c0 -6 5 -13 10 -16 6 -3 10 1 10 9 0 9 -4 16 -10 16 -5 0
-10 -4 -10 -9z"/>
<path d="M7075 2530 c3 -5 8 -10 11 -10 2 0 4 5 4 10 0 6 -5 10 -11 10 -5 0
-7 -4 -4 -10z"/>
<path d="M7159 2516 c16 -19 44 -21 39 -3 -3 6 -15 14 -28 15 -21 3 -22 2 -11
-12z"/>
<path d="M3660 2071 c0 -5 7 -11 15 -15 9 -3 15 0 15 9 0 8 -7 15 -15 15 -8 0
-15 -4 -15 -9z"/>
<path d="M6603 7533 c9 -2 25 -2 35 0 9 3 1 5 -18 5 -19 0 -27 -2 -17 -5z"/>
<path d="M6290 7496 c0 -11 10 -16 31 -16 38 0 35 24 -4 28 -19 2 -27 -1 -27
-12z"/>
<path d="M2040 7382 c0 -4 41 -8 90 -9 50 -1 90 3 90 8 0 5 -40 9 -90 9 -49 0
-90 -4 -90 -8z"/>
<path d="M2290 7380 c0 -11 14 -11 50 0 22 7 21 8 -12 9 -21 1 -38 -3 -38 -9z"/>
<path d="M6412 6579 c2 -6 8 -10 13 -10 5 0 11 4 13 10 2 6 -4 11 -13 11 -9 0
-15 -5 -13 -11z"/>
<path d="M4359 4421 c-32 -35 -32 -43 0 -27 17 9 31 23 31 31 0 19 -11 18 -31
-4z"/>
<path d="M3850 4370 c0 -5 4 -10 9 -10 6 0 13 5 16 10 3 6 -1 10 -9 10 -9 0
-16 -4 -16 -10z"/>
<path d="M3808 4343 c-16 -8 -28 -18 -28 -23 0 -4 -3 -17 -7 -27 -4 -10 6 -3
22 15 15 18 34 31 41 28 8 -3 14 -1 14 4 0 16 -14 17 -42 3z"/>
<path d="M4685 4291 c-9 -16 3 -31 20 -25 25 10 38 -6 18 -22 -17 -13 -17 -13
0 -14 25 0 49 26 45 48 -4 20 -72 30 -83 13z"/>
<path d="M3746 4235 c-9 -9 -16 -23 -16 -32 0 -22 -38 -83 -70 -114 -15 -14
-29 -32 -32 -40 -4 -11 -9 -12 -27 -1 -29 17 -28 -2 4 -44 23 -30 24 -36 15
-84 -5 -28 -13 -56 -16 -62 -8 -13 -7 -83 2 -119 5 -24 4 -25 -25 -21 -20 3
-31 10 -31 20 0 9 -12 -3 -27 -26 -15 -23 -35 -42 -45 -42 -25 0 -23 -9 7 -32
20 -16 23 -23 14 -34 -6 -8 -9 -23 -6 -34 6 -22 -8 -37 -18 -20 -10 15 -35 12
-35 -5 0 -33 -59 -9 -106 44 -20 23 -36 32 -47 28 -14 -5 -14 -9 0 -47 18 -45
44 -63 107 -74 23 -5 47 -17 57 -30 34 -43 149 -42 132 0 -3 8 6 25 21 39 14
13 26 33 26 43 0 26 11 34 28 20 12 -11 14 -5 11 41 l-4 53 38 13 c31 11 37
11 37 -2 0 -8 5 -11 10 -8 6 3 10 17 10 29 0 22 26 54 39 48 3 -2 10 18 15 43
9 44 8 48 -19 69 -26 21 -27 24 -16 58 6 20 20 43 31 53 14 12 18 28 15 61 -3
57 -8 61 -33 30 -31 -40 -42 -32 -42 29 0 46 -2 53 -16 48 -13 -5 -15 -3 -6
13 45 88 52 123 18 89z m-16 -259 c0 -3 -4 -8 -10 -11 -5 -3 -10 -1 -10 4 0 6
5 11 10 11 6 0 10 -2 10 -4z m-180 -301 c0 -9 -6 -12 -15 -9 -8 4 -12 10 -9
15 8 14 24 10 24 -6z"/>
<path d="M3835 4191 c-21 -9 -33 -43 -27 -78 5 -26 22 -31 22 -7 0 8 7 22 15
30 12 12 23 66 13 63 -2 0 -12 -4 -23 -8z"/>
<path d="M3908 4183 c7 -3 16 -2 19 1 4 3 -2 6 -13 5 -11 0 -14 -3 -6 -6z"/>
<path d="M3640 4166 c0 -8 5 -18 10 -21 6 -3 10 3 10 14 0 12 -4 21 -10 21 -5
0 -10 -6 -10 -14z"/>
<path d="M4401 4164 c6 -8 25 -14 41 -14 16 0 39 -5 50 -11 15 -8 23 -8 32 1
19 20 -20 38 -80 38 -45 -1 -52 -3 -43 -14z"/>
<path d="M3770 4161 c0 -6 5 -13 10 -16 6 -3 10 1 10 9 0 9 -4 16 -10 16 -5 0
-10 -4 -10 -9z"/>
<path d="M3390 3910 c-6 -11 -17 -20 -24 -20 -13 0 -36 -81 -36 -130 0 -27 22
-60 39 -60 5 0 6 11 3 25 -2 15 0 25 7 25 6 0 11 -4 11 -9 0 -5 11 -16 25 -25
23 -15 25 -15 25 1 0 10 -11 30 -24 44 -21 22 -23 33 -19 75 3 27 12 53 19 57
19 11 18 37 -1 37 -8 0 -19 -9 -25 -20z"/>
<path d="M3482 3794 c3 -43 31 -56 36 -16 2 12 8 22 13 22 5 0 9 7 9 15 0 17
-16 20 -25 5 -5 -8 -12 -7 -22 1 -12 11 -14 7 -11 -27z"/>
<path d="M4705 3790 c3 -5 8 -10 11 -10 2 0 4 5 4 10 0 6 -5 10 -11 10 -5 0
-7 -4 -4 -10z"/>
<path d="M4292 3773 c2 -10 13 -19 26 -21 17 -3 22 2 22 17 0 16 -6 21 -26 21
-19 0 -25 -5 -22 -17z"/>
<path d="M4367 3733 c-13 -13 -7 -53 8 -53 10 0 15 10 15 30 0 29 -9 38 -23
23z"/>
<path d="M4156 3711 c-10 -11 -16 -31 -14 -47 3 -25 8 -28 41 -31 33 -2 37 1
37 21 0 13 -7 26 -15 30 -9 3 -19 15 -23 26 -8 21 -8 21 -26 1z"/>
<path d="M4088 3704 c-13 -20 -20 -89 -10 -114 l9 -25 8 25 c4 14 15 30 24 37
15 11 15 13 -1 25 -9 7 -18 24 -20 38 -2 14 -6 20 -10 14z"/>
<path d="M3426 3651 c-3 -5 1 -14 9 -21 13 -10 15 -9 15 9 0 21 -14 28 -24 12z"/>
<path d="M7805 3650 c-7 -12 2 -30 16 -30 12 0 12 27 0 35 -5 3 -12 1 -16 -5z"/>
<path d="M3732 3493 c-12 -19 -21 -38 -18 -40 6 -7 56 50 56 64 0 22 -14 13
-38 -24z"/>
<path d="M3328 3405 c-6 -14 -18 -24 -27 -23 -22 4 -27 -55 -7 -84 9 -12 16
-33 16 -45 0 -16 6 -23 20 -23 12 0 17 -5 14 -13 -3 -8 6 -18 21 -25 14 -6 25
-17 25 -23 0 -7 10 -9 25 -7 14 3 25 1 25 -4 0 -5 -12 -8 -28 -7 -15 2 -33 0
-40 -4 -6 -5 -16 -6 -21 -2 -5 3 -12 1 -16 -5 -3 -5 3 -10 14 -10 12 0 22 -6
23 -12 0 -7 2 -17 3 -23 2 -5 3 -17 4 -25 1 -13 2 -13 11 0 8 12 10 10 11 -10
1 -14 0 -34 0 -46 -3 -30 24 -50 44 -34 8 7 15 18 15 25 0 16 58 47 71 39 5
-3 9 -12 9 -20 0 -8 8 -14 19 -14 20 0 35 35 23 54 -3 6 -5 21 -3 34 2 18 -2
23 -16 20 -11 -1 -31 5 -46 15 -21 13 -32 15 -46 7 -29 -15 -32 -13 -25 15 3
14 2 25 -3 25 -6 0 -15 18 -22 40 -6 22 -16 40 -21 40 -6 0 -10 7 -10 15 0 8
7 15 15 15 20 0 19 6 -6 41 -20 28 -49 39 -49 19 0 -6 7 -22 16 -35 26 -40 -6
-32 -33 8 -26 38 -29 49 -9 41 13 -5 46 35 46 56 0 20 -31 9 -42 -15z"/>
<path d="M3708 3329 c-24 -13 -23 -29 2 -29 11 0 20 2 20 4 0 2 3 11 6 20 7
18 -3 20 -28 5z"/>
<path d="M6177 3283 c-4 -3 -7 -11 -7 -17 0 -6 5 -5 12 2 6 6 9 14 7 17 -3 3
-9 2 -12 -2z"/>
<path d="M3772 3060 c-12 -5 -29 -7 -37 -4 -9 4 -15 0 -15 -9 0 -30 40 -31 68
-3 27 27 23 31 -16 16z"/>
<path d="M3490 2984 c0 -14 3 -14 15 -4 8 7 15 14 15 16 0 2 -7 4 -15 4 -8 0
-15 -7 -15 -16z"/>
<path d="M2381 2974 c0 -11 3 -14 6 -6 3 7 2 16 -1 19 -3 4 -6 -2 -5 -13z"/>
<path d="M3611 2981 c-13 -3 -29 -15 -35 -26 -17 -31 -30 -36 -44 -17 -11 15
-14 15 -22 2 -20 -32 1 -80 34 -80 22 0 68 49 62 66 -4 10 1 18 14 21 11 3 20
14 20 24 0 11 -1 19 -2 18 -2 -1 -14 -4 -27 -8z"/>
<path d="M3460 2959 c0 -5 5 -7 10 -4 6 3 10 8 10 11 0 2 -4 4 -10 4 -5 0 -10
-5 -10 -11z"/>
<path d="M2150 2902 l-10 -23 62 7 c35 3 67 10 72 14 18 17 -7 29 -59 27 -46
-2 -56 -6 -65 -25z"/>
<path d="M2577 2879 c-39 -23 -94 -173 -122 -339 -2 -14 0 -32 5 -40 25 -41
73 77 120 295 5 22 12 52 16 68 7 30 6 31 -19 16z"/>
<path d="M2181 2534 c-31 -36 -43 -74 -51 -169 -4 -44 -12 -98 -18 -120 -6
-22 -12 -80 -14 -130 -2 -74 0 -90 12 -92 33 -7 52 22 66 103 28 158 47 402
34 424 -4 6 -15 0 -29 -16z"/>
<path d="M1417 2373 c-12 -12 -7 -70 7 -82 11 -9 15 -7 19 11 3 13 4 32 2 43
-2 11 -4 23 -4 28 -1 9 -15 9 -24 0z"/>
<path d="M3077 2303 c-4 -6 -4 -26 0 -44 6 -30 7 -31 14 -11 9 24 -4 72 -14
55z"/>
<path d="M7166 2269 c-23 -25 -26 -33 -15 -40 20 -12 29 -11 27 4 -3 13 0 13
45 2 21 -6 27 -4 27 9 0 9 -6 16 -14 16 -21 0 -40 27 -24 33 9 4 9 6 -2 6 -8
0 -28 -14 -44 -30z"/>
<path d="M7657 2244 c-13 -13 -7 -24 14 -24 11 0 19 5 17 12 -5 14 -22 21 -31
12z"/>
<path d="M7080 2220 c0 -6 7 -10 15 -10 8 0 15 2 15 4 0 2 -7 6 -15 10 -8 3
-15 1 -15 -4z"/>
<path d="M4660 2191 c0 -6 5 -13 10 -16 6 -3 10 1 10 9 0 9 -4 16 -10 16 -5 0
-10 -4 -10 -9z"/>
<path d="M7760 2086 c0 -2 6 -15 13 -29 l13 -24 11 23 c6 13 8 25 5 29 -6 6
-42 7 -42 1z"/>
<path d="M1423 2035 c0 -27 2 -38 4 -22 2 15 2 37 0 50 -2 12 -4 0 -4 -28z"/>
<path d="M7829 2064 c-18 -22 3 -34 62 -34 50 0 99 18 99 38 0 14 -26 17 -34
3 -4 -5 -22 -5 -43 0 -54 12 -69 11 -84 -7z"/>
<path d="M7630 1895 c0 -8 7 -15 15 -15 8 0 15 4 15 9 0 5 -7 11 -15 15 -9 3
-15 0 -15 -9z"/>
<path d="M7587 1820 c46 -43 71 -53 54 -21 -6 10 -30 28 -53 40 l-43 20 42
-39z"/>
<path d="M7476 1824 c-9 -8 -16 -21 -16 -28 0 -6 -14 -20 -30 -30 -28 -16 -33
-43 -6 -33 21 8 36 -7 30 -30 -5 -19 -9 -20 -37 -11 -18 6 -36 17 -40 25 -7
11 -69 43 -83 43 -2 0 -4 -9 -4 -20 0 -21 -24 -28 -35 -10 -4 6 -11 8 -16 5
-21 -14 242 -204 283 -205 7 0 31 -14 52 -30 22 -17 45 -30 51 -30 7 0 24 -9
38 -20 14 -11 30 -20 36 -20 6 0 20 -9 31 -20 23 -23 46 -26 65 -6 19 18 9 26
-32 26 -28 0 -34 4 -31 18 2 11 11 16 23 14 11 -2 40 -6 65 -9 25 -2 54 -8 65
-13 11 -4 28 -11 38 -14 39 -12 6 -35 -53 -36 -14 0 -32 -5 -40 -10 -32 -20 8
-34 102 -36 257 -5 391 -15 402 -28 19 -23 54 -26 59 -5 7 24 0 29 -44 29 -21
0 -41 5 -44 10 -3 6 -17 10 -31 10 -13 0 -43 9 -67 20 -23 11 -74 27 -111 35
-44 9 -77 22 -90 35 l-21 22 40 -6 c22 -3 69 -10 105 -15 36 -4 83 -16 104
-25 22 -9 42 -14 45 -10 9 8 -56 64 -75 64 -8 0 -25 5 -37 12 -12 7 -30 13
-39 14 -35 3 -38 4 -38 15 0 8 17 10 53 7 57 -5 122 5 97 15 -8 3 -41 11 -73
17 -31 6 -55 15 -52 20 3 5 -8 11 -25 15 -38 8 -47 23 -24 40 17 12 15 14 -25
25 -46 12 -46 12 -133 4 -39 -4 -66 -1 -85 8 -44 22 -87 17 -91 -8 -2 -13 2
-22 10 -21 30 1 48 -4 48 -12 0 -10 -136 -8 -146 2 -4 3 5 9 20 13 14 3 26 12
26 20 0 14 -24 19 -69 15 -32 -3 -82 18 -103 44 -13 15 -16 30 -12 61 7 47 -6
63 -30 38z m-106 -144 c0 -14 -14 -12 -28 2 -19 19 -14 30 8 18 11 -6 20 -15
20 -20z m632 -35 c0 -5 -5 -11 -11 -13 -6 -2 -11 4 -11 13 0 9 5 15 11 13 6
-2 11 -8 11 -13z m-405 -4 c14 -1 43 -29 43 -41 0 -5 -8 -11 -17 -13 -10 -3 0
-4 22 -3 22 0 43 6 47 11 4 6 13 -4 20 -22 9 -24 24 -37 58 -52 42 -18 43 -19
16 -20 -16 -1 -44 -6 -62 -13 -29 -10 -38 -9 -79 13 -27 14 -48 33 -51 47 -4
12 -12 22 -20 22 -8 0 -14 4 -14 9 0 5 -21 17 -47 27 -58 21 -57 20 -48 33 4
7 29 10 63 7 31 -2 62 -5 69 -5z"/>
<path d="M7890 1810 c0 -5 5 -10 11 -10 5 0 7 5 4 10 -3 6 -8 10 -11 10 -2 0
-4 -4 -4 -10z"/>
<path d="M7330 1790 c0 -5 5 -10 11 -10 5 0 7 5 4 10 -3 6 -8 10 -11 10 -2 0
-4 -4 -4 -10z"/>
<path d="M7724 1792 c5 -9 81 -52 91 -52 3 0 5 3 5 8 0 6 -18 16 -94 51 -5 2
-6 -1 -2 -7z"/>
<path d="M4770 1751 c0 -17 5 -31 10 -31 6 0 10 7 10 15 0 8 7 15 16 15 23 0
11 24 -14 28 -19 3 -22 -1 -22 -27z"/>
<path d="M7840 1770 c0 -5 5 -10 10 -10 6 0 10 5 10 10 0 6 -4 10 -10 10 -5 0
-10 -4 -10 -10z"/>
<path d="M2827 1733 c-4 -3 -7 -11 -7 -17 0 -6 5 -5 12 2 6 6 9 14 7 17 -3 3
-9 2 -12 -2z"/>
<path d="M8967 1683 c-4 -3 -7 -13 -7 -22 0 -14 -15 -16 -107 -13 -60 1 -134
-3 -165 -9 l-58 -12 26 -23 c36 -34 102 -65 146 -70 21 -2 51 -10 67 -19 17
-8 41 -15 56 -15 14 0 25 -5 25 -11 0 -8 -11 -9 -31 -5 -17 3 -60 6 -95 6 -42
0 -67 5 -78 15 -8 8 -22 15 -31 15 -9 0 -26 5 -38 11 -19 11 -29 13 -74 18 -7
0 -13 8 -13 16 0 8 -7 15 -15 15 -8 0 -15 4 -15 9 0 11 -48 27 -107 35 -23 3
-48 9 -57 12 -11 4 -15 2 -11 -8 3 -8 19 -19 35 -25 22 -8 30 -18 30 -36 0
-20 4 -24 20 -20 11 3 20 0 20 -6 0 -6 18 -11 44 -11 26 0 67 -11 100 -26 57
-26 66 -32 44 -31 -36 1 -48 -5 -48 -22 0 -13 8 -21 23 -23 14 -2 23 -11 25
-25 2 -16 12 -24 35 -27 18 -3 50 -8 72 -13 22 -4 47 -7 55 -6 8 1 36 -8 62
-19 47 -20 48 -22 48 -64 0 -49 14 -68 16 -21 9 264 13 437 11 437 -2 0 -7 -3
-10 -7z m-257 -244 c0 -5 -4 -9 -10 -9 -5 0 -10 7 -10 16 0 8 5 12 10 9 6 -3
10 -10 10 -16z"/>
<path d="M8158 1613 c7 -3 16 -2 19 1 4 3 -2 6 -13 5 -11 0 -14 -3 -6 -6z"/>
<path d="M8244 1609 c-10 -17 13 -36 27 -22 12 12 4 33 -11 33 -5 0 -12 -5
-16 -11z"/>
<path d="M2580 1533 c0 -39 -4 -55 -17 -62 -16 -9 -16 -10 -2 -11 36 0 60 72
35 105 -14 19 -15 16 -16 -32z"/>
<path d="M2365 1420 c10 -11 20 -18 23 -15 7 6 -18 35 -31 35 -5 0 -2 -9 8
-20z"/>
<path d="M8320 1409 c0 -13 14 -17 68 -25 36 -4 52 -3 52 5 0 6 -11 11 -25 11
-14 0 -25 4 -25 9 0 5 -16 9 -35 8 -19 -1 -35 -4 -35 -8z"/>
<path d="M8660 1320 c19 -13 30 -13 30 0 0 6 -10 10 -22 10 -19 0 -20 -2 -8
-10z"/>
<path d="M8070 1295 c-27 -29 -35 -27 140 -29 181 -2 205 6 89 27 -51 9 -119
19 -151 21 -49 4 -59 1 -78 -19z"/>
<path d="M8766 1291 c-8 -12 18 -21 33 -11 10 5 8 9 -4 14 -21 8 -23 8 -29 -3z"/>
<path d="M8450 1285 c0 -2 9 -9 20 -15 24 -13 50 -2 29 11 -15 9 -49 12 -49 4z"/>
<path d="M8535 1270 c-3 -5 1 -10 10 -10 9 0 13 5 10 10 -3 6 -8 10 -10 10 -2
0 -7 -4 -10 -10z"/>
<path d="M8080 1240 c0 -5 12 -10 26 -10 14 0 23 4 19 10 -3 6 -15 10 -26 10
-10 0 -19 -4 -19 -10z"/>
<path d="M1160 1207 c0 -19 16 -31 24 -18 3 5 -1 14 -9 21 -12 10 -15 10 -15
-3z"/>
<path d="M1173 1133 c3 -21 10 -54 15 -73 9 -31 10 -32 11 -9 2 46 -11 119
-21 119 -6 0 -8 -16 -5 -37z"/>
<path d="M4660 1075 c0 -8 5 -15 10 -15 6 0 10 7 10 15 0 8 -4 15 -10 15 -5 0
-10 -7 -10 -15z"/>
<path d="M988 893 c7 -3 16 -2 19 1 4 3 -2 6 -13 5 -11 0 -14 -3 -6 -6z"/>
<path d="M1453 833 c9 -2 23 -2 30 0 6 3 -1 5 -18 5 -16 0 -22 -2 -12 -5z"/>
<path d="M1658 833 c6 -2 18 -2 25 0 6 3 1 5 -13 5 -14 0 -19 -2 -12 -5z"/>
<path d="M809 761 c-17 -18 -28 -35 -24 -39 4 -4 10 -1 12 6 3 6 10 12 16 12
14 0 41 39 33 47 -3 3 -19 -9 -37 -26z"/>
<path d="M430 6610 c0 -16 4 -30 8 -30 5 0 7 14 4 30 -2 17 -6 30 -8 30 -2 0
-4 -13 -4 -30z"/>
<path d="M130 4579 c0 -14 9 -34 20 -44 25 -23 25 -19 0 31 -17 35 -19 37 -20
13z"/>
<path d="M210 4179 c0 -5 5 -7 10 -4 6 3 10 8 10 11 0 2 -4 4 -10 4 -5 0 -10
-5 -10 -11z"/>
<path d="M181 1284 c0 -11 3 -14 6 -6 3 7 2 16 -1 19 -3 4 -6 -2 -5 -13z"/>
<path d="M180 990 c0 -5 5 -10 11 -10 5 0 7 5 4 10 -3 6 -8 10 -11 10 -2 0 -4
-4 -4 -10z"/>
<path d="M210 963 c0 -5 9 -19 19 -32 13 -17 20 -20 26 -12 4 7 -1 21 -11 32
-17 19 -34 25 -34 12z"/>
<path d="M220 372 c6 -13 14 -21 18 -18 3 4 -2 14 -12 24 -18 16 -18 16 -6 -6z"/>
<path d="M5000 245 c0 -8 4 -15 9 -15 5 0 14 7 21 15 10 13 9 15 -9 15 -12 0
-21 -6 -21 -15z"/>
<path d="M7280 240 c0 -5 7 -10 15 -10 8 0 15 5 15 10 0 6 -7 10 -15 10 -8 0
-15 -4 -15 -10z"/>
<path d="M8915 180 c-3 -5 -1 -10 4 -10 6 0 11 5 11 10 0 6 -2 10 -4 10 -3 0
-8 -4 -11 -10z"/>
<path d="M9562 249 c2 -6 8 -10 13 -10 5 0 11 4 13 10 2 6 -4 11 -13 11 -9 0
-15 -5 -13 -11z"/>
</g>
</svg>
