<?xml version="1.0" standalone="no"?>
<!DOCTYPE svg PUBLIC "-//W3C//DTD SVG 20010904//EN"
 "http://www.w3.org/TR/2001/REC-SVG-20010904/DTD/svg10.dtd">
<svg version="1.0" xmlns="http://www.w3.org/2000/svg"
 width="100%" height="100%" viewBox="0 0 831.000000 660.000000"
 preserveAspectRatio="xMidYMid meet">

<g transform="translate(0.000000,660.000000) scale(0.100000,-0.100000)"
fill="#000000" stroke="none">
<path d="M3880 6564 c-19 -8 -41 -21 -50 -28 -47 -42 -212 -113 -300 -132 -47
-9 -94 -31 -162 -76 -31 -21 -60 -38 -63 -38 -4 0 -35 -17 -68 -37 -58 -35
-101 -62 -314 -199 -49 -32 -106 -69 -128 -83 -38 -24 -199 -149 -275 -214
-80 -68 -362 -329 -460 -427 -59 -58 -144 -136 -190 -175 -46 -38 -113 -96
-149 -128 -36 -32 -97 -83 -136 -112 -38 -30 -122 -95 -185 -145 -71 -56 -149
-107 -203 -133 -77 -37 -240 -118 -497 -248 -102 -52 -339 -159 -351 -159 -5
0 -17 -4 -27 -9 -94 -50 -251 -115 -275 -113 -30 3 -30 2 -24 -40 11 -80 46
-132 159 -235 94 -86 120 -104 215 -147 231 -104 226 -101 347 -198 33 -27 65
-48 70 -48 14 0 -51 61 -123 118 -50 39 -265 152 -289 152 -5 0 -15 6 -21 14
-6 7 -24 16 -39 19 -15 3 -71 46 -126 96 -55 50 -103 91 -107 91 -3 0 -9 8
-13 18 -3 9 -14 31 -24 47 -10 17 -22 42 -26 58 -5 23 -3 27 14 27 22 0 63 17
195 81 45 21 86 39 92 39 7 0 43 15 80 34 78 40 127 61 163 72 14 3 27 10 30
13 3 4 39 23 80 44 41 20 102 53 135 72 33 19 68 34 78 35 9 0 17 4 17 9 0 5
12 12 26 15 14 4 43 18 64 31 21 13 51 27 66 31 54 14 211 102 289 163 22 17
45 34 50 38 6 5 26 22 46 38 20 17 46 37 58 45 13 8 31 22 41 30 10 8 37 31
61 52 24 20 58 48 74 62 17 15 75 63 130 109 55 45 138 120 185 167 87 87 177
171 316 295 44 39 103 93 132 122 68 67 236 203 250 203 6 0 12 4 14 8 3 9
194 142 203 142 3 0 40 24 83 53 86 59 276 177 285 177 3 0 42 23 87 51 45 28
98 53 116 56 19 3 34 10 34 14 0 5 15 9 34 9 19 0 38 5 41 11 4 6 13 8 21 5 8
-3 14 -1 14 4 0 6 6 10 14 10 15 0 77 30 86 42 3 3 17 9 32 13 14 4 36 16 49
28 13 12 34 28 48 35 32 16 47 -4 55 -77 4 -30 15 -73 25 -96 11 -22 30 -74
42 -115 16 -51 24 -68 27 -52 4 26 -20 116 -48 178 -10 23 -21 63 -25 90 -7
54 -26 114 -35 114 -3 -1 -21 -8 -40 -16z"/>
<path d="M4100 6045 c0 -3 20 -44 45 -92 25 -47 45 -92 45 -99 0 -7 3 -14 8
-16 8 -3 62 -112 62 -126 0 -5 11 -19 25 -32 14 -13 25 -27 25 -31 0 -20 137
-193 201 -254 23 -22 56 -65 73 -95 32 -58 285 -319 431 -446 44 -38 102 -90
130 -115 27 -25 100 -85 160 -132 61 -48 155 -123 210 -167 55 -44 136 -105
180 -136 44 -31 82 -60 85 -63 3 -4 13 -10 23 -14 9 -3 17 -11 17 -16 0 -15
-54 -41 -85 -41 -14 0 -33 -4 -43 -9 -14 -8 -39 -18 -62 -26 -3 -1 -18 -5 -35
-9 -16 -4 -42 -14 -57 -22 -14 -8 -41 -14 -60 -14 -19 0 -38 -4 -43 -8 -6 -5
-41 -17 -80 -26 -38 -10 -77 -20 -85 -23 -8 -4 -19 -7 -25 -8 -5 0 -17 -4 -25
-7 -8 -4 -26 -9 -40 -12 -106 -23 -140 -32 -146 -39 -4 -4 -17 -7 -28 -7 -12
0 -32 -6 -46 -13 -14 -7 -47 -21 -75 -32 -27 -10 -67 -29 -87 -42 -21 -12 -41
-23 -46 -23 -12 0 -116 -55 -177 -95 -30 -19 -58 -36 -63 -36 -4 -1 -25 -13
-47 -27 -22 -14 -56 -35 -75 -47 -19 -13 -50 -29 -67 -36 -18 -8 -33 -17 -33
-21 0 -5 -4 -8 -10 -8 -6 0 -10 26 -10 59 0 80 -25 200 -62 294 -26 67 -40 87
-97 139 -76 70 -89 76 -190 89 -96 12 -171 -1 -269 -47 -40 -19 -85 -34 -101
-34 -27 0 -28 2 -35 66 -10 98 -35 140 -101 170 -102 47 -181 15 -252 -99 -86
-141 -108 -337 -52 -457 24 -52 96 -146 125 -163 8 -4 48 -17 89 -28 59 -15
83 -17 117 -9 68 15 75 13 46 -17 -60 -65 -106 -167 -115 -257 -6 -61 21 -199
43 -217 8 -6 14 -14 14 -18 0 -8 -90 -75 -175 -131 -33 -21 -95 -72 -139 -113
l-79 -75 69 -69 c104 -106 170 -129 326 -114 102 10 145 23 233 70 76 41 91
40 98 -3 7 -44 85 -224 145 -336 353 -661 949 -1279 1759 -1823 214 -143 345
-224 583 -357 47 -26 106 -59 132 -74 40 -22 59 -26 125 -26 l78 0 -153 80
c-552 287 -1123 683 -1536 1064 -136 125 -341 335 -432 441 -277 322 -516 709
-643 1041 -35 91 -62 124 -89 108 -194 -120 -360 -154 -480 -97 -54 25 -142
96 -142 114 0 8 28 36 100 100 19 17 58 44 85 61 28 16 72 47 99 68 l50 39 79
-55 c106 -74 124 -60 38 29 -79 81 -97 111 -116 192 -16 72 -10 123 25 202 27
60 117 189 146 208 13 8 24 25 24 36 0 17 -4 20 -22 15 -13 -3 -81 -9 -153
-12 -155 -7 -184 1 -241 72 -62 75 -88 161 -81 264 6 84 25 140 73 217 50 79
107 100 178 66 37 -17 51 -42 61 -110 7 -45 -3 -55 -25 -28 -16 19 -50 20 -50
1 0 -7 18 -33 39 -57 l39 -44 70 1 c58 0 84 7 140 33 96 44 174 56 258 41 86
-14 111 -28 166 -89 51 -57 83 -134 105 -255 17 -96 10 -333 -13 -463 -14 -81
-60 -248 -85 -310 -12 -29 -10 -39 21 -110 285 -662 855 -1354 1445 -1753 44
-30 96 -63 115 -73 19 -11 49 -29 65 -41 17 -13 194 -116 395 -231 201 -114
390 -222 420 -240 30 -18 163 -94 295 -168 132 -74 258 -145 280 -157 22 -12
118 -62 213 -111 l173 -89 82 1 82 0 -85 41 c-203 98 -374 185 -490 251 -216
122 -772 438 -840 477 -36 21 -81 47 -101 58 -104 58 -319 184 -433 254 -404
248 -761 578 -1064 981 -187 248 -295 423 -424 686 l-91 184 17 46 c34 96 89
398 98 536 3 36 7 41 53 65 52 26 102 55 270 159 54 33 103 61 107 61 5 0 41
16 81 36 140 70 224 101 387 143 91 23 192 51 226 62 33 10 70 19 82 19 12 0
36 6 54 14 61 25 163 58 198 63 19 3 40 9 45 13 6 4 27 13 48 19 20 7 37 19
37 26 0 17 -54 63 -162 140 -46 32 -119 89 -163 125 -44 36 -114 91 -155 122
-41 31 -116 91 -166 135 -50 43 -133 114 -184 158 -176 152 -391 377 -429 451
-12 22 -33 52 -47 65 -49 45 -183 205 -226 270 -24 36 -78 135 -121 221 -44
86 -85 159 -93 162 -8 3 -14 3 -14 1z"/>
<path d="M850 3412 c0 -11 54 -54 90 -71 18 -9 14 -2 -15 24 -46 42 -75 60
-75 47z"/>
<path d="M1123 3154 c9 -11 17 -26 17 -32 0 -13 27 -53 91 -137 25 -33 65 -92
88 -132 22 -40 45 -74 50 -77 5 -3 12 -18 16 -33 6 -25 18 -45 120 -203 23
-36 51 -83 61 -105 19 -42 25 -53 90 -150 22 -33 68 -115 102 -182 95 -190
182 -309 266 -366 18 -12 51 -35 74 -50 25 -18 48 -27 59 -23 10 3 38 42 61
86 41 77 65 112 202 296 36 48 80 108 99 133 19 25 140 151 269 279 129 128
232 236 228 239 -19 19 -441 -402 -561 -560 -174 -230 -238 -323 -274 -399
-13 -27 -26 -50 -29 -52 -7 -4 -83 50 -169 120 -52 43 -156 196 -229 339 -19
39 -49 93 -65 120 -16 28 -37 66 -47 85 -9 19 -23 41 -29 48 -7 7 -13 20 -13
28 0 8 -4 14 -10 14 -5 0 -9 3 -8 8 3 9 -60 119 -73 127 -5 4 -18 26 -29 50
-11 24 -24 47 -30 50 -5 3 -21 30 -35 60 -14 29 -37 69 -50 89 -14 20 -32 51
-41 69 -10 17 -29 48 -44 67 -15 19 -52 69 -82 110 -31 42 -64 82 -75 90 -17
14 -17 14 0 -6z"/>
</g>
</svg>
